<svg width="2952" height="1306" xmlns="http://www.w3.org/2000/svg" xmlns:xlink="http://www.w3.org/1999/xlink" xml:space="preserve" overflow="hidden"><g transform="translate(-723 -591)"><path d="M725 621.657C725 605.83 737.83 593 753.657 593L3637.34 593C3653.17 593 3666 605.83 3666 621.657L3666 1848.34C3666 1864.17 3653.17 1877 3637.34 1877L753.657 1877C737.83 1877 725 1864.17 725 1848.34Z" fill="#0D1117" fill-rule="evenodd"/><path d="M2667.5 659.296C2667.5 643.945 2679.94 631.5 2695.3 631.5L3594.7 631.5C3610.06 631.5 3622.5 643.945 3622.5 659.296L3622.5 937.704C3622.5 953.055 3610.06 965.5 3594.7 965.5L2695.3 965.5C2679.94 965.5 2667.5 953.055 2667.5 937.704Z" stroke="#FFFFFF" stroke-width="4.58333" stroke-miterlimit="8" fill="#262626" fill-rule="evenodd"/><text fill="#FFFFFF" font-family="Times New Roman,Times New Roman_MSFontService,sans-serif" font-weight="700" font-size="64" transform="matrix(1 0 0 1 2530.5 1053)">Service Management and Orchestration</text><text fill="#FFFFFF" font-family="Arial,Arial_MSFontService,sans-serif" font-weight="400" font-size="55" transform="matrix(1 0 0 1 2765.46 1118)">•</text><text fill="#FFFFFF" font-family="Times New Roman,Times New Roman_MSFontService,sans-serif" font-weight="400" font-size="55" transform="matrix(1 0 0 1 2868.59 1118)">O</text><text fill="#FFFFFF" font-family="Times New Roman,Times New Roman_MSFontService,sans-serif" font-weight="400" font-size="55" transform="matrix(1 0 0 1 2908.12 1118)">-</text><text fill="#FFFFFF" font-family="Times New Roman,Times New Roman_MSFontService,sans-serif" font-weight="400" font-size="55" transform="matrix(1 0 0 1 2926.45 1118)">RAN SC RIC</text><text fill="#FFFFFF" font-family="Times New Roman,Times New Roman_MSFontService,sans-serif" font-weight="700" font-size="64" transform="matrix(1 0 0 1 2966.67 931)">Non</text><text fill="#FFFFFF" font-family="Times New Roman,Times New Roman_MSFontService,sans-serif" font-weight="700" font-size="64" transform="matrix(1 0 0 1 3080.68 931)">-</text><text fill="#FFFFFF" font-family="Times New Roman,Times New Roman_MSFontService,sans-serif" font-weight="700" font-size="64" transform="matrix(1 0 0 1 3101.88 931)">RT RIC</text><path d="M725.5 622.158C725.5 606.331 738.331 593.5 754.158 593.5L3637.84 593.5C3653.67 593.5 3666.5 606.331 3666.5 622.158L3666.5 1848.84C3666.5 1864.67 3653.67 1877.5 3637.84 1877.5L754.158 1877.5C738.331 1877.5 725.5 1864.67 725.5 1848.84Z" stroke="#FFFFFF" stroke-width="4.58333" stroke-miterlimit="8" fill="none" fill-rule="evenodd"/><text fill="#FFFFFF" font-family="Times New Roman,Times New Roman_MSFontService,sans-serif" font-weight="700" font-size="64" transform="matrix(1 0 0 1 950.914 1625)">User Equipment</text><path d="M772 1243.62C772 1226.16 786.155 1212 803.617 1212L1548.38 1212C1565.84 1212 1580 1226.16 1580 1243.62L1580 1514.38C1580 1531.84 1565.84 1546 1548.38 1546L803.617 1546C786.155 1546 772 1531.84 772 1514.38Z" fill="#3A3A3A" fill-rule="evenodd"/><rect x="772" y="1321" width="808" height="116" fill="#262626"/><path d="M772.5 1245.5C772.5 1227.27 787.273 1212.5 805.496 1212.5L1547.5 1212.5C1565.73 1212.5 1580.5 1227.27 1580.5 1245.5L1580.5 1513.5C1580.5 1531.73 1565.73 1546.5 1547.5 1546.5L805.496 1546.5C787.273 1546.5 772.5 1531.73 772.5 1513.5Z" stroke="#FFFFFF" stroke-width="4.58333" stroke-miterlimit="8" fill="none" fill-rule="evenodd"/><text fill="#FFFFFF" font-family="Times New Roman,Times New Roman_MSFontService,sans-serif" font-weight="400" font-size="64" transform="matrix(1 0 0 1 929.584 1511)">RF Simulator / </text><text fill="#FFFFFF" font-family="Times New Roman,Times New Roman_MSFontService,sans-serif" font-weight="400" font-size="64" transform="matrix(1 0 0 1 1326.62 1511)">ZeroMQ</text><text fill="#FFFFFF" font-family="Times New Roman,Times New Roman_MSFontService,sans-serif" font-weight="400" font-size="64" transform="matrix(1 0 0 1 1012.08 1403)">5G </text><text fill="#FFFFFF" font-family="Times New Roman,Times New Roman_MSFontService,sans-serif" font-weight="400" font-size="64" transform="matrix(1 0 0 1 1106.62 1403)">Mobile Phone</text><text fill="#FFFFFF" font-family="Times New Roman,Times New Roman_MSFontService,sans-serif" font-weight="400" font-size="64" transform="matrix(1 0 0 1 925.86 1295)">Software</text><text fill="#FFFFFF" font-family="Times New Roman,Times New Roman_MSFontService,sans-serif" font-weight="400" font-size="64" transform="matrix(1 0 0 1 1157.32 1295)">-</text><text fill="#FFFFFF" font-family="Times New Roman,Times New Roman_MSFontService,sans-serif" font-weight="400" font-size="64" transform="matrix(1 0 0 1 1178.52 1295)">Defined Radio</text><g><g><g><path d="M54.9998 66.6664 24.9999 66.6664 24.9999 13.3333 54.9998 13.3333 54.9998 66.6664ZM36.6665 6.66664 43.3332 6.66664C44.2499 6.66664 44.9999 7.41664 44.9999 8.33331 44.9999 9.24997 44.2499 9.99997 43.3332 9.99997L36.6665 9.99997C35.7499 9.99997 34.9999 9.24997 34.9999 8.33331 34.9999 7.41664 35.7499 6.66664 36.6665 6.66664ZM58.3331 3.33332 21.6666 3.33332C20.7499 3.33332 19.9999 4.08332 19.9999 4.99998L19.9999 74.9997C19.9999 75.9164 20.7499 76.6664 21.6666 76.6664L58.3331 76.6664C59.2498 76.6664 59.9998 75.9164 59.9998 74.9997L59.9998 4.99998C59.9998 4.08332 59.2498 3.33332 58.3331 3.33332Z" fill="#FFFFFF" transform="matrix(1 0 0 1 825 1336)"/></g></g></g><g><g><g><path d="M69.5164 20.125C67.9279 15.0763 62.5474 12.2711 57.4987 13.8596 54.5122 14.7992 52.173 17.1385 51.2333 20.125L13.4166 20.125 13.4166 25.8749 51.2333 25.8749C52.8218 30.9236 58.2023 33.7287 63.251 32.1403 66.2375 31.2007 68.5767 28.8614 69.5164 25.8749L78.5831 25.8749 78.5831 20.125ZM60.3748 26.8333C58.2578 26.8333 56.5415 25.117 56.5415 22.9999 56.5415 20.8829 58.2578 19.1666 60.3748 19.1666 62.4919 19.1666 64.2082 20.8829 64.2082 22.9999 64.2082 25.117 62.4919 26.8333 60.3748 26.8333Z" fill="#FFFFFF" transform="matrix(1 0 0 1.01087 819 1444)"/><path d="M56.5415 59.4165C52.3582 59.4219 48.66 62.1357 47.4 66.1248L13.4166 66.1248 13.4166 71.8748 47.4 71.8748C48.9884 76.9235 54.369 79.7286 59.4177 78.1402 62.4042 77.2005 64.7434 74.8613 65.683 71.8748L78.5831 71.8748 78.5831 66.1248 65.683 66.1248C64.423 62.1357 60.7248 59.4219 56.5415 59.4165ZM56.5415 72.8332C54.4245 72.8332 52.7082 71.1169 52.7082 68.9998 52.7082 66.8828 54.4245 65.1665 56.5415 65.1665 58.6586 65.1665 60.3748 66.8828 60.3748 68.9998 60.3748 71.1169 58.6586 72.8332 56.5415 72.8332Z" fill="#FFFFFF" transform="matrix(1 0 0 1.01087 819 1444)"/><path d="M32.5833 36.4166C28.3999 36.4219 24.7017 39.1357 23.4417 43.1249L13.4166 43.1249 13.4166 48.8749 23.4417 48.8749C25.0302 53.9236 30.4107 56.7287 35.4594 55.1403 38.4459 54.2006 40.7851 51.8613 41.7248 48.8749L78.5831 48.8749 78.5831 43.1249 41.7248 43.1249C40.4648 39.1357 36.7666 36.4219 32.5833 36.4166ZM32.5833 49.8332C30.4662 49.8332 28.7499 48.1169 28.7499 45.9999 28.7499 43.8828 30.4662 42.1666 32.5833 42.1666 34.7003 42.1666 36.4166 43.8828 36.4166 45.9999 36.4166 48.1169 34.7003 49.8332 32.5833 49.8332Z" fill="#FFFFFF" transform="matrix(1 0 0 1.01087 819 1444)"/></g></g></g><g><g><g><path d="M34.5626 37.1001 37.0126 34.6501C35.7876 33.3376 35.0001 31.5876 35.0001 29.6626 35.0001 27.7376 35.7876 25.9876 37.0126 24.6751L34.5626 22.2251C32.6376 24.1501 31.5001 26.7751 31.5001 29.6626 31.5001 32.5501 32.6376 35.1751 34.5626 37.1001Z" fill="#FFFFFF" transform="matrix(1 0 0 1.0119 823 1224)"/><path d="M29.6626 42.0001 32.1126 39.5501C29.5751 37.0126 28.0001 33.5126 28.0001 29.6626 28.0001 25.8126 29.5751 22.3126 32.1126 19.7751L29.6626 17.325C26.4251 20.4751 24.5001 24.8501 24.5001 29.6626 24.5001 34.4751 26.4251 38.8501 29.6626 42.0001Z" fill="#FFFFFF" transform="matrix(1 0 0 1.0119 823 1224)"/><path d="M27.1251 44.5376C23.3626 40.7751 21.0001 35.5251 21.0001 29.6626 21.0001 23.8001 23.3626 18.6376 27.1251 14.7875L24.6751 12.3375C20.2126 16.8 17.5 22.9251 17.5 29.6626 17.5 36.4001 20.2126 42.5251 24.6751 46.9876L27.1251 44.5376Z" fill="#FFFFFF" transform="matrix(1 0 0 1.0119 823 1224)"/><path d="M49.4376 37.1001C51.3626 35.1751 52.5001 32.5501 52.5001 29.6626 52.5001 26.7751 51.3626 24.1501 49.4376 22.2251L46.9876 24.6751C48.2126 25.9001 49.0001 27.6501 49.0001 29.6626 49.0001 31.6751 48.2126 33.3376 46.9876 34.6501L49.4376 37.1001Z" fill="#FFFFFF" transform="matrix(1 0 0 1.0119 823 1224)"/><path d="M51.8876 39.5501 54.3376 42.0001C57.5752 38.8501 59.5002 34.4751 59.5002 29.6626 59.5002 24.8501 57.5752 20.4751 54.3376 17.325L51.8876 19.7751C54.4251 22.3126 56.0002 25.8126 56.0002 29.6626 56.0002 33.5126 54.4251 37.0126 51.8876 39.5501Z" fill="#FFFFFF" transform="matrix(1 0 0 1.0119 823 1224)"/><path d="M56.8752 44.5376 59.3252 46.9876C63.7877 42.5251 66.5002 36.4001 66.5002 29.6626 66.5002 22.9251 63.7877 16.8 59.3252 12.3375L56.8752 14.7875C60.6377 18.5501 63.0002 23.8001 63.0002 29.6626 63.0002 35.5251 60.6377 40.6876 56.8752 44.5376Z" fill="#FFFFFF" transform="matrix(1 0 0 1.0119 823 1224)"/><path d="M64.7502 64.6627C63.7877 64.6627 63.0002 63.8752 63.0002 62.9127 63.0002 61.9502 63.7877 61.1627 64.7502 61.1627 65.7127 61.1627 66.5002 61.9502 66.5002 62.9127 66.5002 63.8752 65.7127 64.6627 64.7502 64.6627ZM56.0002 64.6627C55.0377 64.6627 54.2501 63.8752 54.2501 62.9127 54.2501 61.9502 55.0377 61.1627 56.0002 61.1627 56.9627 61.1627 57.7502 61.9502 57.7502 62.9127 57.7502 63.8752 56.9627 64.6627 56.0002 64.6627ZM47.2501 64.6627C46.2876 64.6627 45.5001 63.8752 45.5001 62.9127 45.5001 61.9502 46.2876 61.1627 47.2501 61.1627 48.2126 61.1627 49.0001 61.9502 49.0001 62.9127 49.0001 63.8752 48.2126 64.6627 47.2501 64.6627ZM38.5001 64.6627C37.5376 64.6627 36.7501 63.8752 36.7501 62.9127 36.7501 61.9502 37.5376 61.1627 38.5001 61.1627 39.4626 61.1627 40.2501 61.9502 40.2501 62.9127 40.2501 63.8752 39.4626 64.6627 38.5001 64.6627ZM21.0001 66.4127C19.0751 66.4127 17.5 64.8377 17.5 62.9127 17.5 60.9877 19.0751 59.4127 21.0001 59.4127 22.9251 59.4127 24.5001 60.9877 24.5001 62.9127 24.5001 64.8377 22.9251 66.4127 21.0001 66.4127ZM68.2502 54.1626 43.7501 54.1626 43.7501 32.6376C44.8001 32.0251 45.5001 30.8876 45.5001 29.6626 45.5001 27.7376 43.9251 26.1626 42.0001 26.1626 40.0751 26.1626 38.5001 27.7376 38.5001 29.6626 38.5001 30.9751 39.2001 32.1126 40.2501 32.6376L40.2501 54.1626 15.75 54.1626C13.825 54.1626 12.25 55.7377 12.25 57.6627L12.25 68.1627C12.25 70.0877 13.825 71.6627 15.75 71.6627L68.2502 71.6627C70.1752 71.6627 71.7502 70.0877 71.7502 68.1627L71.7502 57.6627C71.7502 55.7377 70.1752 54.1626 68.2502 54.1626Z" fill="#FFFFFF" transform="matrix(1 0 0 1.0119 823 1224)"/></g></g></g><g><g><g><path d="M55.6812 132.754C108.531 79.9041 194.098 79.9041 246.948 132.754L251.352 128.35C195.985 72.9833 106.329 72.9833 51.2771 128.35L55.6812 132.754Z" fill="#FFFFFF" transform="matrix(6.12324e-17 1 -1 6.12323e-17 1823 1228)"/><path d="M224.612 155.089C184.031 114.508 118.283 114.508 77.702 155.089L82.1062 159.494C120.171 121.429 181.829 121.429 219.894 159.494L224.612 155.089Z" fill="#FFFFFF" transform="matrix(6.12324e-17 1 -1 6.12323e-17 1823 1228)"/><path d="M109.16 186.233C132.439 162.954 170.504 162.954 193.783 186.233L198.187 181.829C172.392 156.033 130.552 156.033 104.756 181.829L109.16 186.233Z" fill="#FFFFFF" transform="matrix(6.12324e-17 1 -1 6.12323e-17 1823 1228)"/><path d="M135.9 212.973C144.394 204.479 158.55 204.479 167.044 212.973L171.448 208.569C160.437 197.558 142.506 197.558 131.496 208.569L135.9 212.973Z" fill="#FFFFFF" transform="matrix(6.12324e-17 1 -1 6.12323e-17 1823 1228)"/></g></g></g><text fill="#FFFFFF" font-family="Arial,Arial_MSFontService,sans-serif" font-weight="400" font-size="55" transform="matrix(1 0 0 1 971.009 1698)">•</text><text fill="#FFFFFF" font-family="Times New Roman,Times New Roman_MSFontService,sans-serif" font-weight="400" font-size="55" transform="matrix(1 0 0 1 1074.13 1698)">srsRAN_4G</text><text fill="#FFFFFF" font-family="Arial,Arial_MSFontService,sans-serif" font-weight="400" font-size="55" transform="matrix(1 0 0 1 971.009 1764)">•</text><text fill="#FFFFFF" font-family="Times New Roman,Times New Roman_MSFontService,sans-serif" font-weight="400" font-size="55" transform="matrix(1 0 0 1 1074.13 1764)">OpenAirInterface5G</text><text fill="#FFFFFF" font-family="Times New Roman,Times New Roman_MSFontService,sans-serif" font-weight="700" font-size="64" transform="matrix(1 0 0 1 2024.4 1625)">Next Generation Node B</text><g><g><g><path d="M55.6813 132.754C108.531 79.9042 194.098 79.9042 246.948 132.754L251.352 128.35C195.986 72.9834 106.329 72.9834 51.2771 128.35L55.6813 132.754Z" fill="#FFFFFF" transform="matrix(1.83697e-16 1 1 -1.83697e-16 1714 1228)"/><path d="M224.613 155.09C184.031 114.508 118.283 114.508 77.7021 155.09L82.1063 159.494C120.171 121.429 181.829 121.429 219.894 159.494L224.613 155.09Z" fill="#FFFFFF" transform="matrix(1.83697e-16 1 1 -1.83697e-16 1714 1228)"/><path d="M109.16 186.233C132.44 162.954 170.504 162.954 193.783 186.233L198.188 181.829C172.392 156.033 130.552 156.033 104.756 181.829L109.16 186.233Z" fill="#FFFFFF" transform="matrix(1.83697e-16 1 1 -1.83697e-16 1714 1228)"/><path d="M135.9 212.973C144.394 204.479 158.55 204.479 167.044 212.973L171.448 208.569C160.438 197.558 142.506 197.558 131.496 208.569L135.9 212.973Z" fill="#FFFFFF" transform="matrix(1.83697e-16 1 1 -1.83697e-16 1714 1228)"/></g></g></g><path d="M1956 1296.06C1956 1280.01 1969.01 1267 1985.06 1267L2734.94 1267C2750.99 1267 2764 1280.01 2764 1296.06L2764 1461.94C2764 1477.99 2750.99 1491 2734.94 1491L1985.06 1491C1969.01 1491 1956 1477.99 1956 1461.94Z" fill="#3A3A3A" fill-rule="evenodd"/><path d="M31.8281 0 775.172 0C792.75-6.42139e-15 807 14.25 807 31.8283L807 111 0 111 0 31.8283C-6.42137e-15 14.25 14.2499 0 31.8281 0Z" fill="#262626" fill-rule="evenodd" transform="matrix(1 0 0 -1 1957 1490)"/><path d="M1956.5 1296.56C1956.5 1280.51 1969.51 1267.5 1985.56 1267.5L2735.44 1267.5C2751.49 1267.5 2764.5 1280.51 2764.5 1296.56L2764.5 1462.44C2764.5 1478.49 2751.49 1491.5 2735.44 1491.5L1985.56 1491.5C1969.51 1491.5 1956.5 1478.49 1956.5 1462.44Z" stroke="#FFFFFF" stroke-width="4.58333" stroke-miterlimit="8" fill="none" fill-rule="evenodd"/><text fill="#FFFFFF" font-family="Times New Roman,Times New Roman_MSFontService,sans-serif" font-weight="400" font-size="64" transform="matrix(1 0 0 1 2110.51 1349)">Software</text><text fill="#FFFFFF" font-family="Times New Roman,Times New Roman_MSFontService,sans-serif" font-weight="400" font-size="64" transform="matrix(1 0 0 1 2341.96 1349)">-</text><text fill="#FFFFFF" font-family="Times New Roman,Times New Roman_MSFontService,sans-serif" font-weight="400" font-size="64" transform="matrix(1 0 0 1 2363.16 1349)">Defined Radio</text><g><g><g><path d="M43.3334 37.9167 46.3667 34.8834C43.0429 31.4377 43.0429 25.979 46.3667 22.5334L43.3334 19.5C38.277 24.5978 38.277 32.819 43.3334 37.9167Z" fill="#FFFFFF" transform="matrix(1.00962 0 0 1 1997 1275)"/><path d="M37.2667 43.9834 40.3001 40.9501C33.5392 34.2321 33.5044 23.3052 40.2224 16.5444 40.2482 16.5184 40.2741 16.4925 40.3001 16.4667L37.2667 13.4334C28.8306 21.7503 28.7339 35.3313 37.0508 43.7675 37.1223 43.84 37.1942 43.9119 37.2667 43.9834Z" fill="#FFFFFF" transform="matrix(1.00962 0 0 1 1997 1275)"/><path d="M34.1251 47.1251C24.0122 36.9297 24.0122 20.4871 34.1251 10.2917L31.0917 7.25834C19.2452 19.1036 19.2443 38.3097 31.0895 50.1562 31.0903 50.157 31.091 50.1577 31.0917 50.1584Z" fill="#FFFFFF" transform="matrix(1.00962 0 0 1 1997 1275)"/><path d="M61.7501 37.9167C66.8065 32.819 66.8065 24.5978 61.7501 19.5L58.7168 22.5334C60.3365 24.1778 61.2332 26.4003 61.2084 28.7084 61.2122 31.0123 60.3185 33.2272 58.7168 34.8834Z" fill="#FFFFFF" transform="matrix(1.00962 0 0 1 1997 1275)"/><path d="M64.7834 40.9501 67.8168 43.9834C76.2529 35.6664 76.3496 22.0854 68.0327 13.6493 67.9612 13.5768 67.8893 13.5049 67.8168 13.4334L64.7834 16.4667C71.5443 23.1847 71.5791 34.1115 64.8611 40.8724 64.8353 40.8984 64.8094 40.9243 64.7834 40.9501Z" fill="#FFFFFF" transform="matrix(1.00962 0 0 1 1997 1275)"/><path d="M70.9584 47.1251 73.9918 50.1584C85.8383 38.3131 85.8392 19.1071 73.9939 7.26053 73.9933 7.25981 73.9925 7.25907 73.9918 7.25834L70.9584 10.2917C81.0713 20.4871 81.0713 36.9297 70.9584 47.1251Z" fill="#FFFFFF" transform="matrix(1.00962 0 0 1 1997 1275)"/><path d="M85.5835 93.936 85.5835 93.936C85.5501 93.7436 85.488 93.5574 85.3993 93.3835 85.3993 93.3835 85.3993 93.3835 85.3993 93.3185L54.5243 33.1934C54.4302 33.0171 54.3096 32.8564 54.1668 32.7167 56.3853 31.8193 57.4563 29.2932 56.5589 27.0746 55.6614 24.856 53.1353 23.7851 50.9167 24.6825 48.6982 25.5799 47.6272 28.106 48.5246 30.3246 48.965 31.4131 49.8282 32.2763 50.9167 32.7167 50.801 32.844 50.7027 32.9861 50.6242 33.1392L19.7492 93.2643C19.7492 93.2643 19.7492 93.2643 19.7492 93.3293 19.6605 93.5032 19.5984 93.6895 19.565 93.8818L19.565 93.8818C19.5381 94.0613 19.5381 94.244 19.565 94.4235 19.565 94.4235 19.565 94.5101 19.565 94.5535 19.5945 94.7288 19.6454 94.8998 19.7167 95.0627 19.7167 95.0627 19.7167 95.0627 19.7167 95.0627 19.7167 95.0627 19.825 95.2143 19.8684 95.301 19.9343 95.4099 20.0067 95.5147 20.085 95.6152L20.085 95.6152C20.1402 95.6619 20.198 95.7053 20.2584 95.7451 20.352 95.8338 20.4535 95.9136 20.5617 95.9835 20.6463 96.0277 20.7331 96.0674 20.8217 96.1027L21.1467 96.2218 21.4284 96.2218 21.6667 96.4168 21.8184 96.4168 21.9592 96.4168C22.1577 96.3982 22.3517 96.3469 22.5334 96.2652L52.5634 83.0593 82.5501 96.2327C82.8222 96.3566 83.1179 96.4194 83.4168 96.4168L83.4168 96.4168C83.5962 96.4136 83.7745 96.3881 83.9476 96.341L84.0993 96.341C84.2369 96.2888 84.3709 96.2272 84.5001 96.1568L84.5976 96.0918C84.7393 96.0025 84.8702 95.8971 84.9876 95.7777L84.9876 95.7777C85.0721 95.6718 85.1482 95.5595 85.2151 95.4418 85.2624 95.372 85.3058 95.2997 85.3451 95.2252 85.3451 95.2252 85.3451 95.2252 85.3451 95.2252 85.4184 95.0593 85.4694 94.8844 85.4968 94.7051 85.4968 94.7051 85.4968 94.6293 85.4968 94.586 85.5648 94.3764 85.5942 94.1561 85.5835 93.936ZM67.1668 67.3401 56.2251 59.9409 61.5009 56.3334ZM52.5417 38.8701 59.5076 52.4226 52.3792 57.3301 45.8792 52.9967C45.7382 52.8984 45.5853 52.8183 45.4242 52.7584ZM43.4634 56.5393 48.5442 59.9734 37.9167 67.2643ZM26.3792 89.8193 34.0276 74.9126 47.1684 80.6868ZM38.5017 72.1501 52.4009 62.5843 66.5709 72.1718 52.5634 78.3251ZM75.3351 88.3351 57.9476 80.6976 71.0668 74.9343 78.7043 89.8085Z" fill="#FFFFFF" transform="matrix(1.00962 0 0 1 1997 1275)"/></g></g></g><text fill="#FFFFFF" font-family="Times New Roman,Times New Roman_MSFontService,sans-serif" font-weight="400" font-size="64" transform="matrix(1 0 0 1 2114.23 1458)">RF Simulator / </text><text fill="#FFFFFF" font-family="Times New Roman,Times New Roman_MSFontService,sans-serif" font-weight="400" font-size="64" transform="matrix(1 0 0 1 2511.26 1458)">ZeroMQ</text><g><g><g><path d="M69.5164 20.125C67.9279 15.0763 62.5474 12.2711 57.4987 13.8596 54.5122 14.7992 52.173 17.1385 51.2333 20.125L13.4166 20.125 13.4166 25.8749 51.2333 25.8749C52.8218 30.9236 58.2023 33.7287 63.251 32.1403 66.2375 31.2007 68.5767 28.8614 69.5164 25.8749L78.5831 25.8749 78.5831 20.125ZM60.3748 26.8333C58.2578 26.8333 56.5415 25.117 56.5415 22.9999 56.5415 20.8829 58.2578 19.1666 60.3748 19.1666 62.4919 19.1666 64.2082 20.8829 64.2082 22.9999 64.2082 25.117 62.4919 26.8333 60.3748 26.8333Z" fill="#FFFFFF" transform="matrix(1.01087 0 0 1 2009 1388)"/><path d="M56.5415 59.4165C52.3582 59.4219 48.66 62.1357 47.4 66.1248L13.4166 66.1248 13.4166 71.8748 47.4 71.8748C48.9884 76.9235 54.369 79.7286 59.4177 78.1402 62.4042 77.2005 64.7434 74.8613 65.683 71.8748L78.5831 71.8748 78.5831 66.1248 65.683 66.1248C64.423 62.1357 60.7248 59.4219 56.5415 59.4165ZM56.5415 72.8332C54.4245 72.8332 52.7082 71.1169 52.7082 68.9998 52.7082 66.8828 54.4245 65.1665 56.5415 65.1665 58.6586 65.1665 60.3748 66.8828 60.3748 68.9998 60.3748 71.1169 58.6586 72.8332 56.5415 72.8332Z" fill="#FFFFFF" transform="matrix(1.01087 0 0 1 2009 1388)"/><path d="M32.5833 36.4166C28.3999 36.4219 24.7017 39.1357 23.4417 43.1249L13.4166 43.1249 13.4166 48.8749 23.4417 48.8749C25.0302 53.9236 30.4107 56.7287 35.4594 55.1403 38.4459 54.2006 40.7851 51.8613 41.7248 48.8749L78.5831 48.8749 78.5831 43.1249 41.7248 43.1249C40.4648 39.1357 36.7666 36.4219 32.5833 36.4166ZM32.5833 49.8332C30.4662 49.8332 28.7499 48.1169 28.7499 45.9999 28.7499 43.8828 30.4662 42.1666 32.5833 42.1666 34.7003 42.1666 36.4166 43.8828 36.4166 45.9999 36.4166 48.1169 34.7003 49.8332 32.5833 49.8332Z" fill="#FFFFFF" transform="matrix(1.01087 0 0 1 2009 1388)"/></g></g></g><text fill="#FFFFFF" font-family="Arial,Arial_MSFontService,sans-serif" font-weight="400" font-size="55" transform="matrix(1 0 0 1 2041.82 1698)">•</text><text fill="#FFFFFF" font-family="Times New Roman,Times New Roman_MSFontService,sans-serif" font-weight="400" font-size="55" transform="matrix(1 0 0 1 2144.95 1698)">srsRAN_Project</text><text fill="#FFFFFF" font-family="Arial,Arial_MSFontService,sans-serif" font-weight="400" font-size="55" transform="matrix(1 0 0 1 2041.82 1764)">•</text><text fill="#FFFFFF" font-family="Times New Roman,Times New Roman_MSFontService,sans-serif" font-weight="400" font-size="55" transform="matrix(1 0 0 1 2144.95 1764)">OpenAirInterface5G</text><text fill="#FFFFFF" font-family="Arial,Arial_MSFontService,sans-serif" font-weight="400" font-size="55" transform="matrix(1 0 0 1 2041.82 1830)">•</text><text fill="#FFFFFF" font-family="Times New Roman,Times New Roman_MSFontService,sans-serif" font-weight="400" font-size="55" transform="matrix(1 0 0 1 2144.95 1830)">O</text><text fill="#FFFFFF" font-family="Times New Roman,Times New Roman_MSFontService,sans-serif" font-weight="400" font-size="55" transform="matrix(1 0 0 1 2184.48 1830)">-</text><text fill="#FFFFFF" font-family="Times New Roman,Times New Roman_MSFontService,sans-serif" font-weight="400" font-size="55" transform="matrix(1 0 0 1 2202.81 1830)">RAN SC E2 Simulator</text><path d="M0 0 398.877 0 398.877 59.6562" stroke="#FFFFFF" stroke-width="4.58333" stroke-linejoin="round" stroke-miterlimit="10" fill="none" fill-rule="evenodd" transform="matrix(-1.83697e-16 -1 -1 1.83697e-16 2361.16 1266.38)"/><path d="M1048.5 659.672C1048.5 643.561 1061.56 630.5 1077.67 630.5L2282.33 630.5C2298.44 630.5 2311.5 643.561 2311.5 659.672L2311.5 935.328C2311.5 951.439 2298.44 964.5 2282.33 964.5L1077.67 964.5C1061.56 964.5 1048.5 951.439 1048.5 935.328Z" stroke="#FFFFFF" stroke-width="4.58333" stroke-miterlimit="8" fill="#262626" fill-rule="evenodd"/><text fill="#FFFFFF" font-family="Times New Roman,Times New Roman_MSFontService,sans-serif" font-weight="700" font-size="64" transform="matrix(1 0 0 1 1214.73 1052)">Near</text><text fill="#FFFFFF" font-family="Times New Roman,Times New Roman_MSFontService,sans-serif" font-weight="700" font-size="64" transform="matrix(1 0 0 1 1348.13 1052)">-</text><text fill="#FFFFFF" font-family="Times New Roman,Times New Roman_MSFontService,sans-serif" font-weight="700" font-size="64" transform="matrix(1 0 0 1 1369.33 1052)">RT RAN Intelligent Controller</text><text fill="#FFFFFF" font-family="Arial,Arial_MSFontService,sans-serif" font-weight="400" font-size="55" transform="matrix(1 0 0 1 1400.68 1117)">•</text><text fill="#FFFFFF" font-family="Times New Roman,Times New Roman_MSFontService,sans-serif" font-weight="400" font-size="55" transform="matrix(1 0 0 1 1503.8 1117)">O</text><text fill="#FFFFFF" font-family="Times New Roman,Times New Roman_MSFontService,sans-serif" font-weight="400" font-size="55" transform="matrix(1 0 0 1 1543.34 1117)">-</text><text fill="#FFFFFF" font-family="Times New Roman,Times New Roman_MSFontService,sans-serif" font-weight="400" font-size="55" transform="matrix(1 0 0 1 1561.67 1117)">RAN SC RIC</text><text fill="#FFFFFF" font-family="Arial,Arial_MSFontService,sans-serif" font-weight="400" font-size="55" transform="matrix(1 0 0 1 1400.68 1183)">•</text><text fill="#FFFFFF" font-family="Times New Roman,Times New Roman_MSFontService,sans-serif" font-weight="400" font-size="55" transform="matrix(1 0 0 1 1503.8 1183)">FlexRIC</text><path d="M2311.5 726.5 2666.97 726.5" stroke="#FFFFFF" stroke-width="4.58333" stroke-miterlimit="8" fill="none" fill-rule="evenodd"/><text fill="#FFFFFF" font-family="Times New Roman,Times New Roman_MSFontService,sans-serif" font-style="italic" font-weight="400" font-size="55" transform="matrix(1 0 0 1 2382.89 706)">A1 Policy</text><text fill="#FFFFFF" font-family="Times New Roman,Times New Roman_MSFontService,sans-serif" font-style="italic" font-weight="400" font-size="55" transform="matrix(1 0 0 1 2381.12 1177)">Key Performance Measurement</text><text fill="#FFFFFF" font-family="Times New Roman,Times New Roman_MSFontService,sans-serif" font-style="italic" font-weight="400" font-size="55" transform="matrix(1 0 0 1 2381.12 1243)">RIC Control</text><path d="M1365.5 824.031C1365.5 816.006 1372.01 809.5 1380.03 809.5L1796.97 809.5C1804.99 809.5 1811.5 816.006 1811.5 824.031L1811.5 906.969C1811.5 914.994 1804.99 921.5 1796.97 921.5L1380.03 921.5C1372.01 921.5 1365.5 914.994 1365.5 906.969Z" stroke="#D1D1D1" stroke-width="4.58333" stroke-miterlimit="8" fill="#3A3A3A" fill-rule="evenodd"/><text fill="#FFFFFF" font-family="Times New Roman,Times New Roman_MSFontService,sans-serif" font-weight="400" font-size="64" transform="matrix(1 0 0 1 1405.28 887)">KPM Monitor</text><path d="M1834.5 686.031C1834.5 678.006 1841.01 671.5 1849.03 671.5L2265.97 671.5C2273.99 671.5 2280.5 678.006 2280.5 686.031L2280.5 768.969C2280.5 776.994 2273.99 783.5 2265.97 783.5L1849.03 783.5C1841.01 783.5 1834.5 776.994 1834.5 768.969Z" stroke="#D1D1D1" stroke-width="4.58333" stroke-miterlimit="8" fill="#3A3A3A" fill-rule="evenodd"/><text fill="#FFFFFF" font-family="Times New Roman,Times New Roman_MSFontService,sans-serif" font-weight="400" font-size="64" transform="matrix(1 0 0 1 1855.3 750)">Traffic Steering</text><path d="M1365.5 686.031C1365.5 678.006 1372.01 671.5 1380.03 671.5L1796.97 671.5C1804.99 671.5 1811.5 678.006 1811.5 686.031L1811.5 768.969C1811.5 776.994 1804.99 783.5 1796.97 783.5L1380.03 783.5C1372.01 783.5 1365.5 776.994 1365.5 768.969Z" stroke="#D1D1D1" stroke-width="4.58333" stroke-miterlimit="8" fill="#3A3A3A" fill-rule="evenodd"/><text fill="#FFFFFF" font-family="Times New Roman,Times New Roman_MSFontService,sans-serif" font-weight="400" font-size="64" transform="matrix(1 0 0 1 1389.53 750)">QoE</text><text fill="#FFFFFF" font-family="Times New Roman,Times New Roman_MSFontService,sans-serif" font-weight="400" font-size="64" transform="matrix(1 0 0 1 1523.02 750)">Prediction</text><path d="M1834.5 824.031C1834.5 816.006 1841.01 809.5 1849.03 809.5L2265.97 809.5C2273.99 809.5 2280.5 816.006 2280.5 824.031L2280.5 906.969C2280.5 914.994 2273.99 921.5 2265.97 921.5L1849.03 921.5C1841.01 921.5 1834.5 914.994 1834.5 906.969Z" stroke="#D1D1D1" stroke-width="4.58333" stroke-miterlimit="8" fill="#3A3A3A" fill-rule="evenodd"/><text fill="#FFFFFF" font-family="Times New Roman,Times New Roman_MSFontService,sans-serif" font-weight="400" font-size="64" transform="matrix(1 0 0 1 1883.38 887)">RAN Control</text><path d="M3346.5 716.031C3346.5 708.006 3353.01 701.5 3361.03 701.5L3544.97 701.5C3552.99 701.5 3559.5 708.006 3559.5 716.031L3559.5 798.969C3559.5 806.995 3552.99 813.5 3544.97 813.5L3361.03 813.5C3353.01 813.5 3346.5 806.995 3346.5 798.969Z" stroke="#D1D1D1" stroke-width="4.58333" stroke-miterlimit="8" fill="#3A3A3A" fill-rule="evenodd"/><text fill="#FFFFFF" font-family="Times New Roman,Times New Roman_MSFontService,sans-serif" font-weight="400" font-size="64" transform="matrix(1 0 0 1 3373.75 780)">rApps</text><path d="M2763.5 716.031C2763.5 708.006 2770.01 701.5 2778.03 701.5L3306.97 701.5C3314.99 701.5 3321.5 708.006 3321.5 716.031L3321.5 798.969C3321.5 806.994 3314.99 813.5 3306.97 813.5L2778.03 813.5C2770.01 813.5 2763.5 806.994 2763.5 798.969Z" stroke="#D1D1D1" stroke-width="4.58333" stroke-miterlimit="8" fill="#3A3A3A" fill-rule="evenodd"/><text fill="#FFFFFF" font-family="Times New Roman,Times New Roman_MSFontService,sans-serif" font-weight="400" font-size="64" transform="matrix(1 0 0 1 2784.03 780)">Policy Management</text><text fill="#FFFFFF" font-family="Times New Roman,Times New Roman_MSFontService,sans-serif" font-weight="400" font-size="64" transform="matrix(1 0 0 1 1092.15 722)">xApps</text><path d="M0 3.49993C-8.91223e-16 1.56697 1.56705 0 3.50011 0 5.43317 -8.91177e-16 7.00023 1.56697 7.00023 3.49993 7.00023 5.43289 5.43317 6.99987 3.50011 6.99987 1.56705 6.99987-1.33683e-15 5.43289 0 3.49993Z" fill="#FFFFFF" fill-rule="evenodd" transform="matrix(1 0 0 -1 3526 911)"/><path d="M0 3.49993C-8.91223e-16 1.56697 1.56705 0 3.50011 0 5.43317 -8.91177e-16 7.00023 1.56697 7.00023 3.49993 7.00023 5.43289 5.43317 6.99987 3.50011 6.99987 1.56705 6.99987-1.33683e-15 5.43289 0 3.49993Z" fill="#FFFFFF" fill-rule="evenodd" transform="matrix(1 0 0 -1 3540 911)"/><path d="M0 3.49993C-8.91177e-16 1.56697 1.56697 0 3.49993 0 5.43289 -8.91177e-16 6.99987 1.56697 6.99987 3.49993 6.99987 5.43289 5.43289 6.99987 3.49993 6.99987 1.56697 6.99987-1.33677e-15 5.43289 0 3.49993Z" fill="#FFFFFF" fill-rule="evenodd" transform="matrix(1 0 0 -1 3554 911)"/><path d="M0 3.49993C-8.91177e-16 1.56697 1.56697 0 3.49993 0 5.43289 -8.91177e-16 6.99987 1.56697 6.99987 3.49993 6.99987 5.43289 5.43289 6.99987 3.49993 6.99987 1.56697 6.99987-1.33677e-15 5.43289 0 3.49993Z" fill="#FFFFFF" fill-rule="evenodd" transform="matrix(1 0 0 -1 1110 913)"/><path d="M0 3.49993C-8.91177e-16 1.56697 1.56697 0 3.49993 0 5.43289 -8.91177e-16 6.99987 1.56697 6.99987 3.49993 6.99987 5.43289 5.43289 6.99987 3.49993 6.99987 1.56697 6.99987-1.33677e-15 5.43289 0 3.49993Z" fill="#FFFFFF" fill-rule="evenodd" transform="matrix(1 0 0 -1 1124 913)"/><path d="M0 3.49993C-8.91177e-16 1.56697 1.56697 0 3.49993 0 5.43289 -8.91177e-16 6.99987 1.56697 6.99987 3.49993 6.99987 5.43289 5.43289 6.99987 3.49993 6.99987 1.56697 6.99987-1.33677e-15 5.43289 0 3.49993Z" fill="#FFFFFF" fill-rule="evenodd" transform="matrix(1 0 0 -1 1138 913)"/><text fill="#FFFFFF" font-family="Times New Roman,Times New Roman_MSFontService,sans-serif" font-style="italic" font-weight="400" font-size="55" transform="matrix(1 0 0 1 2776.94 1443)">Tunnel from </text><text fill="#FFFFFF" font-family="Times New Roman,Times New Roman_MSFontService,sans-serif" font-style="italic" font-weight="400" font-size="55" transform="matrix(1 0 0 1 2776.94 1509)">UPF to UE</text><text fill="#FFFFFF" font-family="Times New Roman,Times New Roman_MSFontService,sans-serif" font-style="italic" font-weight="400" font-size="55" transform="matrix(1 0 0 1 2776.94 1575)">for internet</text><path d="M3057 1296.06C3057 1280.01 3070.01 1267 3086.06 1267L3592.94 1267C3608.99 1267 3622 1280.01 3622 1296.06L3622 1461.94C3622 1477.99 3608.99 1491 3592.94 1491L3086.06 1491C3070.01 1491 3057 1477.99 3057 1461.94Z" fill="#262626" fill-rule="evenodd"/><path d="M2764.5 1379.5 3057.07 1379.5" stroke="#FFFFFF" stroke-width="4.58333" stroke-miterlimit="8" fill="none" fill-rule="evenodd"/><path d="M3057.5 1296.56C3057.5 1280.51 3070.51 1267.5 3086.56 1267.5L3593.44 1267.5C3609.49 1267.5 3622.5 1280.51 3622.5 1296.56L3622.5 1462.44C3622.5 1478.49 3609.49 1491.5 3593.44 1491.5L3086.56 1491.5C3070.51 1491.5 3057.5 1478.49 3057.5 1462.44Z" stroke="#FFFFFF" stroke-width="4.58333" stroke-miterlimit="8" fill="none" fill-rule="evenodd"/><path d="M0 3.49993C-8.91177e-16 1.56697 1.56697 0 3.49993 0 5.43289 -8.91177e-16 6.99987 1.56697 6.99987 3.49993 6.99987 5.43289 5.43289 6.99987 3.49993 6.99987 1.56697 6.99987-1.33677e-15 5.43289 0 3.49993Z" fill="#FFFFFF" fill-rule="evenodd" transform="matrix(1 0 0 -1 3565 1382)"/><path d="M0 3.49993C-1.01849e-15 1.56697 1.79084 0 3.99995 0 6.20906 -8.91177e-16 7.9999 1.56697 7.9999 3.49993 7.9999 5.43289 6.20906 6.99987 3.99995 6.99987 1.79084 6.99987-1.52774e-15 5.43289 0 3.49993Z" fill="#FFFFFF" fill-rule="evenodd" transform="matrix(1 0 0 -1 3578 1382)"/><path d="M0 3.49993C-1.01854e-15 1.56697 1.79092 0 4.00013 0 6.20934 -8.91177e-16 8.00026 1.56697 8.00026 3.49993 8.00026 5.43289 6.20934 6.99987 4.00013 6.99987 1.79092 6.99987-1.52781e-15 5.43289 0 3.49993Z" fill="#FFFFFF" fill-rule="evenodd" transform="matrix(1 0 0 -1 3592 1382)"/><path d="M3095.5 1337.03C3095.5 1329.01 3102.01 1322.5 3110.03 1322.5L3293.97 1322.5C3301.99 1322.5 3308.5 1329.01 3308.5 1337.03L3308.5 1419.97C3308.5 1427.99 3301.99 1434.5 3293.97 1434.5L3110.03 1434.5C3102.01 1434.5 3095.5 1427.99 3095.5 1419.97Z" stroke="#FFFFFF" stroke-width="4.58333" stroke-miterlimit="8" fill="#3A3A3A" fill-rule="evenodd"/><text fill="#FFFFFF" font-family="Times New Roman,Times New Roman_MSFontService,sans-serif" font-weight="400" font-size="64" transform="matrix(1 0 0 1 3143.07 1401)">UPF</text><path d="M3328.5 1337.03C3328.5 1329.01 3335.01 1322.5 3343.03 1322.5L3526.97 1322.5C3534.99 1322.5 3541.5 1329.01 3541.5 1337.03L3541.5 1419.97C3541.5 1427.99 3534.99 1434.5 3526.97 1434.5L3343.03 1434.5C3335.01 1434.5 3328.5 1427.99 3328.5 1419.97Z" stroke="#FFFFFF" stroke-width="4.58333" stroke-miterlimit="8" fill="#3A3A3A" fill-rule="evenodd"/><text fill="#FFFFFF" font-family="Times New Roman,Times New Roman_MSFontService,sans-serif" font-weight="400" font-size="64" transform="matrix(1 0 0 1 3365.13 1401)">AMF</text><text fill="#FFFFFF" font-family="Arial,Arial_MSFontService,sans-serif" font-weight="400" font-size="55" transform="matrix(1 0 0 1 3132.73 1652)">•</text><text fill="#FFFFFF" font-family="Times New Roman,Times New Roman_MSFontService,sans-serif" font-weight="400" font-size="55" transform="matrix(1 0 0 1 3235.85 1652)">Open5GS</text><text fill="#FFFFFF" font-family="Arial,Arial_MSFontService,sans-serif" font-weight="400" font-size="55" transform="matrix(1 0 0 1 3132.73 1718)">•</text><text fill="#FFFFFF" font-family="Times New Roman,Times New Roman_MSFontService,sans-serif" font-weight="400" font-size="55" transform="matrix(1 0 0 1 3235.85 1718)">OAI 5G </text><text fill="#FFFFFF" font-family="Times New Roman,Times New Roman_MSFontService,sans-serif" font-weight="400" font-size="55" transform="matrix(1 0 0 1 3427.78 1718)">CN</text><text fill="#FFFFFF" font-family="Arial,Arial_MSFontService,sans-serif" font-weight="400" font-size="55" transform="matrix(1 0 0 1 3132.73 1784)">•</text><text fill="#FFFFFF" font-family="Times New Roman,Times New Roman_MSFontService,sans-serif" font-weight="400" font-size="55" transform="matrix(1 0 0 1 3235.85 1784)">Free5GC</text><text fill="#FFFFFF" font-family="Arial,Arial_MSFontService,sans-serif" font-weight="400" font-size="55" transform="matrix(1 0 0 1 3132.73 1850)">•</text><text fill="#FFFFFF" font-family="Times New Roman,Times New Roman_MSFontService,sans-serif" font-weight="400" font-size="55" transform="matrix(1 0 0 1 3235.85 1850)">Phoenix</text><text fill="#FFFFFF" font-family="Times New Roman,Times New Roman_MSFontService,sans-serif" font-weight="700" font-size="64" transform="matrix(1 0 0 1 3095.37 1579)">5G Core Network</text></g></svg>