<svg width="2952" height="1289" xmlns="http://www.w3.org/2000/svg" xmlns:xlink="http://www.w3.org/1999/xlink" xml:space="preserve" overflow="hidden"><g transform="translate(-666 -582)"><path d="M668 612.657C668 596.83 680.83 584 696.657 584L3580.34 584C3596.17 584 3609 596.83 3609 612.657L3609 1839.34C3609 1855.17 3596.17 1868 3580.34 1868L696.657 1868C680.83 1868 668 1855.17 668 1839.34Z" fill="#0D1117" fill-rule="evenodd"/><path d="M2610.5 650.296C2610.5 634.945 2622.94 622.5 2638.3 622.5L3537.7 622.5C3553.06 622.5 3565.5 634.945 3565.5 650.296L3565.5 928.704C3565.5 944.056 3553.06 956.5 3537.7 956.5L2638.3 956.5C2622.94 956.5 2610.5 944.056 2610.5 928.704Z" stroke="#FFFFFF" stroke-width="4.58333" stroke-miterlimit="8" fill="#262626" fill-rule="evenodd"/><text fill="#FFFFFF" font-family="Times New Roman,Times New Roman_MSFontService,sans-serif" font-weight="700" font-size="64" transform="matrix(1 0 0 1 2473.53 1044)">Service Management and Orchestration</text><text fill="#FFFFFF" font-family="Arial,Arial_MSFontService,sans-serif" font-weight="400" font-size="55" transform="matrix(1 0 0 1 2708.5 1109)">•</text><text fill="#FFFFFF" font-family="Times New Roman,Times New Roman_MSFontService,sans-serif" font-weight="400" font-size="55" transform="matrix(1 0 0 1 2811.62 1109)">O</text><text fill="#FFFFFF" font-family="Times New Roman,Times New Roman_MSFontService,sans-serif" font-weight="400" font-size="55" transform="matrix(1 0 0 1 2851.15 1109)">-</text><text fill="#FFFFFF" font-family="Times New Roman,Times New Roman_MSFontService,sans-serif" font-weight="400" font-size="55" transform="matrix(1 0 0 1 2869.49 1109)">RAN SC RIC</text><path d="M2675.5 686.984C2675.5 673.462 2686.46 662.5 2699.98 662.5L3505.02 662.5C3518.54 662.5 3529.5 673.462 3529.5 686.984L3529.5 810.016C3529.5 823.538 3518.54 834.5 3505.02 834.5L2699.98 834.5C2686.46 834.5 2675.5 823.538 2675.5 810.016Z" stroke="#D1D1D1" stroke-width="4.58333" stroke-miterlimit="8" fill="#171717" fill-rule="evenodd"/><text fill="#FFFFFF" font-family="Times New Roman,Times New Roman_MSFontService,sans-serif" font-weight="700" font-size="64" transform="matrix(1 0 0 1 2909.71 922)">Non</text><text fill="#FFFFFF" font-family="Times New Roman,Times New Roman_MSFontService,sans-serif" font-weight="700" font-size="64" transform="matrix(1 0 0 1 3023.72 922)">-</text><text fill="#FFFFFF" font-family="Times New Roman,Times New Roman_MSFontService,sans-serif" font-weight="700" font-size="64" transform="matrix(1 0 0 1 3044.91 922)">RT RIC</text><path d="M668.5 613.157C668.5 597.33 681.33 584.5 697.157 584.5L3580.84 584.5C3596.67 584.5 3609.5 597.33 3609.5 613.157L3609.5 1839.84C3609.5 1855.67 3596.67 1868.5 3580.84 1868.5L697.157 1868.5C681.33 1868.5 668.5 1855.67 668.5 1839.84Z" stroke="#FFFFFF" stroke-width="4.58333" stroke-miterlimit="8" fill="none" fill-rule="evenodd"/><text fill="#FFFFFF" font-family="Times New Roman,Times New Roman_MSFontService,sans-serif" font-weight="700" font-size="64" transform="matrix(1 0 0 1 893.947 1616)">User Equipment</text><path d="M715 1234.62C715 1217.16 729.155 1203 746.617 1203L1491.38 1203C1508.84 1203 1523 1217.16 1523 1234.62L1523 1505.38C1523 1522.84 1508.84 1537 1491.38 1537L746.617 1537C729.155 1537 715 1522.84 715 1505.38Z" fill="#3A3A3A" fill-rule="evenodd"/><rect x="715" y="1312" width="808" height="116" fill="#262626"/><path d="M715.5 1236.5C715.5 1218.27 730.273 1203.5 748.496 1203.5L1490.5 1203.5C1508.73 1203.5 1523.5 1218.27 1523.5 1236.5L1523.5 1504.5C1523.5 1522.73 1508.73 1537.5 1490.5 1537.5L748.496 1537.5C730.273 1537.5 715.5 1522.73 715.5 1504.5Z" stroke="#FFFFFF" stroke-width="4.58333" stroke-miterlimit="8" fill="none" fill-rule="evenodd"/><text fill="#FFFFFF" font-family="Times New Roman,Times New Roman_MSFontService,sans-serif" font-weight="400" font-size="64" transform="matrix(1 0 0 1 872.618 1502)">RF Simulator / </text><text fill="#FFFFFF" font-family="Times New Roman,Times New Roman_MSFontService,sans-serif" font-weight="400" font-size="64" transform="matrix(1 0 0 1 1269.65 1502)">ZeroMQ</text><text fill="#FFFFFF" font-family="Times New Roman,Times New Roman_MSFontService,sans-serif" font-weight="400" font-size="64" transform="matrix(1 0 0 1 955.118 1394)">5G </text><text fill="#FFFFFF" font-family="Times New Roman,Times New Roman_MSFontService,sans-serif" font-weight="400" font-size="64" transform="matrix(1 0 0 1 1049.65 1394)">Mobile </text><text fill="#FFFFFF" font-family="Times New Roman,Times New Roman_MSFontService,sans-serif" font-weight="400" font-size="64" transform="matrix(1 0 0 1 1251.32 1394)">Phone</text><text fill="#FFFFFF" font-family="Times New Roman,Times New Roman_MSFontService,sans-serif" font-weight="400" font-size="64" transform="matrix(1 0 0 1 868.894 1286)">Software</text><text fill="#FFFFFF" font-family="Times New Roman,Times New Roman_MSFontService,sans-serif" font-weight="400" font-size="64" transform="matrix(1 0 0 1 1100.35 1286)">-</text><text fill="#FFFFFF" font-family="Times New Roman,Times New Roman_MSFontService,sans-serif" font-weight="400" font-size="64" transform="matrix(1 0 0 1 1121.55 1286)">Defined Radio</text><g><g><g><path d="M823 1393.67 793 1393.67 793 1340.33 823 1340.33 823 1393.67ZM804.667 1333.67 811.333 1333.67C812.25 1333.67 813 1334.42 813 1335.33 813 1336.25 812.25 1337 811.333 1337L804.667 1337C803.75 1337 803 1336.25 803 1335.33 803 1334.42 803.75 1333.67 804.667 1333.67ZM826.333 1330.33 789.667 1330.33C788.75 1330.33 788 1331.08 788 1332L788 1402C788 1402.92 788.75 1403.67 789.667 1403.67L826.333 1403.67C827.25 1403.67 828 1402.92 828 1402L828 1332C828 1331.08 827.25 1330.33 826.333 1330.33Z" fill="#FFFFFF"/></g></g></g><g><g><g><path d="M69.5164 20.125C67.9279 15.0763 62.5474 12.2711 57.4987 13.8596 54.5122 14.7992 52.173 17.1385 51.2333 20.125L13.4166 20.125 13.4166 25.8749 51.2333 25.8749C52.8218 30.9236 58.2023 33.7287 63.251 32.1403 66.2375 31.2007 68.5767 28.8614 69.5164 25.8749L78.5831 25.8749 78.5831 20.125ZM60.3748 26.8333C58.2578 26.8333 56.5415 25.117 56.5415 22.9999 56.5415 20.8829 58.2578 19.1666 60.3748 19.1666 62.4919 19.1666 64.2082 20.8829 64.2082 22.9999 64.2082 25.117 62.4919 26.8333 60.3748 26.8333Z" fill="#FFFFFF" transform="matrix(1 0 0 1.01087 762 1435)"/><path d="M56.5415 59.4165C52.3582 59.4219 48.66 62.1357 47.4 66.1248L13.4166 66.1248 13.4166 71.8748 47.4 71.8748C48.9884 76.9235 54.369 79.7286 59.4177 78.1402 62.4042 77.2005 64.7434 74.8613 65.683 71.8748L78.5831 71.8748 78.5831 66.1248 65.683 66.1248C64.423 62.1357 60.7248 59.4219 56.5415 59.4165ZM56.5415 72.8332C54.4245 72.8332 52.7082 71.1169 52.7082 68.9998 52.7082 66.8828 54.4245 65.1665 56.5415 65.1665 58.6586 65.1665 60.3748 66.8828 60.3748 68.9998 60.3748 71.1169 58.6586 72.8332 56.5415 72.8332Z" fill="#FFFFFF" transform="matrix(1 0 0 1.01087 762 1435)"/><path d="M32.5833 36.4166C28.3999 36.4219 24.7017 39.1357 23.4417 43.1249L13.4166 43.1249 13.4166 48.8749 23.4417 48.8749C25.0302 53.9236 30.4107 56.7287 35.4594 55.1403 38.4459 54.2006 40.7851 51.8613 41.7248 48.8749L78.5831 48.8749 78.5831 43.1249 41.7248 43.1249C40.4648 39.1357 36.7666 36.4219 32.5833 36.4166ZM32.5833 49.8332C30.4662 49.8332 28.7499 48.1169 28.7499 45.9999 28.7499 43.8828 30.4662 42.1666 32.5833 42.1666 34.7003 42.1666 36.4166 43.8828 36.4166 45.9999 36.4166 48.1169 34.7003 49.8332 32.5833 49.8332Z" fill="#FFFFFF" transform="matrix(1 0 0 1.01087 762 1435)"/></g></g></g><g><g><g><path d="M34.5626 37.1001 37.0126 34.6501C35.7876 33.3376 35.0001 31.5876 35.0001 29.6626 35.0001 27.7376 35.7876 25.9876 37.0126 24.6751L34.5626 22.2251C32.6376 24.1501 31.5001 26.7751 31.5001 29.6626 31.5001 32.5501 32.6376 35.1751 34.5626 37.1001Z" fill="#FFFFFF" transform="matrix(1 0 0 1.0119 766 1215)"/><path d="M29.6626 42.0001 32.1126 39.5501C29.5751 37.0126 28.0001 33.5126 28.0001 29.6626 28.0001 25.8126 29.5751 22.3126 32.1126 19.7751L29.6626 17.325C26.4251 20.4751 24.5001 24.8501 24.5001 29.6626 24.5001 34.4751 26.4251 38.8501 29.6626 42.0001Z" fill="#FFFFFF" transform="matrix(1 0 0 1.0119 766 1215)"/><path d="M27.1251 44.5376C23.3626 40.7751 21.0001 35.5251 21.0001 29.6626 21.0001 23.8001 23.3626 18.6376 27.1251 14.7875L24.6751 12.3375C20.2126 16.8 17.5 22.9251 17.5 29.6626 17.5 36.4001 20.2126 42.5251 24.6751 46.9876L27.1251 44.5376Z" fill="#FFFFFF" transform="matrix(1 0 0 1.0119 766 1215)"/><path d="M49.4376 37.1001C51.3626 35.1751 52.5001 32.5501 52.5001 29.6626 52.5001 26.7751 51.3626 24.1501 49.4376 22.2251L46.9876 24.6751C48.2126 25.9001 49.0001 27.6501 49.0001 29.6626 49.0001 31.6751 48.2126 33.3376 46.9876 34.6501L49.4376 37.1001Z" fill="#FFFFFF" transform="matrix(1 0 0 1.0119 766 1215)"/><path d="M51.8876 39.5501 54.3376 42.0001C57.5752 38.8501 59.5002 34.4751 59.5002 29.6626 59.5002 24.8501 57.5752 20.4751 54.3376 17.325L51.8876 19.7751C54.4251 22.3126 56.0002 25.8126 56.0002 29.6626 56.0002 33.5126 54.4251 37.0126 51.8876 39.5501Z" fill="#FFFFFF" transform="matrix(1 0 0 1.0119 766 1215)"/><path d="M56.8752 44.5376 59.3252 46.9876C63.7877 42.5251 66.5002 36.4001 66.5002 29.6626 66.5002 22.9251 63.7877 16.8 59.3252 12.3375L56.8752 14.7875C60.6377 18.5501 63.0002 23.8001 63.0002 29.6626 63.0002 35.5251 60.6377 40.6876 56.8752 44.5376Z" fill="#FFFFFF" transform="matrix(1 0 0 1.0119 766 1215)"/><path d="M64.7502 64.6627C63.7877 64.6627 63.0002 63.8752 63.0002 62.9127 63.0002 61.9502 63.7877 61.1627 64.7502 61.1627 65.7127 61.1627 66.5002 61.9502 66.5002 62.9127 66.5002 63.8752 65.7127 64.6627 64.7502 64.6627ZM56.0002 64.6627C55.0377 64.6627 54.2501 63.8752 54.2501 62.9127 54.2501 61.9502 55.0377 61.1627 56.0002 61.1627 56.9627 61.1627 57.7502 61.9502 57.7502 62.9127 57.7502 63.8752 56.9627 64.6627 56.0002 64.6627ZM47.2501 64.6627C46.2876 64.6627 45.5001 63.8752 45.5001 62.9127 45.5001 61.9502 46.2876 61.1627 47.2501 61.1627 48.2126 61.1627 49.0001 61.9502 49.0001 62.9127 49.0001 63.8752 48.2126 64.6627 47.2501 64.6627ZM38.5001 64.6627C37.5376 64.6627 36.7501 63.8752 36.7501 62.9127 36.7501 61.9502 37.5376 61.1627 38.5001 61.1627 39.4626 61.1627 40.2501 61.9502 40.2501 62.9127 40.2501 63.8752 39.4626 64.6627 38.5001 64.6627ZM21.0001 66.4127C19.0751 66.4127 17.5 64.8377 17.5 62.9127 17.5 60.9877 19.0751 59.4127 21.0001 59.4127 22.9251 59.4127 24.5001 60.9877 24.5001 62.9127 24.5001 64.8377 22.9251 66.4127 21.0001 66.4127ZM68.2502 54.1626 43.7501 54.1626 43.7501 32.6376C44.8001 32.0251 45.5001 30.8876 45.5001 29.6626 45.5001 27.7376 43.9251 26.1626 42.0001 26.1626 40.0751 26.1626 38.5001 27.7376 38.5001 29.6626 38.5001 30.9751 39.2001 32.1126 40.2501 32.6376L40.2501 54.1626 15.75 54.1626C13.825 54.1626 12.25 55.7377 12.25 57.6627L12.25 68.1627C12.25 70.0877 13.825 71.6627 15.75 71.6627L68.2502 71.6627C70.1752 71.6627 71.7502 70.0877 71.7502 68.1627L71.7502 57.6627C71.7502 55.7377 70.1752 54.1626 68.2502 54.1626Z" fill="#FFFFFF" transform="matrix(1 0 0 1.0119 766 1215)"/></g></g></g><g><g><g><path d="M55.6812 132.754C108.531 79.9041 194.098 79.9041 246.948 132.754L251.352 128.35C195.985 72.9833 106.329 72.9833 51.2771 128.35L55.6812 132.754Z" fill="#FFFFFF" transform="matrix(6.12324e-17 1 -1 6.12323e-17 1766 1219)"/><path d="M224.612 155.089C184.031 114.508 118.283 114.508 77.702 155.089L82.1062 159.494C120.171 121.429 181.829 121.429 219.894 159.494L224.612 155.089Z" fill="#FFFFFF" transform="matrix(6.12324e-17 1 -1 6.12323e-17 1766 1219)"/><path d="M109.16 186.233C132.439 162.954 170.504 162.954 193.783 186.233L198.187 181.829C172.392 156.033 130.552 156.033 104.756 181.829L109.16 186.233Z" fill="#FFFFFF" transform="matrix(6.12324e-17 1 -1 6.12323e-17 1766 1219)"/><path d="M135.9 212.973C144.394 204.479 158.55 204.479 167.044 212.973L171.448 208.569C160.437 197.558 142.506 197.558 131.496 208.569L135.9 212.973Z" fill="#FFFFFF" transform="matrix(6.12324e-17 1 -1 6.12323e-17 1766 1219)"/></g></g></g><text fill="#FFFFFF" font-family="Arial,Arial_MSFontService,sans-serif" font-weight="400" font-size="55" transform="matrix(1 0 0 1 914.043 1689)">•</text><text fill="#FFFFFF" font-family="Times New Roman,Times New Roman_MSFontService,sans-serif" font-weight="400" font-size="55" transform="matrix(1 0 0 1 1017.17 1689)">srsRAN_4G</text><text fill="#FFFFFF" font-family="Arial,Arial_MSFontService,sans-serif" font-weight="400" font-size="55" transform="matrix(1 0 0 1 914.043 1755)">•</text><text fill="#FFFFFF" font-family="Times New Roman,Times New Roman_MSFontService,sans-serif" font-weight="400" font-size="55" transform="matrix(1 0 0 1 1017.17 1755)">OpenAirInterface5G</text><text fill="#FFFFFF" font-family="Times New Roman,Times New Roman_MSFontService,sans-serif" font-weight="700" font-size="64" transform="matrix(1 0 0 1 1967.44 1616)">Next Generation Node B</text><g><g><g><path d="M55.6813 132.754C108.531 79.9042 194.098 79.9042 246.948 132.754L251.352 128.35C195.986 72.9834 106.329 72.9834 51.2771 128.35L55.6813 132.754Z" fill="#FFFFFF" transform="matrix(1.83697e-16 1 1 -1.83697e-16 1657 1219)"/><path d="M224.613 155.09C184.031 114.508 118.283 114.508 77.7021 155.09L82.1063 159.494C120.171 121.429 181.829 121.429 219.894 159.494L224.613 155.09Z" fill="#FFFFFF" transform="matrix(1.83697e-16 1 1 -1.83697e-16 1657 1219)"/><path d="M109.16 186.233C132.44 162.954 170.504 162.954 193.783 186.233L198.188 181.829C172.392 156.033 130.552 156.033 104.756 181.829L109.16 186.233Z" fill="#FFFFFF" transform="matrix(1.83697e-16 1 1 -1.83697e-16 1657 1219)"/><path d="M135.9 212.973C144.394 204.479 158.55 204.479 167.044 212.973L171.448 208.569C160.438 197.558 142.506 197.558 131.496 208.569L135.9 212.973Z" fill="#FFFFFF" transform="matrix(1.83697e-16 1 1 -1.83697e-16 1657 1219)"/></g></g></g><path d="M1899 1287.06C1899 1271.01 1912.01 1258 1928.06 1258L2678.94 1258C2694.99 1258 2708 1271.01 2708 1287.06L2708 1452.94C2708 1468.99 2694.99 1482 2678.94 1482L1928.06 1482C1912.01 1482 1899 1468.99 1899 1452.94Z" fill="#3A3A3A" fill-rule="evenodd"/><path d="M31.8278 0 776.172 0C793.75-6.42937e-15 808 14.2499 808 31.828L808 111 0 111 0 31.828C-6.42933e-15 14.2499 14.2498 0 31.8278 0Z" fill="#262626" fill-rule="evenodd" transform="matrix(1 0 0 -1 1900 1481)"/><path d="M1899.5 1287.56C1899.5 1271.51 1912.51 1258.5 1928.56 1258.5L2679.44 1258.5C2695.49 1258.5 2708.5 1271.51 2708.5 1287.56L2708.5 1453.44C2708.5 1469.49 2695.49 1482.5 2679.44 1482.5L1928.56 1482.5C1912.51 1482.5 1899.5 1469.49 1899.5 1453.44Z" stroke="#FFFFFF" stroke-width="4.58333" stroke-miterlimit="8" fill="none" fill-rule="evenodd"/><text fill="#FFFFFF" font-family="Times New Roman,Times New Roman_MSFontService,sans-serif" font-weight="400" font-size="64" transform="matrix(1 0 0 1 2053.54 1340)">Software</text><text fill="#FFFFFF" font-family="Times New Roman,Times New Roman_MSFontService,sans-serif" font-weight="400" font-size="64" transform="matrix(1 0 0 1 2285 1340)">-</text><text fill="#FFFFFF" font-family="Times New Roman,Times New Roman_MSFontService,sans-serif" font-weight="400" font-size="64" transform="matrix(1 0 0 1 2306.2 1340)">Defined Radio</text><g><g><g><path d="M43.3332 37.9166 46.3666 34.8833C43.0427 31.4376 43.0427 25.9789 46.3666 22.5333L43.3332 19.5C38.2769 24.5977 38.2769 32.8189 43.3332 37.9166Z" fill="#FFFFFF" transform="matrix(1.00962 0 0 1 1940 1266)"/><path d="M37.2666 43.9832 40.2999 40.9499C33.5391 34.232 33.5043 23.3052 40.2222 16.5443 40.248 16.5183 40.2739 16.4924 40.2999 16.4666L37.2666 13.4333C28.8305 21.7503 28.7338 35.3312 37.0507 43.7673 37.1222 43.8398 37.1941 43.9117 37.2666 43.9832Z" fill="#FFFFFF" transform="matrix(1.00962 0 0 1 1940 1266)"/><path d="M34.1249 47.1249C24.0121 36.9296 24.0121 20.487 34.1249 10.2916L31.0916 7.25832C19.2452 19.1036 19.2442 38.3095 31.0894 50.1561 31.0902 50.1568 31.0908 50.1575 31.0916 50.1582Z" fill="#FFFFFF" transform="matrix(1.00962 0 0 1 1940 1266)"/><path d="M61.7499 37.9166C66.8062 32.8189 66.8062 24.5977 61.7499 19.5L58.7166 22.5333C60.3362 24.1777 61.233 26.4002 61.2082 28.7083 61.212 31.0122 60.3183 33.2271 58.7166 34.8833Z" fill="#FFFFFF" transform="matrix(1.00962 0 0 1 1940 1266)"/><path d="M64.7832 40.9499 67.8165 43.9832C76.2526 35.6663 76.3493 22.0853 68.0324 13.6492 67.9609 13.5767 67.889 13.5048 67.8165 13.4333L64.7832 16.4666C71.5441 23.1846 71.5788 34.1114 64.8609 40.8722 64.8351 40.8982 64.8092 40.9241 64.7832 40.9499Z" fill="#FFFFFF" transform="matrix(1.00962 0 0 1 1940 1266)"/><path d="M70.9582 47.1249 73.9915 50.1582C85.838 38.313 85.8389 19.107 73.9937 7.26051 73.993 7.25978 73.9923 7.25904 73.9915 7.25832L70.9582 10.2916C81.071 20.487 81.071 36.9296 70.9582 47.1249Z" fill="#FFFFFF" transform="matrix(1.00962 0 0 1 1940 1266)"/><path d="M85.5832 93.9356 85.5832 93.9356C85.5498 93.7433 85.4877 93.557 85.399 93.3831 85.399 93.3831 85.399 93.3831 85.399 93.3182L54.5241 33.1933C54.43 33.017 54.3095 32.8562 54.1666 32.7166 56.3851 31.8192 57.4561 29.2931 56.5587 27.0745 55.6612 24.856 53.1351 23.785 50.9166 24.6824 48.698 25.5798 47.627 28.1059 48.5245 30.3245 48.9648 31.413 49.828 32.2762 50.9166 32.7166 50.8009 32.8439 50.7025 32.986 50.6241 33.1391L19.7491 93.264C19.7491 93.264 19.7491 93.264 19.7491 93.329 19.6604 93.5029 19.5983 93.6892 19.565 93.8815L19.565 93.8815C19.538 94.061 19.538 94.2436 19.565 94.4232 19.565 94.4232 19.565 94.5098 19.565 94.5531 19.5944 94.7284 19.6453 94.8995 19.7166 95.0623 19.7166 95.0623 19.7166 95.0623 19.7166 95.0623 19.7166 95.0623 19.825 95.214 19.8683 95.3007 19.9343 95.4095 20.0066 95.5144 20.085 95.6148L20.085 95.6148C20.1401 95.6616 20.198 95.7049 20.2583 95.7448 20.3519 95.8334 20.4534 95.9133 20.5616 95.9831 20.6462 96.0273 20.733 96.0671 20.8216 96.1023L21.1466 96.2215 21.4283 96.2215 21.6666 96.4165 21.8183 96.4165 21.9591 96.4165C22.1576 96.3979 22.3516 96.3466 22.5333 96.2648L52.5632 83.059 82.5498 96.2323C82.8219 96.3562 83.1176 96.4191 83.4165 96.4165L83.4165 96.4165C83.5959 96.4132 83.7742 96.3878 83.9473 96.3406L84.099 96.3406C84.2366 96.2884 84.3706 96.2269 84.4998 96.1565L84.5973 96.0915C84.739 96.0022 84.8699 95.8968 84.9873 95.7773L84.9873 95.7773C85.0718 95.6715 85.1479 95.5591 85.2148 95.4415 85.2621 95.3717 85.3055 95.2994 85.3448 95.2248 85.3448 95.2248 85.3448 95.2248 85.3448 95.2248 85.4181 95.059 85.4691 94.8841 85.4965 94.7048 85.4965 94.7048 85.4965 94.629 85.4965 94.5856 85.5645 94.376 85.5939 94.1558 85.5832 93.9356ZM67.1665 67.3399 56.2249 59.9407 61.5007 56.3332ZM52.5416 38.8699 59.5074 52.4224 52.3791 57.3299 45.8791 52.9966C45.738 52.8982 45.5852 52.8181 45.4241 52.7582ZM43.4632 56.5391 48.5441 59.9732 37.9166 67.264ZM26.3791 89.819 34.0274 74.9124 47.1682 80.6865ZM38.5016 72.1499 52.4007 62.584 66.5707 72.1715 52.5632 78.3249ZM75.3349 88.3348 57.9474 80.6973 71.0665 74.934 78.704 89.8082Z" fill="#FFFFFF" transform="matrix(1.00962 0 0 1 1940 1266)"/></g></g></g><text fill="#FFFFFF" font-family="Times New Roman,Times New Roman_MSFontService,sans-serif" font-weight="400" font-size="64" transform="matrix(1 0 0 1 2057.26 1449)">RF Simulator / </text><text fill="#FFFFFF" font-family="Times New Roman,Times New Roman_MSFontService,sans-serif" font-weight="400" font-size="64" transform="matrix(1 0 0 1 2454.29 1449)">ZeroMQ</text><g><g><g><path d="M69.5164 20.125C67.9279 15.0763 62.5474 12.2711 57.4987 13.8596 54.5122 14.7992 52.173 17.1385 51.2333 20.125L13.4166 20.125 13.4166 25.8749 51.2333 25.8749C52.8218 30.9236 58.2023 33.7287 63.251 32.1403 66.2375 31.2007 68.5767 28.8614 69.5164 25.8749L78.5831 25.8749 78.5831 20.125ZM60.3748 26.8333C58.2578 26.8333 56.5415 25.117 56.5415 22.9999 56.5415 20.8829 58.2578 19.1666 60.3748 19.1666 62.4919 19.1666 64.2082 20.8829 64.2082 22.9999 64.2082 25.117 62.4919 26.8333 60.3748 26.8333Z" fill="#FFFFFF" transform="matrix(1.01087 0 0 1 1952 1379)"/><path d="M56.5415 59.4165C52.3582 59.4219 48.66 62.1357 47.4 66.1248L13.4166 66.1248 13.4166 71.8748 47.4 71.8748C48.9884 76.9235 54.369 79.7286 59.4177 78.1402 62.4042 77.2005 64.7434 74.8613 65.683 71.8748L78.5831 71.8748 78.5831 66.1248 65.683 66.1248C64.423 62.1357 60.7248 59.4219 56.5415 59.4165ZM56.5415 72.8332C54.4245 72.8332 52.7082 71.1169 52.7082 68.9998 52.7082 66.8828 54.4245 65.1665 56.5415 65.1665 58.6586 65.1665 60.3748 66.8828 60.3748 68.9998 60.3748 71.1169 58.6586 72.8332 56.5415 72.8332Z" fill="#FFFFFF" transform="matrix(1.01087 0 0 1 1952 1379)"/><path d="M32.5833 36.4166C28.3999 36.4219 24.7017 39.1357 23.4417 43.1249L13.4166 43.1249 13.4166 48.8749 23.4417 48.8749C25.0302 53.9236 30.4107 56.7287 35.4594 55.1403 38.4459 54.2006 40.7851 51.8613 41.7248 48.8749L78.5831 48.8749 78.5831 43.1249 41.7248 43.1249C40.4648 39.1357 36.7666 36.4219 32.5833 36.4166ZM32.5833 49.8332C30.4662 49.8332 28.7499 48.1169 28.7499 45.9999 28.7499 43.8828 30.4662 42.1666 32.5833 42.1666 34.7003 42.1666 36.4166 43.8828 36.4166 45.9999 36.4166 48.1169 34.7003 49.8332 32.5833 49.8332Z" fill="#FFFFFF" transform="matrix(1.01087 0 0 1 1952 1379)"/></g></g></g><text fill="#FFFFFF" font-family="Arial,Arial_MSFontService,sans-serif" font-weight="400" font-size="55" transform="matrix(1 0 0 1 1984.86 1689)">•</text><text fill="#FFFFFF" font-family="Times New Roman,Times New Roman_MSFontService,sans-serif" font-weight="400" font-size="55" transform="matrix(1 0 0 1 2087.98 1689)">srsRAN_Project</text><text fill="#FFFFFF" font-family="Arial,Arial_MSFontService,sans-serif" font-weight="400" font-size="55" transform="matrix(1 0 0 1 1984.86 1755)">•</text><text fill="#FFFFFF" font-family="Times New Roman,Times New Roman_MSFontService,sans-serif" font-weight="400" font-size="55" transform="matrix(1 0 0 1 2087.98 1755)">OpenAirInterface5G</text><text fill="#FFFFFF" font-family="Arial,Arial_MSFontService,sans-serif" font-weight="400" font-size="55" transform="matrix(1 0 0 1 1984.86 1821)">•</text><text fill="#FFFFFF" font-family="Times New Roman,Times New Roman_MSFontService,sans-serif" font-weight="400" font-size="55" transform="matrix(1 0 0 1 2087.98 1821)">O</text><text fill="#FFFFFF" font-family="Times New Roman,Times New Roman_MSFontService,sans-serif" font-weight="400" font-size="55" transform="matrix(1 0 0 1 2127.51 1821)">-</text><text fill="#FFFFFF" font-family="Times New Roman,Times New Roman_MSFontService,sans-serif" font-weight="400" font-size="55" transform="matrix(1 0 0 1 2145.85 1821)">RAN SC E2 Simulator</text><text fill="#FFFFFF" font-family="Times New Roman,Times New Roman_MSFontService,sans-serif" font-weight="700" font-size="64" transform="matrix(1 0 0 1 3038.4 1616)">5G Core Network</text><path d="M3000 1287.06C3000 1271.01 3013.01 1258 3029.06 1258L3535.94 1258C3551.99 1258 3565 1271.01 3565 1287.06L3565 1452.94C3565 1468.99 3551.99 1482 3535.94 1482L3029.06 1482C3013.01 1482 3000 1468.99 3000 1452.94Z" fill="#3A3A3A" fill-rule="evenodd"/><path d="M31.8282 0 533.172 0C550.75-8.99152e-15 565 14.25 565 31.8283L565 111 0 111 0 31.8283C-4.49575e-15 14.25 14.25-4.49576e-15 31.8282-8.99152e-15Z" fill="#262626" fill-rule="evenodd" transform="matrix(1 0 0 -1 3000 1481)"/><text fill="#FFFFFF" font-family="Times New Roman,Times New Roman_MSFontService,sans-serif" font-weight="400" font-size="64" transform="matrix(1 0 0 1 3217.04 1340)">AMF</text><g><g><g><path d="M3085.5 1349.88 3085.5 1336.75 3098.62 1336.75 3098.62 1349.88Z" fill="#FFFFFF"/><path d="M3085.5 1299.25 3085.5 1286.12 3098.62 1286.12 3098.62 1299.25Z" fill="#FFFFFF"/><path d="M3060.19 1349.88 3060.19 1336.75 3073.31 1336.75 3073.31 1349.88Z" fill="#FFFFFF"/><path d="M3110.81 1349.88 3110.81 1336.75 3123.94 1336.75 3123.94 1349.88Z" fill="#FFFFFF"/><path d="M3064.88 1316.12 3064.88 1333 3068.62 1333 3068.62 1319.88 3090.19 1319.88 3090.19 1333 3093.94 1333 3093.94 1319.88 3115.5 1319.88 3115.5 1333 3119.25 1333 3119.25 1316.12 3093.94 1316.12 3093.94 1303 3090.19 1303 3090.19 1316.12 3064.88 1316.12Z" fill="#FFFFFF"/></g></g></g><text fill="#FFFFFF" font-family="Times New Roman,Times New Roman_MSFontService,sans-serif" font-weight="400" font-size="64" transform="matrix(1 0 0 1 3227.92 1449)">UPF</text><g><g><g><path d="M26.8125 54.4375 26.8125 11.5716 34.0267 18.7858C34.995 19.721 36.5381 19.6942 37.4733 18.7259 38.3857 17.7813 38.3857 16.2838 37.4733 15.3392L26.0983 3.96419C25.1465 3.01263 23.6035 3.01263 22.6517 3.96419L11.2767 15.3392C10.3415 16.3075 10.3683 17.8506 11.3366 18.7858 12.2812 19.6981 13.7787 19.6981 14.7233 18.7858L21.9375 11.5716 21.9375 54.4375C21.9375 55.7838 23.0288 56.875 24.375 56.875 25.7212 56.875 26.8125 55.7838 26.8125 54.4375Z" fill="#FFFFFF" transform="matrix(-1.83697e-16 -1 1.01282 -1.86052e-16 3059 1464)"/><path d="M56.0625 23.5625 56.0625 66.4284 63.2767 59.2142C64.2451 58.279 65.7882 58.3058 66.7233 59.2741 67.6356 60.2187 67.6356 61.7162 66.7233 62.6608L55.3483 74.0359C54.3965 74.9874 52.8536 74.9874 51.9017 74.0359L40.5267 62.6608C39.5915 61.6925 39.6183 60.1494 40.5866 59.2142 41.5312 58.3019 43.0287 58.3019 43.9733 59.2142L51.1875 66.4284 51.1875 23.5625C51.1875 22.2163 52.2788 21.125 53.625 21.125 54.9713 21.125 56.0625 22.2163 56.0625 23.5625Z" fill="#FFFFFF" transform="matrix(-1.83697e-16 -1 1.01282 -1.86052e-16 3059 1464)"/></g></g></g><text fill="#FFFFFF" font-family="Arial,Arial_MSFontService,sans-serif" font-weight="400" font-size="55" transform="matrix(1 0 0 1 3075.76 1689)">•</text><text fill="#FFFFFF" font-family="Times New Roman,Times New Roman_MSFontService,sans-serif" font-weight="400" font-size="55" transform="matrix(1 0 0 1 3178.89 1689)">Open5GS</text><path d="M29.8147 0 194.185 0C210.651-3.56478e-15 224 13.3485 224 29.8148L224 74.9999 0 74.9999 0 29.8148C-7.12954e-15 13.3485 13.3485 0 29.8147-3.56478e-15Z" fill="#303030" fill-rule="evenodd" transform="matrix(-1.83697e-16 -1 -1 1.83697e-16 3565 1481)"/><path d="M3000.5 1287.56C3000.5 1271.51 3013.51 1258.5 3029.56 1258.5L3536.44 1258.5C3552.49 1258.5 3565.5 1271.51 3565.5 1287.56L3565.5 1453.44C3565.5 1469.49 3552.49 1482.5 3536.44 1482.5L3029.56 1482.5C3013.51 1482.5 3000.5 1469.49 3000.5 1453.44Z" stroke="#FFFFFF" stroke-width="4.58333" stroke-miterlimit="8" fill="none" fill-rule="evenodd"/><path d="M0 0 398.877 0 398.877 59.6562" stroke="#FFFFFF" stroke-width="4.58333" stroke-linejoin="round" stroke-miterlimit="10" fill="none" fill-rule="evenodd" transform="matrix(-1.83697e-16 -1 -1 1.83697e-16 2304.16 1257.38)"/><path d="M991.5 650.672C991.5 634.561 1004.56 621.5 1020.67 621.5L2225.33 621.5C2241.44 621.5 2254.5 634.561 2254.5 650.672L2254.5 926.328C2254.5 942.439 2241.44 955.5 2225.33 955.5L1020.67 955.5C1004.56 955.5 991.5 942.439 991.5 926.328Z" stroke="#FFFFFF" stroke-width="4.58333" stroke-miterlimit="8" fill="#262626" fill-rule="evenodd"/><text fill="#FFFFFF" font-family="Times New Roman,Times New Roman_MSFontService,sans-serif" font-weight="700" font-size="64" transform="matrix(1 0 0 1 1157.77 1043)">Near</text><text fill="#FFFFFF" font-family="Times New Roman,Times New Roman_MSFontService,sans-serif" font-weight="700" font-size="64" transform="matrix(1 0 0 1 1291.16 1043)">-</text><text fill="#FFFFFF" font-family="Times New Roman,Times New Roman_MSFontService,sans-serif" font-weight="700" font-size="64" transform="matrix(1 0 0 1 1312.36 1043)">RT RAN Intelligent Controller</text><text fill="#FFFFFF" font-family="Arial,Arial_MSFontService,sans-serif" font-weight="400" font-size="55" transform="matrix(1 0 0 1 1343.71 1108)">•</text><text fill="#FFFFFF" font-family="Times New Roman,Times New Roman_MSFontService,sans-serif" font-weight="400" font-size="55" transform="matrix(1 0 0 1 1446.84 1108)">O</text><text fill="#FFFFFF" font-family="Times New Roman,Times New Roman_MSFontService,sans-serif" font-weight="400" font-size="55" transform="matrix(1 0 0 1 1486.37 1108)">-</text><text fill="#FFFFFF" font-family="Times New Roman,Times New Roman_MSFontService,sans-serif" font-weight="400" font-size="55" transform="matrix(1 0 0 1 1504.7 1108)">RAN SC RIC</text><text fill="#FFFFFF" font-family="Arial,Arial_MSFontService,sans-serif" font-weight="400" font-size="55" transform="matrix(1 0 0 1 1343.71 1174)">•</text><text fill="#FFFFFF" font-family="Times New Roman,Times New Roman_MSFontService,sans-serif" font-weight="400" font-size="55" transform="matrix(1 0 0 1 1446.84 1174)">FlexRIC</text><path d="M2254.5 718.5 2609.97 718.5" stroke="#FFFFFF" stroke-width="4.58333" stroke-miterlimit="8" fill="none" fill-rule="evenodd"/><text fill="#FFFFFF" font-family="Times New Roman,Times New Roman_MSFontService,sans-serif" font-style="italic" font-weight="400" font-size="55" transform="matrix(1 0 0 1 2363.45 697)">Policy</text><text fill="#FFFFFF" font-family="Times New Roman,Times New Roman_MSFontService,sans-serif" font-style="italic" font-weight="400" font-size="55" transform="matrix(1 0 0 1 2324.16 1168)">Key Performance Measurement</text><text fill="#FFFFFF" font-family="Times New Roman,Times New Roman_MSFontService,sans-serif" font-style="italic" font-weight="400" font-size="55" transform="matrix(1 0 0 1 2324.16 1234)">RAN Control</text><path d="M1308.5 815.031C1308.5 807.006 1315.01 800.5 1323.03 800.5L1739.97 800.5C1747.99 800.5 1754.5 807.006 1754.5 815.031L1754.5 897.969C1754.5 905.994 1747.99 912.5 1739.97 912.5L1323.03 912.5C1315.01 912.5 1308.5 905.994 1308.5 897.969Z" stroke="#D1D1D1" stroke-width="4.58333" stroke-miterlimit="8" fill="#3A3A3A" fill-rule="evenodd"/><text fill="#FFFFFF" font-family="Times New Roman,Times New Roman_MSFontService,sans-serif" font-weight="400" font-size="64" transform="matrix(1 0 0 1 1348.32 878)">KPM Monitor</text><path d="M1778.5 677.031C1778.5 669.005 1785.01 662.5 1793.03 662.5L2208.97 662.5C2216.99 662.5 2223.5 669.005 2223.5 677.031L2223.5 759.969C2223.5 767.994 2216.99 774.5 2208.97 774.5L1793.03 774.5C1785.01 774.5 1778.5 767.994 1778.5 759.969Z" stroke="#D1D1D1" stroke-width="4.58333" stroke-miterlimit="8" fill="#3A3A3A" fill-rule="evenodd"/><text fill="#FFFFFF" font-family="Times New Roman,Times New Roman_MSFontService,sans-serif" font-weight="400" font-size="64" transform="matrix(1 0 0 1 1798.33 741)">Traffic Steering</text><path d="M1308.5 677.031C1308.5 669.005 1315.01 662.5 1323.03 662.5L1739.97 662.5C1747.99 662.5 1754.5 669.005 1754.5 677.031L1754.5 759.969C1754.5 767.994 1747.99 774.499 1739.97 774.499L1323.03 774.499C1315.01 774.499 1308.5 767.994 1308.5 759.969Z" stroke="#D1D1D1" stroke-width="4.58333" stroke-miterlimit="8" fill="#3A3A3A" fill-rule="evenodd"/><text fill="#FFFFFF" font-family="Times New Roman,Times New Roman_MSFontService,sans-serif" font-weight="400" font-size="64" transform="matrix(1 0 0 1 1332.56 741)">QoE</text><text fill="#FFFFFF" font-family="Times New Roman,Times New Roman_MSFontService,sans-serif" font-weight="400" font-size="64" transform="matrix(1 0 0 1 1466.05 741)">Prediction</text><path d="M1778.5 815.031C1778.5 807.006 1785.01 800.5 1793.03 800.5L2208.97 800.5C2216.99 800.5 2223.5 807.006 2223.5 815.031L2223.5 897.97C2223.5 905.995 2216.99 912.5 2208.97 912.5L1793.03 912.5C1785.01 912.5 1778.5 905.995 1778.5 897.97Z" stroke="#D1D1D1" stroke-width="4.58333" stroke-miterlimit="8" fill="#3A3A3A" fill-rule="evenodd"/><text fill="#FFFFFF" font-family="Times New Roman,Times New Roman_MSFontService,sans-serif" font-weight="400" font-size="64" transform="matrix(1 0 0 1 1826.41 878)">RAN Control</text><path d="M3289.5 707.031C3289.5 699.006 3296.01 692.5 3304.03 692.5L3487.97 692.5C3495.99 692.5 3502.5 699.006 3502.5 707.031L3502.5 789.97C3502.5 797.995 3495.99 804.5 3487.97 804.5L3304.03 804.5C3296.01 804.5 3289.5 797.995 3289.5 789.97Z" stroke="#D1D1D1" stroke-width="4.58333" stroke-miterlimit="8" fill="#3A3A3A" fill-rule="evenodd"/><text fill="#FFFFFF" font-family="Times New Roman,Times New Roman_MSFontService,sans-serif" font-weight="400" font-size="64" transform="matrix(1 0 0 1 3316.78 771)">rApps</text><path d="M2706.5 707.031C2706.5 699.006 2713.01 692.5 2721.03 692.5L3249.97 692.5C3257.99 692.5 3264.5 699.006 3264.5 707.031L3264.5 789.969C3264.5 797.995 3257.99 804.5 3249.97 804.5L2721.03 804.5C2713.01 804.5 2706.5 797.995 2706.5 789.969Z" stroke="#D1D1D1" stroke-width="4.58333" stroke-miterlimit="8" fill="#3A3A3A" fill-rule="evenodd"/><text fill="#FFFFFF" font-family="Times New Roman,Times New Roman_MSFontService,sans-serif" font-weight="400" font-size="64" transform="matrix(1 0 0 1 2727.06 771)">Policy Management</text><text fill="#FFFFFF" font-family="Times New Roman,Times New Roman_MSFontService,sans-serif" font-weight="400" font-size="64" transform="matrix(1 0 0 1 1035.18 713)">xApps</text><path d="M0 0 145.823 0 145.823 53.4146 291.645 53.4146" stroke="#FFFFFF" stroke-width="4.58333" stroke-linejoin="round" stroke-miterlimit="10" fill="none" fill-rule="evenodd" transform="matrix(1 0 0 -1 2708.5 1370.91)"/><path d="M0 3.99995C-8.91177e-16 1.79084 1.56697 0 3.49993 0 5.43289-1.01849e-15 6.99987 1.79084 6.99987 3.99995 6.99987 6.20906 5.43289 7.9999 3.49993 7.9999 1.56697 7.9999-1.33677e-15 6.20906 0 3.99995Z" fill="#FFFFFF" fill-rule="evenodd" transform="matrix(1 0 0 -1 3508 1373)"/><path d="M0 3.99995C-1.01849e-15 1.79084 1.79084 0 3.99995 0 6.20906-1.01849e-15 7.9999 1.79084 7.9999 3.99995 7.9999 6.20906 6.20906 7.9999 3.99995 7.9999 1.79084 7.9999-1.52774e-15 6.20906 0 3.99995Z" fill="#FFFFFF" fill-rule="evenodd" transform="matrix(1 0 0 -1 3521 1373)"/><path d="M0 3.99995C-1.01849e-15 1.79084 1.79084 0 3.99995 0 6.20906-1.01849e-15 7.9999 1.79084 7.9999 3.99995 7.9999 6.20906 6.20906 7.9999 3.99995 7.9999 1.79084 7.9999-1.52774e-15 6.20906 0 3.99995Z" fill="#FFFFFF" fill-rule="evenodd" transform="matrix(1 0 0 -1 3535 1373)"/><path d="M0 3.49993C-8.91177e-16 1.56697 1.56697 0 3.49993 0 5.43289 -8.91177e-16 6.99987 1.56697 6.99987 3.49993 6.99987 5.43289 5.43289 6.99987 3.49993 6.99987 1.56697 6.99987-1.33677e-15 5.43289 0 3.49993Z" fill="#FFFFFF" fill-rule="evenodd" transform="matrix(1 0 0 -1 3469 902)"/><path d="M0 3.49993C-8.91223e-16 1.56697 1.56705 0 3.50011 0 5.43317 -8.91177e-16 7.00023 1.56697 7.00023 3.49993 7.00023 5.43289 5.43317 6.99987 3.50011 6.99987 1.56705 6.99987-1.33683e-15 5.43289 0 3.49993Z" fill="#FFFFFF" fill-rule="evenodd" transform="matrix(1 0 0 -1 3483 902)"/><path d="M0 3.49993C-8.91177e-16 1.56697 1.56697 0 3.49993 0 5.43289 -8.91177e-16 6.99987 1.56697 6.99987 3.49993 6.99987 5.43289 5.43289 6.99987 3.49993 6.99987 1.56697 6.99987-1.33677e-15 5.43289 0 3.49993Z" fill="#FFFFFF" fill-rule="evenodd" transform="matrix(1 0 0 -1 3497 902)"/><path d="M0 3.50011C-8.91223e-16 1.56705 1.56705 0 3.50011 0 5.43317 -8.91223e-16 7.00023 1.56705 7.00023 3.50011 7.00023 5.43317 5.43317 7.00023 3.50011 7.00023 1.56705 7.00023-1.33683e-15 5.43317 0 3.50011Z" fill="#FFFFFF" fill-rule="evenodd" transform="matrix(1 0 0 -1 1053 904)"/><path d="M0 3.50011C-8.91177e-16 1.56705 1.56697 0 3.49993 0 5.43289 -8.91223e-16 6.99987 1.56705 6.99987 3.50011 6.99987 5.43317 5.43289 7.00023 3.49993 7.00023 1.56697 7.00023-1.33677e-15 5.43317 0 3.50011Z" fill="#FFFFFF" fill-rule="evenodd" transform="matrix(1 0 0 -1 1067 904)"/><path d="M0 3.50011C-8.91177e-16 1.56705 1.56697 0 3.49993 0 5.43289 -8.91223e-16 6.99987 1.56705 6.99987 3.50011 6.99987 5.43317 5.43289 7.00023 3.49993 7.00023 1.56697 7.00023-1.33677e-15 5.43317 0 3.50011Z" fill="#FFFFFF" fill-rule="evenodd" transform="matrix(1 0 0 -1 1081 904)"/><text fill="#FFFFFF" font-family="Times New Roman,Times New Roman_MSFontService,sans-serif" font-style="italic" font-weight="400" font-size="55" transform="matrix(1 0 0 1 2719.97 1434)">Tunnel from </text><text fill="#FFFFFF" font-family="Times New Roman,Times New Roman_MSFontService,sans-serif" font-style="italic" font-weight="400" font-size="55" transform="matrix(1 0 0 1 2719.97 1500)">UPF to UE</text><text fill="#FFFFFF" font-family="Times New Roman,Times New Roman_MSFontService,sans-serif" font-style="italic" font-weight="400" font-size="55" transform="matrix(1 0 0 1 2719.97 1566)">for internet</text></g></svg>