<svg width="2955" height="1293" xmlns="http://www.w3.org/2000/svg" xmlns:xlink="http://www.w3.org/1999/xlink" overflow="hidden"><defs><clipPath id="clip0"><rect x="663" y="591" width="2955" height="1293"/></clipPath><clipPath id="clip1"><rect x="767" y="1338" width="82" height="81"/></clipPath><clipPath id="clip2"><rect x="767" y="1338" width="82" height="81"/></clipPath><clipPath id="clip3"><rect x="767" y="1338" width="82" height="81"/></clipPath><clipPath id="clip4"><rect x="762" y="1446" width="92" height="93"/></clipPath><clipPath id="clip5"><rect x="762" y="1446" width="92" height="93"/></clipPath><clipPath id="clip6"><rect x="762" y="1446" width="92" height="93"/></clipPath><clipPath id="clip7"><rect x="765" y="1226" width="86" height="87"/></clipPath><clipPath id="clip8"><rect x="765" y="1226" width="86" height="87"/></clipPath><clipPath id="clip9"><rect x="765" y="1226" width="86" height="87"/></clipPath><clipPath id="clip10"><rect x="1464" y="1230" width="303" height="303"/></clipPath><clipPath id="clip11"><rect x="1464" y="1230" width="303" height="303"/></clipPath><clipPath id="clip12"><rect x="1464" y="1230" width="303" height="303"/></clipPath><clipPath id="clip13"><rect x="1656" y="1230" width="304" height="304"/></clipPath><clipPath id="clip14"><rect x="1656" y="1230" width="304" height="304"/></clipPath><clipPath id="clip15"><rect x="1656" y="1230" width="304" height="304"/></clipPath><clipPath id="clip16"><rect x="1940" y="1278" width="105" height="104"/></clipPath><clipPath id="clip17"><rect x="1940" y="1278" width="105" height="104"/></clipPath><clipPath id="clip18"><rect x="1940" y="1278" width="105" height="104"/></clipPath><clipPath id="clip19"><rect x="1952" y="1391" width="93" height="92"/></clipPath><clipPath id="clip20"><rect x="1952" y="1391" width="93" height="92"/></clipPath><clipPath id="clip21"><rect x="1952" y="1391" width="93" height="92"/></clipPath><clipPath id="clip22"><rect x="3048" y="1284" width="91" height="91"/></clipPath><clipPath id="clip23"><rect x="3048" y="1284" width="91" height="91"/></clipPath><clipPath id="clip24"><rect x="3048" y="1284" width="91" height="91"/></clipPath><clipPath id="clip25"><rect x="3059" y="1397" width="80" height="80"/></clipPath><clipPath id="clip26"><rect x="3059" y="1397" width="80" height="80"/></clipPath><clipPath id="clip27"><rect x="3059" y="1397" width="80" height="80"/></clipPath></defs><g clip-path="url(#clip0)" transform="translate(-663 -591)"><path d="M668 624.638C668 608.822 680.822 596 696.638 596L3580.36 596C3596.18 596 3609 608.822 3609 624.638L3609 1850.36C3609 1866.18 3596.18 1879 3580.36 1879L696.638 1879C680.822 1879 668 1866.18 668 1850.36Z" fill="#FFFFFF" fill-rule="evenodd"/><path d="M2610 661.796C2610 646.444 2622.44 634 2637.8 634L3537.2 634C3552.56 634 3565 646.444 3565 661.796L3565 940.204C3565 955.555 3552.56 968 3537.2 968L2637.8 968C2622.44 968 2610 955.555 2610 940.204Z" stroke="#000000" stroke-width="10.3125" stroke-miterlimit="8" fill="#D9D9D9" fill-rule="evenodd"/><text font-family="Times New Roman,Times New Roman_MSFontService,sans-serif" font-weight="700" font-size="64" transform="matrix(1 0 0 1 2472.95 1056)">S<tspan font-size="64" x="35.521" y="0">ervice Management and Orchestration</tspan><tspan font-family="Arial,Arial_MSFontService,sans-serif" font-weight="400" font-size="55" x="235.551" y="65">•</tspan><tspan font-weight="400" font-size="55" x="338.676" y="65">O</tspan><tspan font-weight="400" font-size="55" x="378.207" y="65">-</tspan><tspan font-weight="400" font-size="55" x="396.541" y="65">RAN SC RIC</tspan></text><path d="M2675 697.626C2675 684.026 2686.03 673 2699.63 673L3504.37 673C3517.97 673 3529 684.026 3529 697.626L3529 821.374C3529 834.974 3517.97 846 3504.37 846L2699.63 846C2686.03 846 2675 834.974 2675 821.374Z" stroke="#000000" stroke-width="10.3125" stroke-miterlimit="8" fill="#F2F2F2" fill-rule="evenodd"/><text font-family="Times New Roman,Times New Roman_MSFontService,sans-serif" font-weight="700" font-size="64" transform="matrix(1 0 0 1 2908 934)">Non<tspan font-size="64" x="114.01" y="0">-</tspan><tspan font-size="64" x="135.208" y="0">RT RIC</tspan></text><path d="M668 624.638C668 608.822 680.822 596 696.638 596L3580.36 596C3596.18 596 3609 608.822 3609 624.638L3609 1850.36C3609 1866.18 3596.18 1879 3580.36 1879L696.638 1879C680.822 1879 668 1866.18 668 1850.36Z" stroke="#000000" stroke-width="10.3125" stroke-miterlimit="8" fill="none" fill-rule="evenodd"/><text font-family="Times New Roman,Times New Roman_MSFontService,sans-serif" font-weight="700" font-size="64" transform="matrix(1 0 0 1 893.363 1628)">User Equipment</text><path d="M715 1246.52C715 1229.11 729.113 1215 746.522 1215L1491.48 1215C1508.89 1215 1523 1229.11 1523 1246.52L1523 1516.48C1523 1533.89 1508.89 1548 1491.48 1548L746.522 1548C729.113 1548 715 1533.89 715 1516.48Z" fill="#D9D9D9" fill-rule="evenodd"/><rect x="715" y="1324" width="808" height="116" fill="#F2F2F2"/><path d="M715 1247.9C715 1229.73 729.729 1215 747.897 1215L1490.1 1215C1508.27 1215 1523 1229.73 1523 1247.9L1523 1515.1C1523 1533.27 1508.27 1548 1490.1 1548L747.897 1548C729.729 1548 715 1533.27 715 1515.1Z" stroke="#000000" stroke-width="10.3125" stroke-miterlimit="8" fill="none" fill-rule="evenodd"/><text font-family="Times New Roman,Times New Roman_MSFontService,sans-serif" font-weight="400" font-size="64" transform="matrix(1 0 0 1 872.618 1514)">RF Simulator / <tspan font-size="64" x="397.031" y="0">ZeroMQ</tspan><tspan font-size="64" x="129.766" y="-108">Mobile Phone</tspan><tspan font-size="64" x="-3.72406" y="-216">Software</tspan><tspan font-size="64" x="227.734" y="-216">-</tspan><tspan font-size="64" x="248.932" y="-216">Defined Radio</tspan></text><g clip-path="url(#clip1)"><g clip-path="url(#clip2)"><g clip-path="url(#clip3)"><path d="M823 1405.67 793 1405.67 793 1352.33 823 1352.33 823 1405.67ZM804.667 1345.67 811.333 1345.67C812.25 1345.67 813 1346.42 813 1347.33 813 1348.25 812.25 1349 811.333 1349L804.667 1349C803.75 1349 803 1348.25 803 1347.33 803 1346.42 803.75 1345.67 804.667 1345.67ZM826.333 1342.33 789.667 1342.33C788.75 1342.33 788 1343.08 788 1344L788 1414C788 1414.92 788.75 1415.67 789.667 1415.67L826.333 1415.67C827.25 1415.67 828 1414.92 828 1414L828 1344C828 1343.08 827.25 1342.33 826.333 1342.33Z"/></g></g></g><g clip-path="url(#clip4)"><g clip-path="url(#clip5)"><g clip-path="url(#clip6)"><path d="M69.5164 20.125C67.9279 15.0763 62.5474 12.2711 57.4987 13.8596 54.5122 14.7992 52.173 17.1385 51.2333 20.125L13.4166 20.125 13.4166 25.8749 51.2333 25.8749C52.8218 30.9236 58.2023 33.7287 63.251 32.1403 66.2375 31.2007 68.5767 28.8614 69.5164 25.8749L78.5831 25.8749 78.5831 20.125ZM60.3748 26.8333C58.2578 26.8333 56.5415 25.117 56.5415 22.9999 56.5415 20.8829 58.2578 19.1666 60.3748 19.1666 62.4919 19.1666 64.2082 20.8829 64.2082 22.9999 64.2082 25.117 62.4919 26.8333 60.3748 26.8333Z" transform="matrix(1 0 0 1 762 1447)"/><path d="M56.5415 59.4165C52.3582 59.4219 48.66 62.1357 47.4 66.1248L13.4166 66.1248 13.4166 71.8748 47.4 71.8748C48.9884 76.9235 54.369 79.7286 59.4177 78.1402 62.4042 77.2005 64.7434 74.8613 65.683 71.8748L78.5831 71.8748 78.5831 66.1248 65.683 66.1248C64.423 62.1357 60.7248 59.4219 56.5415 59.4165ZM56.5415 72.8332C54.4245 72.8332 52.7082 71.1169 52.7082 68.9998 52.7082 66.8828 54.4245 65.1665 56.5415 65.1665 58.6586 65.1665 60.3748 66.8828 60.3748 68.9998 60.3748 71.1169 58.6586 72.8332 56.5415 72.8332Z" transform="matrix(1 0 0 1 762 1447)"/><path d="M32.5833 36.4166C28.3999 36.4219 24.7017 39.1357 23.4417 43.1249L13.4166 43.1249 13.4166 48.8749 23.4417 48.8749C25.0302 53.9236 30.4107 56.7287 35.4594 55.1403 38.4459 54.2006 40.7851 51.8613 41.7248 48.8749L78.5831 48.8749 78.5831 43.1249 41.7248 43.1249C40.4648 39.1357 36.7666 36.4219 32.5833 36.4166ZM32.5833 49.8332C30.4662 49.8332 28.7499 48.1169 28.7499 45.9999 28.7499 43.8828 30.4662 42.1666 32.5833 42.1666 34.7003 42.1666 36.4166 43.8828 36.4166 45.9999 36.4166 48.1169 34.7003 49.8332 32.5833 49.8332Z" transform="matrix(1 0 0 1 762 1447)"/></g></g></g><g clip-path="url(#clip7)"><g clip-path="url(#clip8)"><g clip-path="url(#clip9)"><path d="M34.5626 37.1001 37.0126 34.6501C35.7876 33.3376 35.0001 31.5876 35.0001 29.6626 35.0001 27.7376 35.7876 25.9876 37.0126 24.6751L34.5626 22.2251C32.6376 24.1501 31.5001 26.7751 31.5001 29.6626 31.5001 32.5501 32.6376 35.1751 34.5626 37.1001Z" transform="matrix(1 0 0 1.01191 766 1227)"/><path d="M29.6626 42.0001 32.1126 39.5501C29.5751 37.0126 28.0001 33.5126 28.0001 29.6626 28.0001 25.8126 29.5751 22.3126 32.1126 19.7751L29.6626 17.325C26.4251 20.4751 24.5001 24.8501 24.5001 29.6626 24.5001 34.4751 26.4251 38.8501 29.6626 42.0001Z" transform="matrix(1 0 0 1.01191 766 1227)"/><path d="M27.1251 44.5376C23.3626 40.7751 21.0001 35.5251 21.0001 29.6626 21.0001 23.8001 23.3626 18.6376 27.1251 14.7875L24.6751 12.3375C20.2126 16.8 17.5 22.9251 17.5 29.6626 17.5 36.4001 20.2126 42.5251 24.6751 46.9876L27.1251 44.5376Z" transform="matrix(1 0 0 1.01191 766 1227)"/><path d="M49.4376 37.1001C51.3626 35.1751 52.5001 32.5501 52.5001 29.6626 52.5001 26.7751 51.3626 24.1501 49.4376 22.2251L46.9876 24.6751C48.2126 25.9001 49.0001 27.6501 49.0001 29.6626 49.0001 31.6751 48.2126 33.3376 46.9876 34.6501L49.4376 37.1001Z" transform="matrix(1 0 0 1.01191 766 1227)"/><path d="M51.8876 39.5501 54.3376 42.0001C57.5752 38.8501 59.5002 34.4751 59.5002 29.6626 59.5002 24.8501 57.5752 20.4751 54.3376 17.325L51.8876 19.7751C54.4251 22.3126 56.0002 25.8126 56.0002 29.6626 56.0002 33.5126 54.4251 37.0126 51.8876 39.5501Z" transform="matrix(1 0 0 1.01191 766 1227)"/><path d="M56.8752 44.5376 59.3252 46.9876C63.7877 42.5251 66.5002 36.4001 66.5002 29.6626 66.5002 22.9251 63.7877 16.8 59.3252 12.3375L56.8752 14.7875C60.6377 18.5501 63.0002 23.8001 63.0002 29.6626 63.0002 35.5251 60.6377 40.6876 56.8752 44.5376Z" transform="matrix(1 0 0 1.01191 766 1227)"/><path d="M64.7502 64.6627C63.7877 64.6627 63.0002 63.8752 63.0002 62.9127 63.0002 61.9502 63.7877 61.1627 64.7502 61.1627 65.7127 61.1627 66.5002 61.9502 66.5002 62.9127 66.5002 63.8752 65.7127 64.6627 64.7502 64.6627ZM56.0002 64.6627C55.0377 64.6627 54.2501 63.8752 54.2501 62.9127 54.2501 61.9502 55.0377 61.1627 56.0002 61.1627 56.9627 61.1627 57.7502 61.9502 57.7502 62.9127 57.7502 63.8752 56.9627 64.6627 56.0002 64.6627ZM47.2501 64.6627C46.2876 64.6627 45.5001 63.8752 45.5001 62.9127 45.5001 61.9502 46.2876 61.1627 47.2501 61.1627 48.2126 61.1627 49.0001 61.9502 49.0001 62.9127 49.0001 63.8752 48.2126 64.6627 47.2501 64.6627ZM38.5001 64.6627C37.5376 64.6627 36.7501 63.8752 36.7501 62.9127 36.7501 61.9502 37.5376 61.1627 38.5001 61.1627 39.4626 61.1627 40.2501 61.9502 40.2501 62.9127 40.2501 63.8752 39.4626 64.6627 38.5001 64.6627ZM21.0001 66.4127C19.0751 66.4127 17.5 64.8377 17.5 62.9127 17.5 60.9877 19.0751 59.4127 21.0001 59.4127 22.9251 59.4127 24.5001 60.9877 24.5001 62.9127 24.5001 64.8377 22.9251 66.4127 21.0001 66.4127ZM68.2502 54.1626 43.7501 54.1626 43.7501 32.6376C44.8001 32.0251 45.5001 30.8876 45.5001 29.6626 45.5001 27.7376 43.9251 26.1626 42.0001 26.1626 40.0751 26.1626 38.5001 27.7376 38.5001 29.6626 38.5001 30.9751 39.2001 32.1126 40.2501 32.6376L40.2501 54.1626 15.75 54.1626C13.825 54.1626 12.25 55.7377 12.25 57.6627L12.25 68.1627C12.25 70.0877 13.825 71.6627 15.75 71.6627L68.2502 71.6627C70.1752 71.6627 71.7502 70.0877 71.7502 68.1627L71.7502 57.6627C71.7502 55.7377 70.1752 54.1626 68.2502 54.1626Z" transform="matrix(1 0 0 1.01191 766 1227)"/></g></g></g><g clip-path="url(#clip10)"><g clip-path="url(#clip11)"><g clip-path="url(#clip12)"><path d="M55.6812 132.754C108.531 79.9041 194.098 79.9041 246.948 132.754L251.352 128.35C195.985 72.9833 106.329 72.9833 51.2771 128.35L55.6812 132.754Z" transform="matrix(6.12324e-17 1 -1 6.12323e-17 1766 1231)"/><path d="M224.612 155.089C184.031 114.508 118.283 114.508 77.702 155.089L82.1062 159.494C120.171 121.429 181.829 121.429 219.894 159.494L224.612 155.089Z" transform="matrix(6.12324e-17 1 -1 6.12323e-17 1766 1231)"/><path d="M109.16 186.233C132.439 162.954 170.504 162.954 193.783 186.233L198.187 181.829C172.392 156.033 130.552 156.033 104.756 181.829L109.16 186.233Z" transform="matrix(6.12324e-17 1 -1 6.12323e-17 1766 1231)"/><path d="M135.9 212.973C144.394 204.479 158.55 204.479 167.044 212.973L171.448 208.569C160.437 197.558 142.506 197.558 131.496 208.569L135.9 212.973Z" transform="matrix(6.12324e-17 1 -1 6.12323e-17 1766 1231)"/></g></g></g><text font-family="Arial,Arial_MSFontService,sans-serif" font-weight="400" font-size="55" transform="matrix(1 0 0 1 914.043 1701)">•<tspan font-family="Times New Roman,Times New Roman_MSFontService,sans-serif" font-size="55" x="103.125" y="0">srsRAN_4G</tspan><tspan font-size="55" x="0" y="66">•</tspan><tspan font-family="Times New Roman,Times New Roman_MSFontService,sans-serif" font-size="55" x="103.125" y="66">OpenAirInterface5G</tspan><tspan font-family="Times New Roman,Times New Roman_MSFontService,sans-serif" font-weight="700" font-size="64" x="1053.39" y="-73">Next Generation Node B</tspan></text><g clip-path="url(#clip13)"><g clip-path="url(#clip14)"><g clip-path="url(#clip15)"><path d="M55.6813 132.754C108.531 79.9042 194.098 79.9042 246.948 132.754L251.352 128.35C195.986 72.9834 106.329 72.9834 51.2771 128.35L55.6813 132.754Z" transform="matrix(1.83697e-16 1 1 -1.83697e-16 1657 1231)"/><path d="M224.613 155.09C184.031 114.508 118.283 114.508 77.7021 155.09L82.1063 159.494C120.171 121.429 181.829 121.429 219.894 159.494L224.613 155.09Z" transform="matrix(1.83697e-16 1 1 -1.83697e-16 1657 1231)"/><path d="M109.16 186.233C132.44 162.954 170.504 162.954 193.783 186.233L198.188 181.829C172.392 156.033 130.552 156.033 104.756 181.829L109.16 186.233Z" transform="matrix(1.83697e-16 1 1 -1.83697e-16 1657 1231)"/><path d="M135.9 212.973C144.394 204.479 158.55 204.479 167.044 212.973L171.448 208.569C160.438 197.558 142.506 197.558 131.496 208.569L135.9 212.973Z" transform="matrix(1.83697e-16 1 1 -1.83697e-16 1657 1231)"/></g></g></g><path d="M1899 1299.06C1899 1283.01 1912.01 1270 1928.06 1270L2678.94 1270C2694.99 1270 2708 1283.01 2708 1299.06L2708 1464.94C2708 1480.99 2694.99 1494 2678.94 1494L1928.06 1494C1912.01 1494 1899 1480.99 1899 1464.94Z" fill="#D9D9D9" fill-rule="evenodd"/><path d="M31.8278 0 776.172 0C793.75-6.42937e-15 808 14.2499 808 31.828L808 111 0 111 0 31.828C-1.28587e-14 14.2499 14.2498 0 31.8278 0Z" fill="#F2F2F2" fill-rule="evenodd" transform="matrix(1 0 0 -1 1900 1493)"/><path d="M1899 1299.06C1899 1283.01 1912.01 1270 1928.06 1270L2678.94 1270C2694.99 1270 2708 1283.01 2708 1299.06L2708 1464.94C2708 1480.99 2694.99 1494 2678.94 1494L1928.06 1494C1912.01 1494 1899 1480.99 1899 1464.94Z" stroke="#000000" stroke-width="10.3125" stroke-miterlimit="8" fill="none" fill-rule="evenodd"/><text font-family="Times New Roman,Times New Roman_MSFontService,sans-serif" font-weight="400" font-size="64" transform="matrix(1 0 0 1 2053.54 1352)">Software<tspan font-size="64" x="231.458" y="0">-</tspan><tspan font-size="64" x="252.656" y="0">Defined Radio</tspan></text><g clip-path="url(#clip16)"><g clip-path="url(#clip17)"><g clip-path="url(#clip18)"><path d="M43.3332 37.9166 46.3666 34.8833C43.0427 31.4376 43.0427 25.9789 46.3666 22.5333L43.3332 19.5C38.2769 24.5977 38.2769 32.8189 43.3332 37.9166Z" transform="matrix(1.00962 0 0 1 1940 1278)"/><path d="M37.2666 43.9832 40.2999 40.9499C33.5391 34.232 33.5043 23.3052 40.2222 16.5443 40.248 16.5183 40.2739 16.4924 40.2999 16.4666L37.2666 13.4333C28.8305 21.7503 28.7338 35.3312 37.0507 43.7673 37.1222 43.8398 37.1941 43.9117 37.2666 43.9832Z" transform="matrix(1.00962 0 0 1 1940 1278)"/><path d="M34.1249 47.1249C24.0121 36.9296 24.0121 20.487 34.1249 10.2916L31.0916 7.25832C19.2452 19.1036 19.2442 38.3095 31.0894 50.1561 31.0902 50.1568 31.0908 50.1575 31.0916 50.1582Z" transform="matrix(1.00962 0 0 1 1940 1278)"/><path d="M61.7499 37.9166C66.8062 32.8189 66.8062 24.5977 61.7499 19.5L58.7166 22.5333C60.3362 24.1777 61.233 26.4002 61.2082 28.7083 61.212 31.0122 60.3183 33.2271 58.7166 34.8833Z" transform="matrix(1.00962 0 0 1 1940 1278)"/><path d="M64.7832 40.9499 67.8165 43.9832C76.2526 35.6663 76.3493 22.0853 68.0324 13.6492 67.9609 13.5767 67.889 13.5048 67.8165 13.4333L64.7832 16.4666C71.5441 23.1846 71.5788 34.1114 64.8609 40.8722 64.8351 40.8982 64.8092 40.9241 64.7832 40.9499Z" transform="matrix(1.00962 0 0 1 1940 1278)"/><path d="M70.9582 47.1249 73.9915 50.1582C85.838 38.313 85.8389 19.107 73.9937 7.26051 73.993 7.25978 73.9923 7.25904 73.9915 7.25832L70.9582 10.2916C81.071 20.487 81.071 36.9296 70.9582 47.1249Z" transform="matrix(1.00962 0 0 1 1940 1278)"/><path d="M85.5832 93.9356 85.5832 93.9356C85.5498 93.7433 85.4877 93.557 85.399 93.3831 85.399 93.3831 85.399 93.3831 85.399 93.3182L54.5241 33.1933C54.43 33.017 54.3095 32.8562 54.1666 32.7166 56.3851 31.8192 57.4561 29.2931 56.5587 27.0745 55.6612 24.856 53.1351 23.785 50.9166 24.6824 48.698 25.5798 47.627 28.1059 48.5245 30.3245 48.9648 31.413 49.828 32.2762 50.9166 32.7166 50.8009 32.8439 50.7025 32.986 50.6241 33.1391L19.7491 93.264C19.7491 93.264 19.7491 93.264 19.7491 93.329 19.6604 93.5029 19.5983 93.6892 19.565 93.8815L19.565 93.8815C19.538 94.061 19.538 94.2436 19.565 94.4232 19.565 94.4232 19.565 94.5098 19.565 94.5531 19.5944 94.7284 19.6453 94.8995 19.7166 95.0623 19.7166 95.0623 19.7166 95.0623 19.7166 95.0623 19.7166 95.0623 19.825 95.214 19.8683 95.3007 19.9343 95.4095 20.0066 95.5144 20.085 95.6148L20.085 95.6148C20.1401 95.6616 20.198 95.7049 20.2583 95.7448 20.3519 95.8334 20.4534 95.9133 20.5616 95.9831 20.6462 96.0273 20.733 96.0671 20.8216 96.1023L21.1466 96.2215 21.4283 96.2215 21.6666 96.4165 21.8183 96.4165 21.9591 96.4165C22.1576 96.3979 22.3516 96.3466 22.5333 96.2648L52.5632 83.059 82.5498 96.2323C82.8219 96.3562 83.1176 96.4191 83.4165 96.4165L83.4165 96.4165C83.5959 96.4132 83.7742 96.3878 83.9473 96.3406L84.099 96.3406C84.2366 96.2884 84.3706 96.2269 84.4998 96.1565L84.5973 96.0915C84.739 96.0022 84.8699 95.8968 84.9873 95.7773L84.9873 95.7773C85.0718 95.6715 85.1479 95.5591 85.2148 95.4415 85.2621 95.3717 85.3055 95.2994 85.3448 95.2248 85.3448 95.2248 85.3448 95.2248 85.3448 95.2248 85.4181 95.059 85.4691 94.8841 85.4965 94.7048 85.4965 94.7048 85.4965 94.629 85.4965 94.5856 85.5645 94.376 85.5939 94.1558 85.5832 93.9356ZM67.1665 67.3399 56.2249 59.9407 61.5007 56.3332ZM52.5416 38.8699 59.5074 52.4224 52.3791 57.3299 45.8791 52.9966C45.738 52.8982 45.5852 52.8181 45.4241 52.7582ZM43.4632 56.5391 48.5441 59.9732 37.9166 67.264ZM26.3791 89.819 34.0274 74.9124 47.1682 80.6865ZM38.5016 72.1499 52.4007 62.584 66.5707 72.1715 52.5632 78.3249ZM75.3349 88.3348 57.9474 80.6973 71.0665 74.934 78.704 89.8082Z" transform="matrix(1.00962 0 0 1 1940 1278)"/></g></g></g><text font-family="Times New Roman,Times New Roman_MSFontService,sans-serif" font-weight="400" font-size="64" transform="matrix(1 0 0 1 2057.26 1461)">RF Simulator / <tspan font-size="64" x="397.031" y="0">ZeroMQ</tspan></text><g clip-path="url(#clip19)"><g clip-path="url(#clip20)"><g clip-path="url(#clip21)"><path d="M69.5164 20.125C67.9279 15.0763 62.5474 12.2711 57.4987 13.8596 54.5122 14.7992 52.173 17.1385 51.2333 20.125L13.4166 20.125 13.4166 25.8749 51.2333 25.8749C52.8218 30.9236 58.2023 33.7287 63.251 32.1403 66.2375 31.2007 68.5767 28.8614 69.5164 25.8749L78.5831 25.8749 78.5831 20.125ZM60.3748 26.8333C58.2578 26.8333 56.5415 25.117 56.5415 22.9999 56.5415 20.8829 58.2578 19.1666 60.3748 19.1666 62.4919 19.1666 64.2082 20.8829 64.2082 22.9999 64.2082 25.117 62.4919 26.8333 60.3748 26.8333Z" transform="matrix(1.01087 0 0 1 1952 1391)"/><path d="M56.5415 59.4165C52.3582 59.4219 48.66 62.1357 47.4 66.1248L13.4166 66.1248 13.4166 71.8748 47.4 71.8748C48.9884 76.9235 54.369 79.7286 59.4177 78.1402 62.4042 77.2005 64.7434 74.8613 65.683 71.8748L78.5831 71.8748 78.5831 66.1248 65.683 66.1248C64.423 62.1357 60.7248 59.4219 56.5415 59.4165ZM56.5415 72.8332C54.4245 72.8332 52.7082 71.1169 52.7082 68.9998 52.7082 66.8828 54.4245 65.1665 56.5415 65.1665 58.6586 65.1665 60.3748 66.8828 60.3748 68.9998 60.3748 71.1169 58.6586 72.8332 56.5415 72.8332Z" transform="matrix(1.01087 0 0 1 1952 1391)"/><path d="M32.5833 36.4166C28.3999 36.4219 24.7017 39.1357 23.4417 43.1249L13.4166 43.1249 13.4166 48.8749 23.4417 48.8749C25.0302 53.9236 30.4107 56.7287 35.4594 55.1403 38.4459 54.2006 40.7851 51.8613 41.7248 48.8749L78.5831 48.8749 78.5831 43.1249 41.7248 43.1249C40.4648 39.1357 36.7666 36.4219 32.5833 36.4166ZM32.5833 49.8332C30.4662 49.8332 28.7499 48.1169 28.7499 45.9999 28.7499 43.8828 30.4662 42.1666 32.5833 42.1666 34.7003 42.1666 36.4166 43.8828 36.4166 45.9999 36.4166 48.1169 34.7003 49.8332 32.5833 49.8332Z" transform="matrix(1.01087 0 0 1 1952 1391)"/></g></g></g><text font-family="Arial,Arial_MSFontService,sans-serif" font-weight="400" font-size="55" transform="matrix(1 0 0 1 1984.86 1701)">•<tspan font-family="Times New Roman,Times New Roman_MSFontService,sans-serif" font-size="55" x="103.125" y="0">srsRAN_Project</tspan><tspan font-size="55" x="0" y="66">•</tspan><tspan font-family="Times New Roman,Times New Roman_MSFontService,sans-serif" font-size="55" x="103.125" y="66">OpenAirInterface5G</tspan><tspan font-size="55" x="0" y="132">•</tspan><tspan font-family="Times New Roman,Times New Roman_MSFontService,sans-serif" font-size="55" x="103.125" y="132">O</tspan><tspan font-family="Times New Roman,Times New Roman_MSFontService,sans-serif" font-size="55" x="142.656" y="132">-</tspan><tspan font-family="Times New Roman,Times New Roman_MSFontService,sans-serif" font-size="55" x="160.99" y="132">RAN SC E2 Simulator</tspan><tspan font-family="Times New Roman,Times New Roman_MSFontService,sans-serif" font-weight="700" font-size="64" x="1052.96" y="-73">5G Core Network</tspan></text><path d="M3000 1299.06C3000 1283.01 3013.01 1270 3029.06 1270L3535.94 1270C3551.99 1270 3565 1283.01 3565 1299.06L3565 1464.94C3565 1480.99 3551.99 1494 3535.94 1494L3029.06 1494C3013.01 1494 3000 1480.99 3000 1464.94Z" fill="#D9D9D9" fill-rule="evenodd"/><path d="M31.8282 0 533.172 0C550.75-8.99152e-15 565 14.25 565 31.8283L565 111 0 111 0 31.8283C0 14.25 14.25-1.34873e-14 31.8282-1.7983e-14Z" fill="#F2F2F2" fill-rule="evenodd" transform="matrix(1 0 0 -1 3000 1493)"/><text font-family="Times New Roman,Times New Roman_MSFontService,sans-serif" font-weight="400" font-size="64" transform="matrix(1 0 0 1 3217.04 1352)">AMF</text><g clip-path="url(#clip22)"><g clip-path="url(#clip23)"><g clip-path="url(#clip24)"><path d="M3085.5 1361.88 3085.5 1348.75 3098.62 1348.75 3098.62 1361.88Z"/><path d="M3085.5 1311.25 3085.5 1298.12 3098.62 1298.12 3098.62 1311.25Z"/><path d="M3060.19 1361.88 3060.19 1348.75 3073.31 1348.75 3073.31 1361.88Z"/><path d="M3110.81 1361.88 3110.81 1348.75 3123.94 1348.75 3123.94 1361.88Z"/><path d="M3064.88 1328.12 3064.88 1345 3068.62 1345 3068.62 1331.88 3090.19 1331.88 3090.19 1345 3093.94 1345 3093.94 1331.88 3115.5 1331.88 3115.5 1345 3119.25 1345 3119.25 1328.12 3093.94 1328.12 3093.94 1315 3090.19 1315 3090.19 1328.12 3064.88 1328.12Z"/></g></g></g><text font-family="Times New Roman,Times New Roman_MSFontService,sans-serif" font-weight="400" font-size="64" transform="matrix(1 0 0 1 3227.92 1461)">UPF</text><g clip-path="url(#clip25)"><g clip-path="url(#clip26)"><g clip-path="url(#clip27)"><path d="M3114.14 1448.84 3070.72 1448.84 3078.03 1441.54C3078.97 1440.56 3078.95 1438.99 3077.97 1438.05 3077.01 1437.12 3075.49 1437.12 3074.54 1438.05L3063.01 1449.57C3062.05 1450.53 3062.05 1452.09 3063.01 1453.06L3074.54 1464.58C3075.52 1465.53 3077.08 1465.5 3078.03 1464.52 3078.95 1463.56 3078.95 1462.04 3078.03 1461.09L3070.72 1453.78 3114.14 1453.78C3115.5 1453.78 3116.6 1452.68 3116.6 1451.31 3116.6 1449.95 3115.5 1448.84 3114.14 1448.84Z"/><path d="M3082.86 1419.22 3126.28 1419.22 3118.97 1411.91C3118.03 1410.93 3118.05 1409.37 3119.03 1408.42 3119.99 1407.5 3121.51 1407.5 3122.46 1408.42L3133.99 1419.94C3134.95 1420.91 3134.95 1422.47 3133.99 1423.43L3122.46 1434.95C3121.48 1435.9 3119.92 1435.87 3118.97 1434.89 3118.05 1433.94 3118.05 1432.42 3118.97 1431.46L3126.28 1424.16 3082.86 1424.16C3081.5 1424.16 3080.4 1423.05 3080.4 1421.69 3080.4 1420.32 3081.5 1419.22 3082.86 1419.22Z"/></g></g></g><text font-family="Arial,Arial_MSFontService,sans-serif" font-weight="400" font-size="55" transform="matrix(1 0 0 1 3075.76 1701)">•<tspan font-family="Times New Roman,Times New Roman_MSFontService,sans-serif" font-size="55" x="103.125" y="0">Open5GS</tspan></text><path d="M30.2444 0 193.755 0C210.459-7.12956e-15 224 13.5409 224 30.2445L224 74.9999 0 74.9999 0 30.2445C-3.56477e-15 13.5409 13.5409-3.56478e-15 30.2444-7.12956e-15Z" fill="#E6E6E6" fill-rule="evenodd" transform="matrix(-1.83697e-16 -1 -1 1.83697e-16 3565 1493)"/><path d="M3000 1299.06C3000 1283.01 3013.01 1270 3029.06 1270L3535.94 1270C3551.99 1270 3565 1283.01 3565 1299.06L3565 1464.94C3565 1480.99 3551.99 1494 3535.94 1494L3029.06 1494C3013.01 1494 3000 1480.99 3000 1464.94Z" stroke="#000000" stroke-width="10.3125" stroke-miterlimit="8" fill="none" fill-rule="evenodd"/><path d="M0 0 398.877 0 398.877 59.6562" stroke="#000000" stroke-width="10.3125" stroke-linejoin="round" stroke-miterlimit="10" fill="none" fill-rule="evenodd" transform="matrix(-1.83697e-16 -1 -1 1.83697e-16 2303.66 1268.88)"/><path d="M991 662.172C991 646.06 1004.06 633 1020.17 633L2224.83 633C2240.94 633 2254 646.06 2254 662.172L2254 937.828C2254 953.939 2240.94 967 2224.83 967L1020.17 967C1004.06 967 991 953.939 991 937.828Z" stroke="#000000" stroke-width="10.3125" stroke-miterlimit="8" fill="#F2F2F2" fill-rule="evenodd"/><text font-family="Times New Roman,Times New Roman_MSFontService,sans-serif" font-weight="700" font-size="64" transform="matrix(1 0 0 1 1154.28 1055)">Near<tspan font-size="64" x="135.781" y="0">-</tspan><tspan font-size="64" x="156.979" y="0">RT RAN Intelligent Controller</tspan><tspan font-family="Arial,Arial_MSFontService,sans-serif" font-weight="400" font-size="55" x="189.431" y="65">•</tspan><tspan font-weight="400" font-size="55" x="292.556" y="65">O</tspan><tspan font-weight="400" font-size="55" x="332.087" y="65">-</tspan><tspan font-weight="400" font-size="55" x="350.421" y="65">RAN SC RIC</tspan><tspan font-family="Arial,Arial_MSFontService,sans-serif" font-weight="400" font-size="55" x="189.431" y="131">•</tspan><tspan font-weight="400" font-size="55" x="292.556" y="131">FlexRIC</tspan></text><path d="M2254 729 2609.47 729" stroke="#000000" stroke-width="10.3125" stroke-miterlimit="8" fill="none" fill-rule="evenodd"/><text font-family="Times New Roman,Times New Roman_MSFontService,sans-serif" font-style="italic" font-weight="400" font-size="55" transform="matrix(1 0 0 1 2363.45 709)">Policy<tspan font-size="55" x="-39.2905" y="471">RC</tspan><tspan font-size="55" x="-39.2905" y="537">KPM</tspan></text><path d="M1308 826.531C1308 818.506 1314.51 812 1322.53 812L1739.47 812C1747.49 812 1754 818.506 1754 826.531L1754 909.469C1754 917.494 1747.49 924 1739.47 924L1322.53 924C1314.51 924 1308 917.494 1308 909.469Z" stroke="#000000" stroke-width="10.3125" stroke-miterlimit="8" fill="#D9D9D9" fill-rule="evenodd"/><text font-family="Times New Roman,Times New Roman_MSFontService,sans-serif" font-weight="400" font-size="64" transform="matrix(1 0 0 1 1366.36 890)">KPI Monitor</text><path d="M1778 688.531C1778 680.506 1784.51 674 1792.53 674L2208.47 674C2216.49 674 2223 680.506 2223 688.531L2223 771.47C2223 779.495 2216.49 786 2208.47 786L1792.53 786C1784.51 786 1778 779.495 1778 771.47Z" stroke="#000000" stroke-width="10.3125" stroke-miterlimit="8" fill="#D9D9D9" fill-rule="evenodd"/><text font-family="Times New Roman,Times New Roman_MSFontService,sans-serif" font-weight="400" font-size="64" transform="matrix(1 0 0 1 1796.62 753)">Traffic Steering</text><path d="M1308 688.531C1308 680.506 1314.51 674 1322.53 674L1739.47 674C1747.49 674 1754 680.506 1754 688.531L1754 771.469C1754 779.494 1747.49 786 1739.47 786L1322.53 786C1314.51 786 1308 779.494 1308 771.469Z" stroke="#000000" stroke-width="10.3125" stroke-miterlimit="8" fill="#D9D9D9" fill-rule="evenodd"/><text font-family="Times New Roman,Times New Roman_MSFontService,sans-serif" font-weight="400" font-size="64" transform="matrix(1 0 0 1 1332.56 753)">QoE<tspan font-size="64" x="133.49" y="0">Prediction</tspan></text><path d="M1778 826.531C1778 818.506 1784.51 812 1792.53 812L2208.47 812C2216.49 812 2223 818.506 2223 826.531L2223 909.469C2223 917.494 2216.49 924 2208.47 924L1792.53 924C1784.51 924 1778 917.494 1778 909.469Z" stroke="#000000" stroke-width="10.3125" stroke-miterlimit="8" fill="#D9D9D9" fill-rule="evenodd"/><text font-family="Times New Roman,Times New Roman_MSFontService,sans-serif" font-weight="400" font-size="64" transform="matrix(1 0 0 1 1826.41 890)">RAN Control</text><path d="M3289 718.531C3289 710.506 3295.51 704 3303.53 704L3487.47 704C3495.49 704 3502 710.506 3502 718.531L3502 801.469C3502 809.494 3495.49 816 3487.47 816L3303.53 816C3295.51 816 3289 809.494 3289 801.469Z" stroke="#000000" stroke-width="10.3125" stroke-miterlimit="8" fill="#FFFFFF" fill-rule="evenodd"/><text font-family="Times New Roman,Times New Roman_MSFontService,sans-serif" font-weight="400" font-size="64" transform="matrix(1 0 0 1 3316.78 783)">rApps</text><path d="M2706 718.531C2706 710.506 2712.51 704 2720.53 704L3249.47 704C3257.49 704 3264 710.506 3264 718.531L3264 801.469C3264 809.494 3257.49 816 3249.47 816L2720.53 816C2712.51 816 2706 809.494 2706 801.469Z" stroke="#000000" stroke-width="10.3125" stroke-miterlimit="8" fill="#FFFFFF" fill-rule="evenodd"/><text font-family="Times New Roman,Times New Roman_MSFontService,sans-serif" font-weight="400" font-size="64" transform="matrix(1 0 0 1 2727.06 783)">Policy Management<tspan font-size="64" x="-1691.88" y="-58">xApps</tspan></text><path d="M0 0 145.823 0 145.823 53.4146 291.645 53.4146" stroke="#000000" stroke-width="10.3125" stroke-linejoin="round" stroke-miterlimit="10" fill="none" fill-rule="evenodd" transform="matrix(1 0 0 -1 2708 1382.41)"/><path d="M0 3.99995C-4.45588e-16 1.79084 1.56697 -5.09247e-16 3.49993-1.01849e-15 5.43289-2.03699e-15 6.99987 1.79084 6.99987 3.99995 6.99987 6.20906 5.43289 7.9999 3.49993 7.9999 1.56697 7.9999-2.22794e-15 6.20906 0 3.99995Z" fill-rule="evenodd" transform="matrix(1 0 0 -1 3508 1385)"/><path d="M0 3.99995C-5.09247e-16 1.79084 1.79084 -5.09247e-16 3.99995-1.01849e-15 6.20906-2.03699e-15 7.9999 1.79084 7.9999 3.99995 7.9999 6.20906 6.20906 7.9999 3.99995 7.9999 1.79084 7.9999-2.54624e-15 6.20906 0 3.99995Z" fill-rule="evenodd" transform="matrix(1 0 0 -1 3521 1385)"/><path d="M0 3.99995C-5.09247e-16 1.79084 1.79084 -5.09247e-16 3.99995-1.01849e-15 6.20906-2.03699e-15 7.9999 1.79084 7.9999 3.99995 7.9999 6.20906 6.20906 7.9999 3.99995 7.9999 1.79084 7.9999-2.54624e-15 6.20906 0 3.99995Z" fill-rule="evenodd" transform="matrix(1 0 0 -1 3535 1385)"/><path d="M0 3.49993C-4.45588e-16 1.56697 1.56697 -4.45588e-16 3.49993 -8.91177e-16 5.43289-1.78235e-15 6.99987 1.56697 6.99987 3.49993 6.99987 5.43289 5.43289 6.99987 3.49993 6.99987 1.56697 6.99987-2.22794e-15 5.43289 0 3.49993Z" fill-rule="evenodd" transform="matrix(1 0 0 -1 3469 914)"/><path d="M0 3.49993C-4.45611e-16 1.56697 1.56705 -4.45588e-16 3.50011 -8.91177e-16 5.43317-1.78235e-15 7.00023 1.56697 7.00023 3.49993 7.00023 5.43289 5.43317 6.99987 3.50011 6.99987 1.56705 6.99987-2.22806e-15 5.43289 0 3.49993Z" fill-rule="evenodd" transform="matrix(1 0 0 -1 3483 914)"/><path d="M0 3.49993C-4.45588e-16 1.56697 1.56697 -4.45588e-16 3.49993 -8.91177e-16 5.43289-1.78235e-15 6.99987 1.56697 6.99987 3.49993 6.99987 5.43289 5.43289 6.99987 3.49993 6.99987 1.56697 6.99987-2.22794e-15 5.43289 0 3.49993Z" fill-rule="evenodd" transform="matrix(1 0 0 -1 3497 914)"/><path d="M0 3.50011C-4.45611e-16 1.56705 1.56705 -4.45611e-16 3.50011 -8.91223e-16 5.43317-1.78245e-15 7.00023 1.56705 7.00023 3.50011 7.00023 5.43317 5.43317 7.00023 3.50011 7.00023 1.56705 7.00023-2.22806e-15 5.43317 0 3.50011Z" fill-rule="evenodd" transform="matrix(1 0 0 -1 1053 916)"/><path d="M0 3.50011C-4.45588e-16 1.56705 1.56697 -4.45611e-16 3.49993 -8.91223e-16 5.43289-1.78245e-15 6.99987 1.56705 6.99987 3.50011 6.99987 5.43317 5.43289 7.00023 3.49993 7.00023 1.56697 7.00023-2.22794e-15 5.43317 0 3.50011Z" fill-rule="evenodd" transform="matrix(1 0 0 -1 1067 916)"/><path d="M0 3.50011C-4.45588e-16 1.56705 1.56697 -4.45611e-16 3.49993 -8.91223e-16 5.43289-1.78245e-15 6.99987 1.56705 6.99987 3.50011 6.99987 5.43317 5.43289 7.00023 3.49993 7.00023 1.56697 7.00023-2.22794e-15 5.43317 0 3.50011Z" fill-rule="evenodd" transform="matrix(1 0 0 -1 1081 916)"/><text font-family="Times New Roman,Times New Roman_MSFontService,sans-serif" font-style="italic" font-weight="400" font-size="55" transform="matrix(1 0 0 1 2719.97 1441)">Tunnel from <tspan font-size="55" x="0" y="66">UPF to UE</tspan><tspan font-size="55" x="0" y="132">for internet</tspan></text></g></svg>