<svg width="4047" height="1127" xmlns="http://www.w3.org/2000/svg" xmlns:xlink="http://www.w3.org/1999/xlink" xml:space="preserve" overflow="hidden"><g transform="translate(-177 -684)"><path d="M179.5 717.438C179.5 700.352 193.351 686.5 210.438 686.5L4190.56 686.5C4207.65 686.5 4221.5 700.352 4221.5 717.438L4221.5 1758.56C4221.5 1775.65 4207.65 1789.5 4190.56 1789.5L210.438 1789.5C193.351 1789.5 179.5 1775.65 179.5 1758.56Z" stroke="#000000" stroke-width="4.58333" stroke-miterlimit="8" fill="#FFFFFF" fill-rule="evenodd"/><path d="M221 914.196C221 892.549 238.549 875 260.197 875L989.803 875C1011.45 875 1029 892.549 1029 914.196L1029 1504.79C1029 1526.44 1011.45 1543.99 989.803 1543.99L260.197 1543.99C238.549 1543.99 221 1526.44 221 1504.79Z" fill="#D9D9D9" fill-rule="evenodd"/><path d="M995.488 1324 254.512 1324C236.004 1324 221 1309 221 1290.49L221 1208 1029 1208 1029 1290.49C1029 1309 1014 1324 995.488 1324Z" fill="#F2F2F2" fill-rule="evenodd"/><rect x="221" y="983" width="808" height="117" fill="#F2F2F2"/><text font-family="Times New Roman,Times New Roman_MSFontService,sans-serif" font-weight="400" font-size="64" transform="matrix(1 0 0 1 462.528 1178)">OAI : USRP</text><text font-family="Times New Roman,Times New Roman_MSFontService,sans-serif" font-weight="400" font-size="64" transform="matrix(1 0 0 1 328.466 1068)">srsRAN_4G : </text><text font-family="Times New Roman,Times New Roman_MSFontService,sans-serif" font-weight="400" font-size="64" transform="matrix(1 0 0 1 696.278 1068)">ZeroMQ</text><text font-family="Times New Roman,Times New Roman_MSFontService,sans-serif" font-weight="400" font-size="64" transform="matrix(1 0 0 1 359.69 957)">srsRAN_4G : USRP</text><text font-family="Times New Roman,Times New Roman_MSFontService,sans-serif" font-weight="400" font-size="64" transform="matrix(1 0 0 1 430.445 1399)">OAI : </text><text font-family="Times New Roman,Times New Roman_MSFontService,sans-serif" font-weight="400" font-size="64" transform="matrix(1 0 0 1 594.299 1399)">ZeroMQ</text><rect x="221" y="1208" width="808" height="117" fill="#F2F2F2"/><text font-family="Times New Roman,Times New Roman_MSFontService,sans-serif" font-weight="400" font-size="64" transform="matrix(1 0 0 1 369.143 1288)">OAI : RF Simulator</text><path d="M995.199 1544 254.801 1544C236.133 1544 221 1528.87 221 1510.2L221 1427 1029 1427 1029 1510.2C1029 1528.87 1013.87 1544 995.199 1544Z" fill="#F2F2F2" fill-rule="evenodd"/><text font-family="Times New Roman,Times New Roman_MSFontService,sans-serif" font-weight="400" font-size="64" transform="matrix(1 0 0 1 396.356 1508)">5G </text><text font-family="Times New Roman,Times New Roman_MSFontService,sans-serif" font-weight="400" font-size="64" transform="matrix(1 0 0 1 490.887 1508)">Mobile Phone</text><path d="M221.5 909.562C221.5 890.75 236.75 875.5 255.562 875.5L995.438 875.5C1014.25 875.5 1029.5 890.75 1029.5 909.562L1029.5 1506.44C1029.5 1525.25 1014.25 1540.5 995.438 1540.5L255.562 1540.5C236.75 1540.5 221.5 1525.25 221.5 1506.44Z" stroke="#000000" stroke-width="4.58333" stroke-miterlimit="8" fill="none" fill-rule="evenodd"/><text font-family="Times New Roman,Times New Roman_MSFontService,sans-serif" font-weight="700" font-size="64" transform="matrix(1 0 0 1 408.723 1620)">User Equipment</text><path d="M1271 914.196C1271 892.549 1288.55 875 1310.2 875L2039.8 875C2061.45 875 2079 892.549 2079 914.196L2079 1504.79C2079 1526.44 2061.45 1543.99 2039.8 1543.99L1310.2 1543.99C1288.55 1543.99 1271 1526.44 1271 1504.79Z" fill="#D9D9D9" fill-rule="evenodd"/><path d="M2045.49 1324 1304.51 1324C1286 1324 1271 1309 1271 1290.49L1271 1208 2079 1208 2079 1290.49C2079 1309 2064 1324 2045.49 1324Z" fill="#F2F2F2" fill-rule="evenodd"/><rect x="1271" y="983" width="808" height="117" fill="#F2F2F2"/><text font-family="Times New Roman,Times New Roman_MSFontService,sans-serif" font-weight="400" font-size="64" transform="matrix(1 0 0 1 1512.82 1178)">OAI : USRP</text><text font-family="Times New Roman,Times New Roman_MSFontService,sans-serif" font-weight="400" font-size="64" transform="matrix(1 0 0 1 1423.44 1068)">OCUDU : </text><text font-family="Times New Roman,Times New Roman_MSFontService,sans-serif" font-weight="400" font-size="64" transform="matrix(1 0 0 1 1701.88 1068)">ZeroMQ</text><text font-family="Times New Roman,Times New Roman_MSFontService,sans-serif" font-weight="400" font-size="64" transform="matrix(1 0 0 1 1454.67 957)">OCUDU : USRP</text><text font-family="Times New Roman,Times New Roman_MSFontService,sans-serif" font-weight="400" font-size="64" transform="matrix(1 0 0 1 1480.74 1399)">OAI : </text><text font-family="Times New Roman,Times New Roman_MSFontService,sans-serif" font-weight="400" font-size="64" transform="matrix(1 0 0 1 1644.59 1399)">ZeroMQ</text><rect x="1271" y="1208" width="808" height="117" fill="#F2F2F2"/><text font-family="Times New Roman,Times New Roman_MSFontService,sans-serif" font-weight="400" font-size="64" transform="matrix(1 0 0 1 1419.43 1288)">OAI : RF Simulator</text><path d="M2045.2 1544 1304.8 1544C1286.13 1544 1271 1528.87 1271 1510.2L1271 1427 2079 1427 2079 1510.2C2079 1528.87 2063.87 1544 2045.2 1544Z" fill="#F2F2F2" fill-rule="evenodd"/><text font-family="Times New Roman,Times New Roman_MSFontService,sans-serif" font-weight="400" font-size="64" transform="matrix(1 0 0 1 1331.2 1508)">O</text><text font-family="Times New Roman,Times New Roman_MSFontService,sans-serif" font-weight="400" font-size="64" transform="matrix(1 0 0 1 1377.61 1508)">-</text><text font-family="Times New Roman,Times New Roman_MSFontService,sans-serif" font-weight="400" font-size="64" transform="matrix(1 0 0 1 1398.81 1508)">RAN SC : E2 Simulator</text><path d="M1271.5 909.562C1271.5 890.75 1286.75 875.5 1305.56 875.5L2045.44 875.5C2064.25 875.5 2079.5 890.75 2079.5 909.562L2079.5 1506.44C2079.5 1525.25 2064.25 1540.5 2045.44 1540.5L1305.56 1540.5C1286.75 1540.5 1271.5 1525.25 1271.5 1506.44Z" stroke="#000000" stroke-width="4.58333" stroke-miterlimit="8" fill="none" fill-rule="evenodd"/><text font-family="Times New Roman,Times New Roman_MSFontService,sans-serif" font-weight="700" font-size="64" transform="matrix(1 0 0 1 1347.86 1620)">Next Generation Node B</text><path d="M2079.5 1485.5 2316.9 1512.16" stroke="#000000" stroke-width="4.58333" stroke-miterlimit="8" fill="none" fill-rule="evenodd"/><path d="M1028.5 934.5 1270.66 934.501" stroke="#000000" stroke-width="4.58333" stroke-miterlimit="8" stroke-dasharray="4.58333 4.58333" fill="none" fill-rule="evenodd"/><path d="M1029.5 1045.5 1271.66 1045.5" stroke="#000000" stroke-width="4.58333" stroke-miterlimit="8" fill="none" fill-rule="evenodd"/><path d="M0 0 244.261 550.592" stroke="#000000" stroke-width="4.58333" stroke-miterlimit="8" stroke-dasharray="4.58333 4.58333" fill="none" fill-rule="evenodd" transform="matrix(1 0 0 -1 1029.5 1485.09)"/><path d="M1029.5 1265.5 1271.66 1265.5" stroke="#000000" stroke-width="4.58333" stroke-miterlimit="8" fill="none" fill-rule="evenodd"/><path d="M1029.5 1155.5 1271.66 1155.5" stroke="#000000" stroke-width="4.58333" stroke-miterlimit="8" stroke-dasharray="4.58333 4.58333" fill="none" fill-rule="evenodd"/><path d="M2087.5 887.5C2095.51 887.5 2102 899.043 2102 913.281L2102 965.719C2102 979.958 2108.49 991.5 2116.5 991.5 2108.49 991.5 2102 1003.04 2102 1017.28L2102 1069.72C2102 1083.96 2095.51 1095.5 2087.5 1095.5" stroke="#000000" stroke-width="4.58333" stroke-miterlimit="8" fill="none" fill-rule="evenodd"/><path d="M2087.5 1109.5C2095.51 1109.5 2102 1121.04 2102 1135.28L2102 1237.72C2102 1251.96 2108.49 1263.5 2116.5 1263.5 2108.49 1263.5 2102 1275.04 2102 1289.28L2102 1391.72C2102 1405.96 2095.51 1417.5 2087.5 1417.5" stroke="#000000" stroke-width="4.58333" stroke-miterlimit="8" fill="none" fill-rule="evenodd"/><path d="M3355.5 1379.24C3355.5 1360.05 3371.05 1344.5 3390.24 1344.5L4129.76 1344.5C4148.95 1344.5 4164.5 1360.05 4164.5 1379.24L4164.5 1429.76C4164.5 1448.95 4148.95 1464.5 4129.76 1464.5L3390.24 1464.5C3371.05 1464.5 3355.5 1448.95 3355.5 1429.76Z" stroke="#000000" stroke-width="4.58333" stroke-miterlimit="8" fill="#D9D9D9" fill-rule="evenodd"/><text font-family="Times New Roman,Times New Roman_MSFontService,sans-serif" font-weight="400" font-size="64" transform="matrix(1 0 0 1 3419.52 1427)">O</text><text font-family="Times New Roman,Times New Roman_MSFontService,sans-serif" font-weight="400" font-size="64" transform="matrix(1 0 0 1 3465.93 1427)">-</text><text font-family="Times New Roman,Times New Roman_MSFontService,sans-serif" font-weight="400" font-size="64" transform="matrix(1 0 0 1 3487.13 1427)">RAN SC : Non</text><text font-family="Times New Roman,Times New Roman_MSFontService,sans-serif" font-weight="400" font-size="64" transform="matrix(1 0 0 1 3877.86 1427)">-</text><text font-family="Times New Roman,Times New Roman_MSFontService,sans-serif" font-weight="400" font-size="64" transform="matrix(1 0 0 1 3899.06 1427)">RT RIC</text><text font-family="Times New Roman,Times New Roman_MSFontService,sans-serif" font-weight="700" font-size="64" transform="matrix(1 0 0 1 3604.58 1545)">Non</text><text font-family="Times New Roman,Times New Roman_MSFontService,sans-serif" font-weight="700" font-size="64" transform="matrix(1 0 0 1 3718.59 1545)">-</text><text font-family="Times New Roman,Times New Roman_MSFontService,sans-serif" font-weight="700" font-size="64" transform="matrix(1 0 0 1 3739.79 1545)">RT RIC</text><rect x="3174.5" y="728.5" width="1006" height="189" stroke="#000000" stroke-width="4.58333" stroke-miterlimit="8" fill="#FFFFFF"/><path d="M3208.5 777.5 3284.46 777.5" stroke="#000000" stroke-width="4.58333" stroke-miterlimit="8" fill="none" fill-rule="evenodd"/><text font-family="Times New Roman,Times New Roman_MSFontService,sans-serif" font-weight="400" font-size="64" transform="matrix(1 0 0 1 3305.47 799)">Supported by default installation</text><text font-family="Times New Roman,Times New Roman_MSFontService,sans-serif" font-weight="400" font-size="64" transform="matrix(1 0 0 1 3305.47 876)">Supported after adjusting configs</text><path d="M3208.5 855.5 3284.46 855.5" stroke="#000000" stroke-width="4.58333" stroke-miterlimit="8" stroke-dasharray="4.58333 4.58333" fill="none" fill-rule="evenodd"/><path d="M0 0 239.784 333.293" stroke="#000000" stroke-width="4.58333" stroke-miterlimit="8" stroke-dasharray="4.58333 4.58333" fill="none" fill-rule="evenodd" transform="matrix(1 0 0 -1 1029.5 1485.79)"/><text font-family="Times New Roman,Times New Roman_MSFontService,sans-serif" font-weight="700" font-size="64" transform="matrix(1 0 0 1 2533.17 1757)">Near</text><text font-family="Times New Roman,Times New Roman_MSFontService,sans-serif" font-weight="700" font-size="64" transform="matrix(1 0 0 1 2666.57 1757)">-</text><text font-family="Times New Roman,Times New Roman_MSFontService,sans-serif" font-weight="700" font-size="64" transform="matrix(1 0 0 1 2687.77 1757)">RT RIC</text><path d="M2316 1375.52C2316 1358.11 2330.11 1344 2347.52 1344L3093.48 1344C3110.89 1344 3125 1358.11 3125 1375.52L3125 1645.48C3125 1662.89 3110.89 1677 3093.48 1677L2347.52 1677C2330.11 1677 2316 1662.89 2316 1645.48Z" fill="#D9D9D9" fill-rule="evenodd"/><rect x="2316" y="1452" width="809" height="117" fill="#F2F2F2"/><path d="M2316.5 1377.4C2316.5 1359.23 2331.23 1344.5 2349.4 1344.5L3092.6 1344.5C3110.77 1344.5 3125.5 1359.23 3125.5 1377.4L3125.5 1644.6C3125.5 1662.77 3110.77 1677.5 3092.6 1677.5L2349.4 1677.5C2331.23 1677.5 2316.5 1662.77 2316.5 1644.6Z" stroke="#000000" stroke-width="4.58333" stroke-miterlimit="8" fill="none" fill-rule="evenodd"/><text font-family="Times New Roman,Times New Roman_MSFontService,sans-serif" font-weight="400" font-size="64" transform="matrix(1 0 0 1 2450.93 1643)">Mosaic5G : FlexRIC</text><text font-family="Times New Roman,Times New Roman_MSFontService,sans-serif" font-weight="400" font-size="64" transform="matrix(1 0 0 1 2374.15 1535)">O</text><text font-family="Times New Roman,Times New Roman_MSFontService,sans-serif" font-weight="400" font-size="64" transform="matrix(1 0 0 1 2420.56 1535)">-</text><text font-family="Times New Roman,Times New Roman_MSFontService,sans-serif" font-weight="400" font-size="64" transform="matrix(1 0 0 1 2441.76 1535)">RAN SC : Near</text><text font-family="Times New Roman,Times New Roman_MSFontService,sans-serif" font-weight="400" font-size="64" transform="matrix(1 0 0 1 2845.53 1535)">-</text><text font-family="Times New Roman,Times New Roman_MSFontService,sans-serif" font-weight="400" font-size="64" transform="matrix(1 0 0 1 2866.73 1535)">RT RIC</text><text font-family="Times New Roman,Times New Roman_MSFontService,sans-serif" font-weight="400" font-size="64" transform="matrix(1 0 0 1 2374.77 1427)">O</text><text font-family="Times New Roman,Times New Roman_MSFontService,sans-serif" font-weight="400" font-size="64" transform="matrix(1 0 0 1 2421.18 1427)">-</text><text font-family="Times New Roman,Times New Roman_MSFontService,sans-serif" font-weight="400" font-size="64" transform="matrix(1 0 0 1 2442.38 1427)">RAN SC : A1 Simulator</text><path d="M3091.2 1173 2349.8 1173C2331.13 1173 2316 1157.87 2316 1139.2L2316 1056 3125 1056 3125 1139.2C3125 1157.87 3109.87 1173 3091.2 1173Z" fill="#F2F2F2" fill-rule="evenodd"/><path d="M2348.35 723 3092.65 723C3110.52 723 3125 737.484 3125 755.351L3125 1056 2316 1056 2316 755.351C2316 737.484 2330.48 723 2348.35 723Z" fill="#D9D9D9" fill-rule="evenodd"/><rect x="2316" y="831" width="809" height="117" fill="#F2F2F2"/><path d="M2316.5 756.948C2316.5 738.475 2331.48 723.5 2349.95 723.5L3092.05 723.5C3110.52 723.5 3125.5 738.475 3125.5 756.948L3125.5 1140.05C3125.5 1158.52 3110.52 1173.5 3092.05 1173.5L2349.95 1173.5C2331.48 1173.5 2316.5 1158.52 2316.5 1140.05Z" stroke="#000000" stroke-width="4.58333" stroke-miterlimit="8" fill="none" fill-rule="evenodd"/><text font-family="Times New Roman,Times New Roman_MSFontService,sans-serif" font-weight="400" font-size="64" transform="matrix(1 0 0 1 2400.51 1021)">Open5GCore (5gdeploy)</text><text font-family="Times New Roman,Times New Roman_MSFontService,sans-serif" font-weight="400" font-size="64" transform="matrix(1 0 0 1 2454.08 914)">Free5GC (5gdeploy)</text><text font-family="Times New Roman,Times New Roman_MSFontService,sans-serif" font-weight="400" font-size="64" transform="matrix(1 0 0 1 2414.83 806)">OAI 5G CN (5gdeploy)</text><text font-family="Times New Roman,Times New Roman_MSFontService,sans-serif" font-weight="400" font-size="64" transform="matrix(1 0 0 1 2593.87 1137)">Open5GS</text><text font-family="Times New Roman,Times New Roman_MSFontService,sans-serif" font-weight="700" font-size="64" transform="matrix(1 0 0 1 2499.31 1237)">5G Core Network</text><path d="M2116.5 1263.5 2316.49 1512.23" stroke="#000000" stroke-width="4.58333" stroke-miterlimit="8" stroke-dasharray="4.58333 4.58333" fill="none" fill-rule="evenodd"/><path d="M2116.5 991.5 2316.49 1114.17" stroke="#000000" stroke-width="4.58333" stroke-miterlimit="8" fill="none" fill-rule="evenodd"/><path d="M0 0 199.991 149.091" stroke="#000000" stroke-width="4.58333" stroke-miterlimit="8" fill="none" fill-rule="evenodd" transform="matrix(1 0 0 -1 2116.5 1263.59)"/><path d="M2116.5 1263.5 2316.49 1620.15" stroke="#000000" stroke-width="4.58333" stroke-miterlimit="8" fill="none" fill-rule="evenodd"/><path d="M2116.5 991.5 2316.49 1619.9" stroke="#000000" stroke-width="4.58333" stroke-miterlimit="8" stroke-dasharray="4.58333 4.58333" fill="none" fill-rule="evenodd"/><path d="M0 0 199.991 372.418" stroke="#000000" stroke-width="4.58333" stroke-miterlimit="8" stroke-dasharray="4.58333 4.58333" fill="none" fill-rule="evenodd" transform="matrix(1 0 0 -1 2116.5 1263.92)"/><path d="M0 0 199.99 480.334" stroke="#000000" stroke-width="4.58333" stroke-miterlimit="8" stroke-dasharray="4.58333 4.58333" fill="none" fill-rule="evenodd" transform="matrix(1 0 0 -1 2116.5 1263.83)"/><path d="M2116.5 991.5 2316.49 998.756" stroke="#000000" stroke-width="4.58333" stroke-miterlimit="8" stroke-dasharray="4.58333 4.58333" fill="none" fill-rule="evenodd"/><path d="M0 0 199.991 100.66" stroke="#000000" stroke-width="4.58333" stroke-miterlimit="8" stroke-dasharray="4.58333 4.58333" fill="none" fill-rule="evenodd" transform="matrix(1 0 0 -1 2116.5 992.16)"/><path d="M0 0 199.99 208.577" stroke="#000000" stroke-width="4.58333" stroke-miterlimit="8" stroke-dasharray="4.58333 4.58333" fill="none" fill-rule="evenodd" transform="matrix(1 0 0 -1 2116.5 992.077)"/><path d="M0 0 199.991 264.502" stroke="#000000" stroke-width="4.58333" stroke-miterlimit="8" stroke-dasharray="4.58333 4.58333" fill="none" fill-rule="evenodd" transform="matrix(1 0 0 -1 2116.5 1263)"/><path d="M2116.5 991.5 2316.49 1511.99" stroke="#000000" stroke-width="4.58333" stroke-miterlimit="8" fill="none" fill-rule="evenodd"/><path d="M0 0 230.864 107.201" stroke="#000000" stroke-width="4.58333" stroke-miterlimit="8" stroke-dasharray="4.58333 4.58333" fill="none" fill-rule="evenodd" transform="matrix(1 0 0 -1 3125.5 1511.7)"/><path d="M3125.5 1404.5 3356.36 1405.22" stroke="#000000" stroke-width="4.58333" stroke-miterlimit="8" fill="none" fill-rule="evenodd"/><path d="M1029.5 1376.5 1271.66 1376.5" stroke="#000000" stroke-width="4.58333" stroke-miterlimit="8" stroke-dasharray="4.58333 4.58333" fill="none" fill-rule="evenodd"/><path d="M0 0 242.165 330.933" stroke="#000000" stroke-width="4.58333" stroke-miterlimit="8" stroke-dasharray="4.58333 4.58333" fill="none" fill-rule="evenodd" transform="matrix(1 0 0 -1 1029.5 1376.43)"/></g></svg>