<svg width="4046" height="726" xmlns="http://www.w3.org/2000/svg" xmlns:xlink="http://www.w3.org/1999/xlink" xml:space="preserve" overflow="hidden"><g transform="translate(-206 -745)"><path d="M208.5 774.851C208.5 759.746 220.746 747.5 235.851 747.5L4222.15 747.5C4237.25 747.5 4249.5 759.746 4249.5 774.851L4249.5 1422.15C4249.5 1437.25 4237.25 1449.5 4222.15 1449.5L235.851 1449.5C220.746 1449.5 208.5 1437.25 208.5 1422.15Z" stroke="#FFFFFF" stroke-width="4.58333" stroke-miterlimit="8" fill="#0D1117" fill-rule="evenodd"/><path d="M2145.5 1125.5 2345.49 1175.93" stroke="#FF7B61" stroke-width="4.58333" stroke-miterlimit="8" stroke-dasharray="4.58333 4.58333" fill="none" fill-rule="evenodd"/><path d="M2345.5 819.236C2345.5 800.052 2361.05 784.5 2380.24 784.5L3118.76 784.5C3137.95 784.5 3153.5 800.052 3153.5 819.236L3153.5 869.764C3153.5 888.948 3137.95 904.5 3118.76 904.5L2380.24 904.5C2361.05 904.5 2345.5 888.948 2345.5 869.764Z" stroke="#FFFFFF" stroke-width="4.58333" stroke-miterlimit="8" fill="#262626" fill-rule="evenodd"/><text fill="#FFFFFF" font-family="Times New Roman,Times New Roman_MSFontService,sans-serif" font-weight="400" font-size="64" transform="matrix(1 0 0 1 2622.65 863)">Open5GS</text><path d="M1057.5 843.5 1301.76 843.5" stroke="#FFFFFF" stroke-width="4.58333" stroke-miterlimit="8" stroke-dasharray="4.58333 4.58333" fill="none" fill-rule="evenodd"/><path d="M1058.5 953.5 1303.45 953.5" stroke="#FFFFFF" stroke-width="4.58333" stroke-miterlimit="8" fill="none" fill-rule="evenodd"/><path d="M0 0 244.259 441.244" stroke="#FFFFFF" stroke-width="4.58333" stroke-miterlimit="8" stroke-dasharray="4.58333 4.58333" fill="none" fill-rule="evenodd" transform="matrix(1 0 0 -1 1057.5 1284.74)"/><path d="M1057.5 1174.5 1303.13 1174.5" stroke="#FFFFFF" stroke-width="4.58333" stroke-miterlimit="8" fill="none" fill-rule="evenodd"/><path d="M1057.5 1064.5 1297.56 1064.5" stroke="#FFFFFF" stroke-width="4.58333" stroke-miterlimit="8" stroke-dasharray="4.58333 4.58333" fill="none" fill-rule="evenodd"/><path d="M3153.5 1172.5 3384.36 1277.45" stroke="#FFFFFF" stroke-width="4.58333" stroke-miterlimit="8" stroke-dasharray="4.58333 4.58333" fill="none" fill-rule="evenodd"/><path d="M0 0 200.267 60.2568" stroke="#FFFFFF" stroke-width="4.58333" stroke-miterlimit="8" fill="none" fill-rule="evenodd" transform="matrix(1 0 0 -1 2145.5 900.757)"/><path d="M0 0 200.267 281.61" stroke="#FFFFFF" stroke-width="4.58333" stroke-miterlimit="8" fill="none" fill-rule="evenodd" transform="matrix(1 0 0 -1 2145.5 1122.11)"/><path d="M2145.5 903.5 2345.49 1175.28" stroke="#FFFFFF" stroke-width="4.58333" stroke-miterlimit="8" fill="none" fill-rule="evenodd"/><path d="M2145.5 1121.5 2345.49 1281.26" stroke="#FFFFFF" stroke-width="4.58333" stroke-miterlimit="8" fill="none" fill-rule="evenodd"/><path d="M0 0 245.633 109.264" stroke="#FFFFFF" stroke-width="4.58333" stroke-miterlimit="8" fill="none" fill-rule="evenodd" transform="matrix(1 0 0 -1 2099.5 1284.76)"/><path d="M2145.5 900.5 2345.49 1281.61" stroke="#FFFFFF" stroke-width="4.58333" stroke-miterlimit="8" stroke-dasharray="4.58333 4.58333" fill="none" fill-rule="evenodd"/><rect x="3203.5" y="790.5" width="1005" height="254" stroke="#FFFFFF" stroke-width="4.58333" stroke-miterlimit="8" fill="#0D1117"/><path d="M3236.5 839.5 3312.46 839.5" stroke="#FFFFFF" stroke-width="4.58333" stroke-miterlimit="8" fill="none" fill-rule="evenodd"/><text fill="#FFFFFF" font-family="Times New Roman,Times New Roman_MSFontService,sans-serif" font-weight="400" font-size="64" transform="matrix(1 0 0 1 3334.11 861)">Supported by default installation</text><text fill="#FFFFFF" font-family="Times New Roman,Times New Roman_MSFontService,sans-serif" font-weight="400" font-size="64" transform="matrix(1 0 0 1 3334.11 938)">Supported after adjusting configs</text><text fill="#FFFFFF" font-family="Times New Roman,Times New Roman_MSFontService,sans-serif" font-weight="400" font-size="64" transform="matrix(1 0 0 1 3334.11 1015)">Presumably not supported</text><path d="M3236.5 917.5 3312.46 917.5" stroke="#FFFFFF" stroke-width="4.58333" stroke-miterlimit="8" stroke-dasharray="4.58333 4.58333" fill="none" fill-rule="evenodd"/><path d="M3236.5 996.5 3312.46 996.5" stroke="#FF7B61" stroke-width="4.58333" stroke-miterlimit="8" stroke-dasharray="4.58333 4.58333" fill="none" fill-rule="evenodd"/><path d="M2115.5 796.5C2123.78 796.5 2130.5 808.441 2130.5 823.17L2130.5 873.83C2130.5 888.559 2137.22 900.5 2145.5 900.5 2137.22 900.5 2130.5 912.441 2130.5 927.17L2130.5 977.83C2130.5 992.559 2123.78 1004.5 2115.5 1004.5" stroke="#FFFFFF" stroke-width="4.58333" stroke-miterlimit="8" fill="none" fill-rule="evenodd"/><path d="M2115.5 1018.5C2123.78 1018.5 2130.5 1030.44 2130.5 1045.17L2130.5 1095.33C2130.5 1110.06 2137.22 1122 2145.5 1122 2137.22 1122 2130.5 1133.94 2130.5 1148.67L2130.5 1198.83C2130.5 1213.56 2123.78 1225.5 2115.5 1225.5" stroke="#FFFFFF" stroke-width="4.58333" stroke-miterlimit="8" fill="none" fill-rule="evenodd"/><path d="M1297 816.401C1297 798.506 1311.51 784 1329.4 784L2072.6 784C2090.49 784 2105 798.506 2105 816.401L2105 1304.6C2105 1322.49 2090.49 1337 2072.6 1337L1329.4 1337C1311.51 1337 1297 1322.49 1297 1304.6Z" fill="#262626" fill-rule="evenodd"/><path d="M2071.2 1233 1330.8 1233C1312.13 1233 1297 1217.87 1297 1199.2L1297 1116 2105 1116 2105 1199.2C2105 1217.87 2089.87 1233 2071.2 1233Z" fill="#F2F2F2" fill-rule="evenodd"/><rect x="1297" y="892" width="808" height="116" fill="#3A3A3A"/><text fill="#FFFFFF" font-family="Times New Roman,Times New Roman_MSFontService,sans-serif" font-weight="400" font-size="64" transform="matrix(1 0 0 1 1539.08 1087)">OAI : USRP</text><text fill="#FFFFFF" font-family="Times New Roman,Times New Roman_MSFontService,sans-serif" font-weight="400" font-size="64" transform="matrix(1 0 0 1 1353.46 976)">srsRAN_Project</text><text fill="#FFFFFF" font-family="Times New Roman,Times New Roman_MSFontService,sans-serif" font-weight="400" font-size="64" transform="matrix(1 0 0 1 1790.59 976)">: </text><text fill="#FFFFFF" font-family="Times New Roman,Times New Roman_MSFontService,sans-serif" font-weight="400" font-size="64" transform="matrix(1 0 0 1 1824.4 976)">ZeroMQ</text><text fill="#FFFFFF" font-family="Times New Roman,Times New Roman_MSFontService,sans-serif" font-weight="400" font-size="64" transform="matrix(1 0 0 1 1384.17 866)">srsRAN_Project</text><text fill="#FFFFFF" font-family="Times New Roman,Times New Roman_MSFontService,sans-serif" font-weight="400" font-size="64" transform="matrix(1 0 0 1 1821.3 866)">: USRP</text><text fill="#FFFFFF" font-family="Times New Roman,Times New Roman_MSFontService,sans-serif" font-weight="400" font-size="64" transform="matrix(1 0 0 1 1357.47 1307)">O</text><text fill="#FFFFFF" font-family="Times New Roman,Times New Roman_MSFontService,sans-serif" font-weight="400" font-size="64" transform="matrix(1 0 0 1 1403.88 1307)">-</text><text fill="#FFFFFF" font-family="Times New Roman,Times New Roman_MSFontService,sans-serif" font-weight="400" font-size="64" transform="matrix(1 0 0 1 1425.07 1307)">RAN SC : E2 Simulator</text><text fill="#FFFFFF" font-family="Times New Roman,Times New Roman_MSFontService,sans-serif" font-weight="700" font-size="64" transform="matrix(1 0 0 1 1374.12 1417)">Next Generation Node B</text><rect x="1297" y="1114" width="808" height="120" fill="#3A3A3A"/><text fill="#FFFFFF" font-family="Times New Roman,Times New Roman_MSFontService,sans-serif" font-weight="400" font-size="64" transform="matrix(1 0 0 1 1445.7 1197)">OAI : RF Simulator</text><path d="M1297.5 816.679C1297.5 798.907 1311.91 784.5 1329.68 784.5L2073.32 784.5C2091.09 784.5 2105.5 798.907 2105.5 816.679L2105.5 1305.32C2105.5 1323.09 2091.09 1337.5 2073.32 1337.5L1329.68 1337.5C1311.91 1337.5 1297.5 1323.09 1297.5 1305.32Z" stroke="#FFFFFF" stroke-width="4.58333" stroke-miterlimit="8" fill="none" fill-rule="evenodd"/><path d="M249 816.401C249 798.506 263.506 784 281.4 784L1024.6 784C1042.49 784 1057 798.506 1057 816.401L1057 1304.6C1057 1322.49 1042.49 1337 1024.6 1337L281.4 1337C263.506 1337 249 1322.49 249 1304.6Z" fill="#262626" fill-rule="evenodd"/><path d="M1023.2 1233 282.801 1233C264.133 1233 249 1217.87 249 1199.2L249 1116 1057 1116 1057 1199.2C1057 1217.87 1041.87 1233 1023.2 1233Z" fill="#F2F2F2" fill-rule="evenodd"/><rect x="249" y="892" width="808" height="116" fill="#3A3A3A"/><text fill="#FFFFFF" font-family="Times New Roman,Times New Roman_MSFontService,sans-serif" font-weight="400" font-size="64" transform="matrix(1 0 0 1 491.175 1087)">OAI : USRP</text><text fill="#FFFFFF" font-family="Times New Roman,Times New Roman_MSFontService,sans-serif" font-weight="400" font-size="64" transform="matrix(1 0 0 1 357.8 976)">srsRAN_4G : </text><text fill="#FFFFFF" font-family="Times New Roman,Times New Roman_MSFontService,sans-serif" font-weight="400" font-size="64" transform="matrix(1 0 0 1 725.612 976)">ZeroMQ</text><text fill="#FFFFFF" font-family="Times New Roman,Times New Roman_MSFontService,sans-serif" font-weight="400" font-size="64" transform="matrix(1 0 0 1 389.196 866)">srsRAN_4G : USRP</text><text fill="#FFFFFF" font-family="Times New Roman,Times New Roman_MSFontService,sans-serif" font-weight="400" font-size="64" transform="matrix(1 0 0 1 425.003 1307)">5G </text><text fill="#FFFFFF" font-family="Times New Roman,Times New Roman_MSFontService,sans-serif" font-weight="400" font-size="64" transform="matrix(1 0 0 1 519.534 1307)">Mobile </text><text fill="#FFFFFF" font-family="Times New Roman,Times New Roman_MSFontService,sans-serif" font-weight="400" font-size="64" transform="matrix(1 0 0 1 721.201 1307)">Phone</text><text fill="#FFFFFF" font-family="Times New Roman,Times New Roman_MSFontService,sans-serif" font-weight="700" font-size="64" transform="matrix(1 0 0 1 437.369 1417)">User Equipment</text><rect x="249" y="1116" width="808" height="118" fill="#3A3A3A"/><text fill="#FFFFFF" font-family="Times New Roman,Times New Roman_MSFontService,sans-serif" font-weight="400" font-size="64" transform="matrix(1 0 0 1 397.789 1197)">OAI : RF Simulator</text><path d="M249.5 816.679C249.5 798.907 263.907 784.5 281.68 784.5L1025.32 784.5C1043.09 784.5 1057.5 798.907 1057.5 816.679L1057.5 1305.32C1057.5 1323.09 1043.09 1337.5 1025.32 1337.5L281.68 1337.5C263.907 1337.5 249.5 1323.09 249.5 1305.32Z" stroke="#FFFFFF" stroke-width="4.58333" stroke-miterlimit="8" fill="none" fill-rule="evenodd"/><path d="M3384.5 1251.24C3384.5 1232.05 3400.05 1216.5 3419.24 1216.5L4157.76 1216.5C4176.95 1216.5 4192.5 1232.05 4192.5 1251.24L4192.5 1301.76C4192.5 1320.95 4176.95 1336.5 4157.76 1336.5L3419.24 1336.5C3400.05 1336.5 3384.5 1320.95 3384.5 1301.76Z" stroke="#FFFFFF" stroke-width="4.58333" stroke-miterlimit="8" fill="#262626" fill-rule="evenodd"/><text fill="#FFFFFF" font-family="Times New Roman,Times New Roman_MSFontService,sans-serif" font-weight="400" font-size="64" transform="matrix(1 0 0 1 3448.17 1299)">O</text><text fill="#FFFFFF" font-family="Times New Roman,Times New Roman_MSFontService,sans-serif" font-weight="400" font-size="64" transform="matrix(1 0 0 1 3494.58 1299)">-</text><text fill="#FFFFFF" font-family="Times New Roman,Times New Roman_MSFontService,sans-serif" font-weight="400" font-size="64" transform="matrix(1 0 0 1 3515.77 1299)">RAN SC : Non</text><text fill="#FFFFFF" font-family="Times New Roman,Times New Roman_MSFontService,sans-serif" font-weight="400" font-size="64" transform="matrix(1 0 0 1 3906.5 1299)">-</text><text fill="#FFFFFF" font-family="Times New Roman,Times New Roman_MSFontService,sans-serif" font-weight="400" font-size="64" transform="matrix(1 0 0 1 3927.7 1299)">RT RIC</text><text fill="#FFFFFF" font-family="Times New Roman,Times New Roman_MSFontService,sans-serif" font-weight="700" font-size="64" transform="matrix(1 0 0 1 3633.23 1417)">Non</text><text fill="#FFFFFF" font-family="Times New Roman,Times New Roman_MSFontService,sans-serif" font-weight="700" font-size="64" transform="matrix(1 0 0 1 3747.24 1417)">-</text><text fill="#FFFFFF" font-family="Times New Roman,Times New Roman_MSFontService,sans-serif" font-weight="700" font-size="64" transform="matrix(1 0 0 1 3768.44 1417)">RT RIC</text><path d="M0 0 240.064 220.622" stroke="#FFFFFF" stroke-width="4.58333" stroke-miterlimit="8" stroke-dasharray="4.58333 4.58333" fill="none" fill-rule="evenodd" transform="matrix(1 0 0 -1 1057.5 1285.12)"/><text fill="#FFFFFF" font-family="Times New Roman,Times New Roman_MSFontService,sans-serif" font-weight="700" font-size="64" transform="matrix(1 0 0 1 2561.82 1417)">Near</text><text fill="#FFFFFF" font-family="Times New Roman,Times New Roman_MSFontService,sans-serif" font-weight="700" font-size="64" transform="matrix(1 0 0 1 2695.22 1417)">-</text><text fill="#FFFFFF" font-family="Times New Roman,Times New Roman_MSFontService,sans-serif" font-weight="700" font-size="64" transform="matrix(1 0 0 1 2716.41 1417)">RT RIC</text><path d="M2345 1035.52C2345 1018.11 2359.11 1004 2376.52 1004L3121.48 1004C3138.89 1004 3153 1018.11 3153 1035.52L3153 1305.48C3153 1322.89 3138.89 1337 3121.48 1337L2376.52 1337C2359.11 1337 2345 1322.89 2345 1305.48Z" fill="#262626" fill-rule="evenodd"/><rect x="2345" y="1112" width="808" height="117" fill="#3A3A3A"/><path d="M2345.5 1037.4C2345.5 1019.23 2360.23 1004.5 2378.4 1004.5L3120.6 1004.5C3138.77 1004.5 3153.5 1019.23 3153.5 1037.4L3153.5 1304.6C3153.5 1322.77 3138.77 1337.5 3120.6 1337.5L2378.4 1337.5C2360.23 1337.5 2345.5 1322.77 2345.5 1304.6Z" stroke="#FFFFFF" stroke-width="4.58333" stroke-miterlimit="8" fill="none" fill-rule="evenodd"/><text fill="#FFFFFF" font-family="Times New Roman,Times New Roman_MSFontService,sans-serif" font-weight="400" font-size="64" transform="matrix(1 0 0 1 2479.23 1302)">Mosaic5G : FlexRIC</text><text fill="#FFFFFF" font-family="Times New Roman,Times New Roman_MSFontService,sans-serif" font-weight="400" font-size="64" transform="matrix(1 0 0 1 2402.46 1195)">O</text><text fill="#FFFFFF" font-family="Times New Roman,Times New Roman_MSFontService,sans-serif" font-weight="400" font-size="64" transform="matrix(1 0 0 1 2448.86 1195)">-</text><text fill="#FFFFFF" font-family="Times New Roman,Times New Roman_MSFontService,sans-serif" font-weight="400" font-size="64" transform="matrix(1 0 0 1 2470.06 1195)">RAN SC : Near</text><text fill="#FFFFFF" font-family="Times New Roman,Times New Roman_MSFontService,sans-serif" font-weight="400" font-size="64" transform="matrix(1 0 0 1 2873.83 1195)">-</text><text fill="#FFFFFF" font-family="Times New Roman,Times New Roman_MSFontService,sans-serif" font-weight="400" font-size="64" transform="matrix(1 0 0 1 2895.03 1195)">RT RIC</text><text fill="#FFFFFF" font-family="Times New Roman,Times New Roman_MSFontService,sans-serif" font-weight="400" font-size="64" transform="matrix(1 0 0 1 2403.07 1087)">O</text><text fill="#FFFFFF" font-family="Times New Roman,Times New Roman_MSFontService,sans-serif" font-weight="400" font-size="64" transform="matrix(1 0 0 1 2449.48 1087)">-</text><text fill="#FFFFFF" font-family="Times New Roman,Times New Roman_MSFontService,sans-serif" font-weight="400" font-size="64" transform="matrix(1 0 0 1 2470.68 1087)">RAN SC : A1 Simulator</text><path d="M3153.5 1064.5 3384.36 1277.36" stroke="#FFFFFF" stroke-width="4.58333" stroke-miterlimit="8" fill="none" fill-rule="evenodd"/><text fill="#FFFFFF" font-family="Times New Roman,Times New Roman_MSFontService,sans-serif" font-weight="700" font-size="64" transform="matrix(1 0 0 1 2528.36 971)">5G Core Network</text></g></svg>