<svg width="4047" height="1127" xmlns="http://www.w3.org/2000/svg" xmlns:xlink="http://www.w3.org/1999/xlink" xml:space="preserve" overflow="hidden"><g transform="translate(-177 -684)"><path d="M179.5 717.438C179.5 700.352 193.351 686.5 210.438 686.5L4190.56 686.5C4207.65 686.5 4221.5 700.352 4221.5 717.438L4221.5 1758.56C4221.5 1775.65 4207.65 1789.5 4190.56 1789.5L210.438 1789.5C193.351 1789.5 179.5 1775.65 179.5 1758.56Z" stroke="#FFFFFF" stroke-width="4.58333" stroke-miterlimit="8" fill="#0D1117" fill-rule="evenodd"/><path d="M2071.5 1424.5 2317.13 1512.38" stroke="#FFFFFF" stroke-width="4.58333" stroke-miterlimit="8" fill="none" fill-rule="evenodd"/><path d="M1029.5 983.5 1273.76 983.5" stroke="#FFFFFF" stroke-width="4.58333" stroke-miterlimit="8" stroke-dasharray="4.58333 4.58333" fill="none" fill-rule="evenodd"/><path d="M1029.5 1093.5 1275.13 1093.5" stroke="#FFFFFF" stroke-width="4.58333" stroke-miterlimit="8" fill="none" fill-rule="evenodd"/><path d="M0 0 244.259 441.244" stroke="#FFFFFF" stroke-width="4.58333" stroke-miterlimit="8" stroke-dasharray="4.58333 4.58333" fill="none" fill-rule="evenodd" transform="matrix(1 0 0 -1 1029.5 1424.74)"/><path d="M1029.5 1314.5 1275.13 1314.5" stroke="#FFFFFF" stroke-width="4.58333" stroke-miterlimit="8" fill="none" fill-rule="evenodd"/><path d="M1029.5 1203.5 1269.56 1203.5" stroke="#FFFFFF" stroke-width="4.58333" stroke-miterlimit="8" stroke-dasharray="4.58333 4.58333" fill="none" fill-rule="evenodd"/><path d="M2087.5 936.5C2095.51 936.5 2102 948.042 2102 962.281L2102 1014.22C2102 1028.46 2108.49 1040 2116.5 1040 2108.49 1040 2102 1051.54 2102 1065.78L2102 1117.72C2102 1131.96 2095.51 1143.5 2087.5 1143.5" stroke="#FFFFFF" stroke-width="4.58333" stroke-miterlimit="8" fill="none" fill-rule="evenodd"/><path d="M2087.5 1157.5C2095.51 1157.5 2102 1169.04 2102 1183.28L2102 1235.22C2102 1249.46 2108.49 1261 2116.5 1261 2108.49 1261 2102 1272.54 2102 1286.78L2102 1338.72C2102 1352.96 2095.51 1364.5 2087.5 1364.5" stroke="#FFFFFF" stroke-width="4.58333" stroke-miterlimit="8" fill="none" fill-rule="evenodd"/><path d="M1269 955.4C1269 937.506 1283.51 923 1301.4 923L2044.6 923C2062.49 923 2077 937.506 2077 955.4L2077 1443.6C2077 1461.49 2062.49 1476 2044.6 1476L1301.4 1476C1283.51 1476 1269 1461.49 1269 1443.6Z" fill="#262626" fill-rule="evenodd"/><path d="M2043.2 1373 1302.8 1373C1284.13 1373 1269 1357.87 1269 1339.2L1269 1256 2077 1256 2077 1339.2C2077 1357.87 2061.87 1373 2043.2 1373Z" fill="#F2F2F2" fill-rule="evenodd"/><rect x="1269" y="1031" width="808" height="117" fill="#3A3A3A"/><text fill="#FFFFFF" font-family="Times New Roman,Times New Roman_MSFontService,sans-serif" font-weight="400" font-size="64" transform="matrix(1 0 0 1 1510.44 1226)">OAI : USRP</text><text fill="#FFFFFF" font-family="Times New Roman,Times New Roman_MSFontService,sans-serif" font-weight="400" font-size="64" transform="matrix(1 0 0 1 1324.81 1116)">srsRAN_Project</text><text fill="#FFFFFF" font-family="Times New Roman,Times New Roman_MSFontService,sans-serif" font-weight="400" font-size="64" transform="matrix(1 0 0 1 1761.95 1116)">: </text><text fill="#FFFFFF" font-family="Times New Roman,Times New Roman_MSFontService,sans-serif" font-weight="400" font-size="64" transform="matrix(1 0 0 1 1795.75 1116)">ZeroMQ</text><text fill="#FFFFFF" font-family="Times New Roman,Times New Roman_MSFontService,sans-serif" font-weight="400" font-size="64" transform="matrix(1 0 0 1 1355.52 1006)">srsRAN_Project</text><text fill="#FFFFFF" font-family="Times New Roman,Times New Roman_MSFontService,sans-serif" font-weight="400" font-size="64" transform="matrix(1 0 0 1 1792.66 1006)">: USRP</text><text fill="#FFFFFF" font-family="Times New Roman,Times New Roman_MSFontService,sans-serif" font-weight="400" font-size="64" transform="matrix(1 0 0 1 1328.82 1447)">O</text><text fill="#FFFFFF" font-family="Times New Roman,Times New Roman_MSFontService,sans-serif" font-weight="400" font-size="64" transform="matrix(1 0 0 1 1375.23 1447)">-</text><text fill="#FFFFFF" font-family="Times New Roman,Times New Roman_MSFontService,sans-serif" font-weight="400" font-size="64" transform="matrix(1 0 0 1 1396.43 1447)">RAN SC : E2 Simulator</text><text fill="#FFFFFF" font-family="Times New Roman,Times New Roman_MSFontService,sans-serif" font-weight="700" font-size="64" transform="matrix(1 0 0 1 1345.48 1556)">Next Generation Node B</text><rect x="1269" y="1257" width="808" height="116" fill="#3A3A3A"/><text fill="#FFFFFF" font-family="Times New Roman,Times New Roman_MSFontService,sans-serif" font-weight="400" font-size="64" transform="matrix(1 0 0 1 1417.05 1336)">OAI : RF Simulator</text><path d="M1269.5 955.737C1269.5 937.933 1283.93 923.5 1301.74 923.5L2045.26 923.5C2063.07 923.5 2077.5 937.933 2077.5 955.737L2077.5 1445.26C2077.5 1463.07 2063.07 1477.5 2045.26 1477.5L1301.74 1477.5C1283.93 1477.5 1269.5 1463.07 1269.5 1445.26Z" stroke="#FFFFFF" stroke-width="4.58333" stroke-miterlimit="8" fill="none" fill-rule="evenodd"/><path d="M221 955.4C221 937.506 235.506 923 253.4 923L996.599 923C1014.49 923 1029 937.506 1029 955.4L1029 1443.6C1029 1461.49 1014.49 1476 996.599 1476L253.4 1476C235.506 1476 221 1461.49 221 1443.6Z" fill="#262626" fill-rule="evenodd"/><path d="M995.199 1373 254.801 1373C236.133 1373 221 1357.87 221 1339.2L221 1256 1029 1256 1029 1339.2C1029 1357.87 1013.87 1373 995.199 1373Z" fill="#F2F2F2" fill-rule="evenodd"/><rect x="221" y="1031" width="808" height="117" fill="#3A3A3A"/><text fill="#FFFFFF" font-family="Times New Roman,Times New Roman_MSFontService,sans-serif" font-weight="400" font-size="64" transform="matrix(1 0 0 1 462.53 1226)">OAI : USRP</text><text fill="#FFFFFF" font-family="Times New Roman,Times New Roman_MSFontService,sans-serif" font-weight="400" font-size="64" transform="matrix(1 0 0 1 328.467 1116)">srsRAN_4G : </text><text fill="#FFFFFF" font-family="Times New Roman,Times New Roman_MSFontService,sans-serif" font-weight="400" font-size="64" transform="matrix(1 0 0 1 696.28 1116)">ZeroMQ</text><text fill="#FFFFFF" font-family="Times New Roman,Times New Roman_MSFontService,sans-serif" font-weight="400" font-size="64" transform="matrix(1 0 0 1 360.551 1006)">srsRAN_4G : USRP</text><text fill="#FFFFFF" font-family="Times New Roman,Times New Roman_MSFontService,sans-serif" font-weight="400" font-size="64" transform="matrix(1 0 0 1 396.358 1447)">5G </text><text fill="#FFFFFF" font-family="Times New Roman,Times New Roman_MSFontService,sans-serif" font-weight="400" font-size="64" transform="matrix(1 0 0 1 490.889 1447)">Mobile Phone</text><text fill="#FFFFFF" font-family="Times New Roman,Times New Roman_MSFontService,sans-serif" font-weight="700" font-size="64" transform="matrix(1 0 0 1 408.725 1556)">User Equipment</text><rect x="221" y="1257" width="808" height="116" fill="#3A3A3A"/><text fill="#FFFFFF" font-family="Times New Roman,Times New Roman_MSFontService,sans-serif" font-weight="400" font-size="64" transform="matrix(1 0 0 1 369.144 1336)">OAI : RF Simulator</text><path d="M221.5 955.737C221.5 937.933 235.933 923.5 253.737 923.5L997.263 923.5C1015.07 923.5 1029.5 937.933 1029.5 955.737L1029.5 1445.26C1029.5 1463.07 1015.07 1477.5 997.263 1477.5L253.737 1477.5C235.933 1477.5 221.5 1463.07 221.5 1445.26Z" stroke="#FFFFFF" stroke-width="4.58333" stroke-miterlimit="8" fill="none" fill-rule="evenodd"/><path d="M3355.5 1379.24C3355.5 1360.05 3371.05 1344.5 3390.24 1344.5L4129.76 1344.5C4148.95 1344.5 4164.5 1360.05 4164.5 1379.24L4164.5 1429.76C4164.5 1448.95 4148.95 1464.5 4129.76 1464.5L3390.24 1464.5C3371.05 1464.5 3355.5 1448.95 3355.5 1429.76Z" stroke="#FFFFFF" stroke-width="4.58333" stroke-miterlimit="8" fill="#262626" fill-rule="evenodd"/><text fill="#FFFFFF" font-family="Times New Roman,Times New Roman_MSFontService,sans-serif" font-weight="400" font-size="64" transform="matrix(1 0 0 1 3419.52 1427)">O</text><text fill="#FFFFFF" font-family="Times New Roman,Times New Roman_MSFontService,sans-serif" font-weight="400" font-size="64" transform="matrix(1 0 0 1 3465.93 1427)">-</text><text fill="#FFFFFF" font-family="Times New Roman,Times New Roman_MSFontService,sans-serif" font-weight="400" font-size="64" transform="matrix(1 0 0 1 3487.13 1427)">RAN SC : Non</text><text fill="#FFFFFF" font-family="Times New Roman,Times New Roman_MSFontService,sans-serif" font-weight="400" font-size="64" transform="matrix(1 0 0 1 3877.86 1427)">-</text><text fill="#FFFFFF" font-family="Times New Roman,Times New Roman_MSFontService,sans-serif" font-weight="400" font-size="64" transform="matrix(1 0 0 1 3899.06 1427)">RT RIC</text><text fill="#FFFFFF" font-family="Times New Roman,Times New Roman_MSFontService,sans-serif" font-weight="700" font-size="64" transform="matrix(1 0 0 1 3604.58 1545)">Non</text><text fill="#FFFFFF" font-family="Times New Roman,Times New Roman_MSFontService,sans-serif" font-weight="700" font-size="64" transform="matrix(1 0 0 1 3718.59 1545)">-</text><text fill="#FFFFFF" font-family="Times New Roman,Times New Roman_MSFontService,sans-serif" font-weight="700" font-size="64" transform="matrix(1 0 0 1 3739.79 1545)">RT RIC</text><rect x="3174.5" y="728.5" width="1006" height="189" stroke="#FFFFFF" stroke-width="4.58333" stroke-miterlimit="8" fill="#0D1117"/><path d="M3208.5 777.5 3284.46 777.5" stroke="#FFFFFF" stroke-width="4.58333" stroke-miterlimit="8" fill="none" fill-rule="evenodd"/><text fill="#FFFFFF" font-family="Times New Roman,Times New Roman_MSFontService,sans-serif" font-weight="400" font-size="64" transform="matrix(1 0 0 1 3305.47 799)">Supported by default installation</text><text fill="#FFFFFF" font-family="Times New Roman,Times New Roman_MSFontService,sans-serif" font-weight="400" font-size="64" transform="matrix(1 0 0 1 3305.47 876)">Supported after adjusting configs</text><path d="M3208.5 855.5 3284.46 855.5" stroke="#FFFFFF" stroke-width="4.58333" stroke-miterlimit="8" stroke-dasharray="4.58333 4.58333" fill="none" fill-rule="evenodd"/><path d="M0 0 239.782 223.945" stroke="#FFFFFF" stroke-width="4.58333" stroke-miterlimit="8" stroke-dasharray="4.58333 4.58333" fill="none" fill-rule="evenodd" transform="matrix(1 0 0 -1 1029.5 1424.45)"/><text fill="#FFFFFF" font-family="Times New Roman,Times New Roman_MSFontService,sans-serif" font-weight="700" font-size="64" transform="matrix(1 0 0 1 2533.17 1757)">Near</text><text fill="#FFFFFF" font-family="Times New Roman,Times New Roman_MSFontService,sans-serif" font-weight="700" font-size="64" transform="matrix(1 0 0 1 2666.57 1757)">-</text><text fill="#FFFFFF" font-family="Times New Roman,Times New Roman_MSFontService,sans-serif" font-weight="700" font-size="64" transform="matrix(1 0 0 1 2687.77 1757)">RT RIC</text><path d="M2316 1375.52C2316 1358.11 2330.11 1344 2347.52 1344L3093.48 1344C3110.89 1344 3125 1358.11 3125 1375.52L3125 1645.48C3125 1662.89 3110.89 1677 3093.48 1677L2347.52 1677C2330.11 1677 2316 1662.89 2316 1645.48Z" fill="#262626" fill-rule="evenodd"/><rect x="2316" y="1452" width="809" height="117" fill="#3A3A3A"/><path d="M2316.5 1377.4C2316.5 1359.23 2331.23 1344.5 2349.4 1344.5L3092.6 1344.5C3110.77 1344.5 3125.5 1359.23 3125.5 1377.4L3125.5 1644.6C3125.5 1662.77 3110.77 1677.5 3092.6 1677.5L2349.4 1677.5C2331.23 1677.5 2316.5 1662.77 2316.5 1644.6Z" stroke="#FFFFFF" stroke-width="4.58333" stroke-miterlimit="8" fill="none" fill-rule="evenodd"/><text fill="#FFFFFF" font-family="Times New Roman,Times New Roman_MSFontService,sans-serif" font-weight="400" font-size="64" transform="matrix(1 0 0 1 2450.93 1643)">Mosaic5G : FlexRIC</text><text fill="#FFFFFF" font-family="Times New Roman,Times New Roman_MSFontService,sans-serif" font-weight="400" font-size="64" transform="matrix(1 0 0 1 2374.15 1535)">O</text><text fill="#FFFFFF" font-family="Times New Roman,Times New Roman_MSFontService,sans-serif" font-weight="400" font-size="64" transform="matrix(1 0 0 1 2420.56 1535)">-</text><text fill="#FFFFFF" font-family="Times New Roman,Times New Roman_MSFontService,sans-serif" font-weight="400" font-size="64" transform="matrix(1 0 0 1 2441.76 1535)">RAN SC : Near</text><text fill="#FFFFFF" font-family="Times New Roman,Times New Roman_MSFontService,sans-serif" font-weight="400" font-size="64" transform="matrix(1 0 0 1 2845.53 1535)">-</text><text fill="#FFFFFF" font-family="Times New Roman,Times New Roman_MSFontService,sans-serif" font-weight="400" font-size="64" transform="matrix(1 0 0 1 2866.73 1535)">RT RIC</text><text fill="#FFFFFF" font-family="Times New Roman,Times New Roman_MSFontService,sans-serif" font-weight="400" font-size="64" transform="matrix(1 0 0 1 2374.77 1427)">O</text><text fill="#FFFFFF" font-family="Times New Roman,Times New Roman_MSFontService,sans-serif" font-weight="400" font-size="64" transform="matrix(1 0 0 1 2421.18 1427)">-</text><text fill="#FFFFFF" font-family="Times New Roman,Times New Roman_MSFontService,sans-serif" font-weight="400" font-size="64" transform="matrix(1 0 0 1 2442.38 1427)">RAN SC : A1 Simulator</text><path d="M3091.2 1173 2349.8 1173C2331.13 1173 2316 1157.87 2316 1139.2L2316 1056 3125 1056 3125 1139.2C3125 1157.87 3109.87 1173 3091.2 1173Z" fill="#3A3A3A" fill-rule="evenodd"/><path d="M2348.35 723 3092.65 723C3110.52 723 3125 737.484 3125 755.351L3125 1056 2316 1056 2316 755.351C2316 737.484 2330.48 723 2348.35 723Z" fill="#262626" fill-rule="evenodd"/><rect x="2316" y="831" width="809" height="117" fill="#3A3A3A"/><path d="M2316.5 756.948C2316.5 738.475 2331.48 723.5 2349.95 723.5L3092.05 723.5C3110.52 723.5 3125.5 738.475 3125.5 756.948L3125.5 1140.05C3125.5 1158.52 3110.52 1173.5 3092.05 1173.5L2349.95 1173.5C2331.48 1173.5 2316.5 1158.52 2316.5 1140.05Z" stroke="#FFFFFF" stroke-width="4.58333" stroke-miterlimit="8" fill="none" fill-rule="evenodd"/><text fill="#FFFFFF" font-family="Times New Roman,Times New Roman_MSFontService,sans-serif" font-weight="400" font-size="64" transform="matrix(1 0 0 1 2466.68 1021)">Phoenix (5gdeploy</text><text fill="#FFFFFF" font-family="Times New Roman,Times New Roman_MSFontService,sans-serif" font-weight="400" font-size="64" transform="matrix(1 0 0 1 2953.09 1021)">)</text><text fill="#FFFFFF" font-family="Times New Roman,Times New Roman_MSFontService,sans-serif" font-weight="400" font-size="64" transform="matrix(1 0 0 1 2454.08 914)">Free5GC (5gdeploy</text><text fill="#FFFFFF" font-family="Times New Roman,Times New Roman_MSFontService,sans-serif" font-weight="400" font-size="64" transform="matrix(1 0 0 1 2965.69 914)">)</text><text fill="#FFFFFF" font-family="Times New Roman,Times New Roman_MSFontService,sans-serif" font-weight="400" font-size="64" transform="matrix(1 0 0 1 2414.83 806)">OAI 5G CN (5gdeploy</text><text fill="#FFFFFF" font-family="Times New Roman,Times New Roman_MSFontService,sans-serif" font-weight="400" font-size="64" transform="matrix(1 0 0 1 3004.93 806)">)</text><text fill="#FFFFFF" font-family="Times New Roman,Times New Roman_MSFontService,sans-serif" font-weight="400" font-size="64" transform="matrix(1 0 0 1 2593.87 1137)">Open5GS</text><text fill="#FFFFFF" font-family="Times New Roman,Times New Roman_MSFontService,sans-serif" font-weight="700" font-size="64" transform="matrix(1 0 0 1 2499.31 1237)">5G Core Network</text><path d="M2116.5 1261.5 2316.49 1512.51" stroke="#FFFFFF" stroke-width="4.58333" stroke-miterlimit="8" stroke-dasharray="4.58333 4.58333" fill="none" fill-rule="evenodd"/><path d="M2116.5 1039.5 2316.49 1114.04" stroke="#FFFFFF" stroke-width="4.58333" stroke-miterlimit="8" fill="none" fill-rule="evenodd"/><path d="M0 0 199.991 146.814" stroke="#FFFFFF" stroke-width="4.58333" stroke-miterlimit="8" fill="none" fill-rule="evenodd" transform="matrix(1 0 0 -1 2116.5 1261.31)"/><path d="M2116.5 1261.5 2316.49 1620.42" stroke="#FFFFFF" stroke-width="4.58333" stroke-miterlimit="8" fill="none" fill-rule="evenodd"/><path d="M2116.5 1039.5 2316.49 1619.78" stroke="#FFFFFF" stroke-width="4.58333" stroke-miterlimit="8" stroke-dasharray="4.58333 4.58333" fill="none" fill-rule="evenodd"/><path d="M0 0 199.991 370.141" stroke="#FFFFFF" stroke-width="4.58333" stroke-miterlimit="8" stroke-dasharray="4.58333 4.58333" fill="none" fill-rule="evenodd" transform="matrix(1 0 0 -1 2116.5 1261.64)"/><path d="M0 0 199.99 478.057" stroke="#FFFFFF" stroke-width="4.58333" stroke-miterlimit="8" stroke-dasharray="4.58333 4.58333" fill="none" fill-rule="evenodd" transform="matrix(1 0 0 -1 2116.5 1261.56)"/><path d="M0 0 199.991 40.8714" stroke="#FFFFFF" stroke-width="4.58333" stroke-miterlimit="8" stroke-dasharray="4.58333 4.58333" fill="none" fill-rule="evenodd" transform="matrix(1 0 0 -1 2116.5 1039.37)"/><path d="M0 0 199.991 148.788" stroke="#FFFFFF" stroke-width="4.58333" stroke-miterlimit="8" stroke-dasharray="4.58333 4.58333" fill="none" fill-rule="evenodd" transform="matrix(1 0 0 -1 2116.5 1040.29)"/><path d="M0 0 199.99 256.704" stroke="#FFFFFF" stroke-width="4.58333" stroke-miterlimit="8" stroke-dasharray="4.58333 4.58333" fill="none" fill-rule="evenodd" transform="matrix(1 0 0 -1 2116.5 1040.2)"/><path d="M0 0 199.991 262.225" stroke="#FFFFFF" stroke-width="4.58333" stroke-miterlimit="8" stroke-dasharray="4.58333 4.58333" fill="none" fill-rule="evenodd" transform="matrix(1 0 0 -1 2116.5 1260.72)"/><path d="M2116.5 1039.5 2316.49 1511.86" stroke="#FFFFFF" stroke-width="4.58333" stroke-miterlimit="8" fill="none" fill-rule="evenodd"/><path d="M0 0 230.864 107.201" stroke="#FFFFFF" stroke-width="4.58333" stroke-miterlimit="8" stroke-dasharray="4.58333 4.58333" fill="none" fill-rule="evenodd" transform="matrix(1 0 0 -1 3125.5 1511.7)"/><path d="M3125.5 1404.5 3356.36 1405.22" stroke="#FFFFFF" stroke-width="4.58333" stroke-miterlimit="8" fill="none" fill-rule="evenodd"/></g></svg>